<svg fill="none" height="24" viewBox="0 0 24 24" width="24" xmlns="http://www.w3.org/2000/svg"><path d="m17.8582 3.26063c.4117-.24701.8906-.32633 1.3869-.20396.3369.08536.6367.26212.8732.51064.3172-.15485.5499-.24776.6383-.281l.0181-.0068c.4819-.17147.9352-.14654 1.3982.05892.4457.20773.7826.57636.948 1.03865.2493.69571.0514 1.4813-.4917 1.97457.3119.62696.2409 1.3831-.1874 1.9436-.3006.38524-.738.63149-1.2312.69344-.1141.01208-.2266.01435-.3384.00679-.0559.57334-.3128 1.10132-.7486 1.53422.1933.5219.1004 1.0409.0506 1.3241l-.9669 5.5793c-.5016 2.9014-1.2403 3.3139-3.7036 3.3139h-9.70745c-2.4633 0-3.20206-.4125-3.70364-3.3131l-.96462-5.571c-.05816-.3225-.166184-.92.11255-1.4881l-.10273-.45926c-.314239-1.39972-.08687-2.66952.63905-3.57673.62621-.78107 1.56213-1.21164 2.63553-1.21164.10651 0 .21604.00454.33539.01436l.03172.00264.03173.00264c.64585-1.44806 1.69659-1.7827 2.26992-1.8537 1.1361-.14655 2.08712.54161 2.21025 1.53947.0068.05665.00831.11255.0068.16694.8151-.67683 1.8197-1.04696 2.8501-1.04696 1.1225 0 2.2072.44265 3.0623 1.24713.4985-.41621 1.1179-.61261 1.7744-.56502.0619-.56805.3844-1.07793.8732-1.37404zm.4895 7.64147h-15.40075c-.18054.0121-.28402.0453-.33237.1065-.07101.0921-.05288.2923.00076.5862l.96688 5.5815c.35579 2.0606.35579 2.0606 2.21403 2.0606h9.70745c1.8582 0 1.8582 0 2.2147-2.0606l.9662-5.5815c.0536-.2939.0725-.4941.0007-.5862-.0476-.0612-.1518-.0944-.3376-.1065zm-6.1678.9959c.417 0 .7554.3391.7554.7553 0 .4163-.3384.7554-.7554.7554h-3.30026c-.41621 0-.75538-.3391-.75538-.7554 0-.4162.33917-.7553.75538-.7553zm6.6928-7.3774c-.0824-.01888-.1647-.0068-.2387.03626-.1473.08914-.1949.28327-.1066.43284.38.64207-.077 1.56515-.2273 1.83255l-.0461.08385-.0702-.06496c-.2863-.26288-.8476-.70326-1.3945-.70326-.3225 0-.6066.15485-.8203.44643-.2644.36031-.8944 1.27886-1.9247 2.80699l4.4061.00303c.099.00679.3225.02115.5779.10273.216-.19716.3316-.43057.3429-.69571.0159-.34899-.1412-.74632-.4676-1.18217l-.0506-.06799.074-.04305c.3619-.20773.7229-.31349 1.0719-.31349.5009 0 .7954.2168.8075.22662.0673.05288.1511.07629.2319.06647.0846-.01133.1587-.05363.2108-.1201.105-.13748.0808-.33615-.0552-.44266-.0491-.03777-.5015-.37316-1.2139-.37316-.1133 0-.2296.00831-.3444.02569l-.2689.04003.21-.17298c.7769-.64024 1.5842-1.00675 1.8466-1.11699l.0641-.02632c.0149-.00595.023-.00907.0238-.0094.1624-.05968.2463-.24172.1873-.40564-.0287-.07932-.0868-.14277-.1624-.17827-.077-.03475-.1609-.03928-.2424-.00982-.1579.06043-.9979.39884-1.8764 1.0666l-.1307.09895.0098-.16392c.0227-.38977-.0544-.738-.2304-1.03411-.043-.07252-.111-.12389-.1933-.14504zm-11.50298.26307-.09443.00812c-.88154.10801-1.24865 1.18821-1.40124 2.07578l-.01662.09367-.08762-.03701c-.35276-.14957-.73952-.24324-1.14969-.27798-.07025-.00529-.13975-.00756-.20773-.00756-.60506 0-1.1021.21755-1.439.62848-.41546.50837-.55294 1.27282-.38827 2.15737.12615-.02039.22737-.02719.26438-.03021l.09745-.00303h4.5693l-.00453-.03625c-.0136-.12917-.02795-.26288-.02795-.39809 0-.81204.18734-1.61652.54312-2.3364-.10424.00303-.21.00907-.32104.01889l-.06798.00604c-.33615.02946-.79617.07025-1.2207.34143l-.15107.09669.03701-.176c.19187-.91779.64358-1.49641 1.30681-1.67166.12388-.03097.19489-.11708.1828-.21755-.01662-.13446-.18658-.27118-.51743-.22661zm4.77858.67965c-1.7389 0-3.15377 1.56742-3.15377 3.49364 0 .14805.01436.29535.03173.43434h3.21184c.5401-.8007 1.4579-2.16265 2.0298-3.00113-.5862-.59826-1.3363-.92685-2.1196-.92685z" fill="#000"/></svg>