<svg fill="none" height="24" viewBox="0 0 24 24" width="24" xmlns="http://www.w3.org/2000/svg"><g clip-rule="evenodd" fill="#000" fill-rule="evenodd"><path d="m16.6154 12.9c0 2.4853-2.0664 4.5-4.6154 4.5-2.54901 0-4.61538-2.0147-4.61538-4.5s2.06637-4.5 4.61538-4.5c2.549 0 4.6154 2.0147 4.6154 4.5zm-1.8462 0c0 1.4912-1.2398 2.7-2.7692 2.7s-2.76923-1.2088-2.76923-2.7 1.23983-2.7 2.76923-2.7 2.7692 1.2088 2.7692 2.7z"/><path d="m6.27108 4.3281-.63086 1.04264c-.13775.22766-.40893.32926-.68003.32926h-1.26788c-2.03921 0-3.69231 1.61177-3.69231 3.6v8.1c0 1.9882 1.6531 3.6 3.69231 3.6h16.61539c2.0392 0 3.6923-1.6118 3.6923-3.6v-8.1c0-1.98823-1.6531-3.6-3.6923-3.6h-1.2677c-.2711 0-.5423-.1016-.68-.32926l-.6309-1.04264c-.4979-.82302-1.405-1.3281-2.3851-1.3281h-6.68781c-.98006 0-1.88713.50508-2.38511 1.3281zm1.59008.9146-.63086 1.04263c-.58168.96135-1.60093 1.21467-2.27011 1.21467h-1.26788c-1.0196 0-1.84616.80589-1.84616 1.8v8.1c0 .9941.82656 1.8 1.84616 1.8h16.61539c1.0196 0 1.8461-.8059 1.8461-1.8v-8.1c0-.99411-.8265-1.8-1.8461-1.8h-1.2677c-.6692 0-1.6884-.25332-2.2701-1.21467l-.6308-1.04263c-.166-.27434-.4684-.4427-.7951-.4427h-6.68781c-.32668 0-.62904.16836-.79503.4427z"/></g></svg>