<svg width="24" height="24" viewBox="0 0 24 24" fill="none" xmlns="http://www.w3.org/2000/svg">
<path d="M12.0002 11C12.0002 11.256 12.0978 11.5119 12.293 11.7071C12.4905 11.9046 12.75 12.0022 13.0089 12C13.0118 12 13.0147 12 13.0177 12H20C20.5523 12 21 11.5523 21 11C21 10.4477 20.5523 10 20 10H15.4144L20.7073 4.70711C21.0978 4.31658 21.0978 3.68342 20.7073 3.29289C20.3167 2.90237 19.6836 2.90237 19.293 3.29289L14 8.58594V4C14 3.44772 13.5523 3 13 3C12.4477 3 12 3.44772 12 4V10.9823C12 10.9882 12.0001 10.9942 12.0002 11Z" fill="black"/>
<path d="M12 13C12 12.744 11.9024 12.4881 11.7071 12.2929C11.5096 12.0954 11.2501 11.9978 10.9913 12C10.9884 12 10.9854 12 10.9825 12L4.00015 12C3.44787 12 3.00015 12.4477 3.00015 13C3.00015 13.5523 3.44787 14 4.00015 14L8.58579 14L3.29289 19.2929C2.90237 19.6834 2.90237 20.3166 3.29289 20.7071C3.68342 21.0976 4.31658 21.0976 4.70711 20.7071L10.0002 15.4141L10.0002 20C10.0002 20.5523 10.4479 21 11.0002 21C11.5524 21 12.0002 20.5523 12.0002 20L12.0002 13.0177C12.0002 13.0118 12.0001 13.0058 12 13Z" fill="black"/>
</svg>
