<svg fill="none" height="16" viewBox="0 0 16 16" width="16" xmlns="http://www.w3.org/2000/svg"><path d="m7.10456 1.67931c.28185-.905747 1.50903-.905746 1.79088 0l1.00702 3.23618c.12604.40506.48754.67931.89544.67931h3.2588c.9121 0 1.2913 1.21867.5534 1.77845l-2.6364 2.00007c-.33.25034-.4681.69408-.3421 1.09918l1.0071 3.2361c.2818.9058-.711 1.659-1.4489 1.0992l-2.63639-2.0001c-.32999-.2503-.77683-.2503-1.10682 0l-2.63641 2.0001c-.73788.5598-1.73069-.1934-1.44885-1.0992l1.00702-3.2361c.12605-.4051-.01204-.84884-.34203-1.09918l-2.63641-2.00007c-.737879-.55978-.35866-1.77845.55341-1.77845h3.25879c.40789 0 .76939-.27425.89543-.67931z" fill="#000"/></svg>