<svg fill="none" height="16" viewBox="0 0 16 16" width="16" xmlns="http://www.w3.org/2000/svg"><g fill="#000"><path d="m14 3.41421-5.29289 5.2929c-.39053.39052-1.02369.39052-1.41422 0-.39052-.39053-.39052-1.02369 0-1.41422l5.29291-5.29289h-2.5858c-.55229 0-1-.44772-1-1 0-.552285.44771-1 1-1h4.9998c.1356 0 .2651.0269854.383.0758787.1179.0487993.2284.1211383.3243.2170143.1945.1945.2921.449186.2929.704108v.002999 5c0 .55228-.4477 1-1 1s-1-.44772-1-1z"/><path d="m3 2c-.55228 0-1 .44772-1 1v10c0 .5523.44772 1 1 1h10c.5523 0 1-.4477 1-1v-3c0-.55229.4477-1 1-1s1 .44771 1 1v3c0 1.6569-1.3431 3-3 3h-10c-1.65685 0-3-1.3431-3-3v-10c0-1.65685 1.34315-3 3-3h3c.55228 0 1 .447715 1 1 0 .55228-.44772 1-1 1z"/></g></svg>