<svg fill="none" height="16" viewBox="0 0 16 16" width="16" xmlns="http://www.w3.org/2000/svg"><path d="m14.1316 6.50885c.3398-.44731.5171-.95427.5171-1.49105 0-2.13221-2.8516-3.72764-6.64875-3.72764-3.79718 0-6.64875 1.59543-6.64875 3.72764 0 .53678.1773 1.04374.51712 1.49105-.33982.44732-.51712.95428-.51712 1.49106s.1773 1.04374.51712 1.49105c-.33982.44732-.51712.95424-.51712 1.49104 0 2.1322 2.85157 3.7277 6.64875 3.7277 3.79715 0 6.64875-1.5955 6.64875-3.7277 0-.5368-.1773-1.04372-.5171-1.49104.3398-.44731.5171-.95427.5171-1.49105s-.1773-1.04374-.5171-1.49106zm-.9604 4.47315c0 1.0587-2.2163 2.2366-5.17125 2.2366-2.955 0-5.17125-1.1779-5.17125-2.2366 0-.164.0591-.328.16252-.492 1.19678.7604 2.96978 1.2375 5.00873 1.2375s3.81195-.4771 5.00875-1.2375c.1034.164.1625.328.1625.492zm-10.3425-5.9642c0-1.05865 2.21625-2.23658 5.17125-2.23658 2.95495 0 5.17125 1.17793 5.17125 2.23658 0 .6124-.724 1.25142-1.906 1.68489.266-.25348.4285-.5666.4285-.93936 0-1.28231-1.86166-1.86382-3.69375-1.86382-1.8321 0-3.69375.58151-3.69375 1.86382 0 .37276.16252.68588.42847.93936-1.182-.43347-1.90597-1.07249-1.90597-1.68489zm10.3425 2.98211c0 1.05865-2.2163 2.23659-5.17125 2.23659-2.955 0-5.17125-1.17794-5.17125-2.23659 0-.16402.0591-.32803.16252-.49205 1.19678.76044 2.96978 1.23758 5.00873 1.23758s3.81195-.47714 5.00875-1.23758c.1034.16402.1625.32803.1625.49205zm-7.22498-2.23658c.33983-.17893 1.04902-.37277 2.05373-.37277 1.00469 0 1.71495.19384 2.05375.37277-.3388.17892-1.04906.37276-2.05375.37276-1.00471 0-1.71496-.19384-2.05373-.37276z" fill="#000"/></svg>