<svg fill="none" height="16" viewBox="0 0 16 16" width="16" xmlns="http://www.w3.org/2000/svg"><path d="m12.2063 1.03478c.3905-.390529 1.0237-.390529 1.4142 0l1.4142 1.41421c.3906.39052.3906 1.02369 0 1.41421l-8.48523 8.4853c-.39053.3905-1.02369.3905-1.41422 0l-1.41421-1.4142c-.39052-.3906-.39052-1.02372 0-1.41424zm-10.38939 10.46422c.05445-.1647.19092-.2885.35921-.3281.169-.0403.34649.0099.46882.1322l2.12132 2.1214c.12303.123.17253.2998.13293.4695-.0396.1683-.16405.304-.3281.3592l-3.18198 1.0606c-.35991.1195-.752357-.2729-.632856-.6328z" fill="#000"/></svg>