<svg fill="none" height="16" viewBox="0 0 16 16" width="16" xmlns="http://www.w3.org/2000/svg"><g fill="#000"><path d="m7.99999 2c0-.55228.44772-1 1-1h4.99961c.5522 0 .9999.44767 1 .99992l.0004 5c0 .55229-.4477 1.00004-1 1.00008s-1-.44764-1-.99992l-.0002-2.58609-3.29324 3.29313c-.39053.39051-1.0237.39051-1.41422-.00002s-.39051-1.0237.00002-1.41422l3.29294-3.29288h-2.58531c-.55228 0-1-.44772-1-1z"/><path d="m7.70723 8.2929c.39052.39053.39051 1.0237-.00002 1.41422l-3.29296 3.29288h2.58574c.55229 0 1 .4477 1 1s-.44771 1-1 1h-4.99999c-.26522 0-.51957-.1054-.70711-.2929s-.292892-.4419-.29289-.7071l.00003-5.00001c.00001-.55228.44772-.99999 1.00001-.99999.55228 0 1 .44772.99999 1.00001l-.00001 2.58579 3.293-3.29292c.39053-.39051 1.02369-.39051 1.41421.00002z"/></g></svg>