<svg fill="none" height="16" viewBox="0 0 16 16" width="16" xmlns="http://www.w3.org/2000/svg"><path d="m10.4208 5.01564c-3.17184-2.1049-1.73646-4.152969-1.73646-4.152969-3.08346 1.775399-3.76604 4.485199-3.01069 7.911319-1.11094-.90075-1.27186-1.96747-1.23548-3.37426-1.41457 1.5132-1.66894 3.11461-1.5755 4.84857.08944 1.7821 1.09537 3.3905 2.65854 4.2511 1.56303.8603 3.46023.8498 5.01399-.0279 1.5535-.8777 2.5416-2.4974 2.6112-4.2804.109-2.26588-.8513-3.93227-2.7254-5.17535zm-2.07647 8.92866c-.70845.0026-1.4015-.2062-1.99065-.5996.14013.0137.28027.0208.4204.0208 1.21486-.0055 2.37826-.4914 3.23612-1.3516.8578-.8603 1.3405-2.025 1.3425-3.23986 0-.14013-.0069-.28026-.0208-.4204v-.00018c.3937.5846.605 1.27298.6074 1.97784.0012.9568-.3775 1.8751-1.053 2.5526-.6757.6777-1.59293 1.0592-2.5498 1.0604z" fill="#000"/></svg>