<svg width="16" height="16" viewBox="0 0 16 16" fill="none" xmlns="http://www.w3.org/2000/svg">
<path d="M6.92506 6.75498C6.92506 6.33415 6.58391 5.993 6.16308 5.993C5.74225 5.993 5.4011 6.33415 5.4011 6.75498L5.4011 12.8474C5.4011 13.2683 5.74225 13.6094 6.16308 13.6094C6.58391 13.6094 6.92506 13.2683 6.92506 12.8474L6.92506 6.75498Z" fill="black"/>
<path d="M9.55124 5.993C9.97207 5.993 10.3132 6.33415 10.3132 6.75498V12.8474C10.3132 13.2683 9.97207 13.6094 9.55124 13.6094C9.13041 13.6094 8.78926 13.2683 8.78926 12.8474V6.75498C8.78926 6.33415 9.13041 5.993 9.55124 5.993Z" fill="black"/>
<path fill-rule="evenodd" clip-rule="evenodd" d="M12.0481 3.2792H13.9536C14.3745 3.2792 14.7156 3.62035 14.7156 4.04118C14.7156 4.46201 14.3745 4.80316 13.9536 4.80316H13.5339V13.7141C13.5339 14.9766 12.5104 16 11.248 16H4.46741C3.20493 16 2.18148 14.9766 2.18148 13.7141V4.80316H1.76198C1.34115 4.80316 1 4.46201 1 4.04118C1 3.62035 1.34115 3.2792 1.76198 3.2792H3.66694V2.28594C3.66694 1.02345 4.69039 4.43391e-07 5.95288 3.33021e-07L9.7622 0C11.0247 -1.1037e-07 12.0481 1.02345 12.0481 2.28594V3.2792ZM10.5242 3.2792V2.28594C10.5242 1.86511 10.183 1.52396 9.7622 1.52396L5.95288 1.52396C5.53205 1.52396 5.1909 1.86511 5.1909 2.28594V3.2792H10.5242ZM12.0099 4.80546H3.70543V13.7141C3.70543 14.1349 4.04658 14.476 4.46741 14.476H11.248C11.6688 14.476 12.0099 14.1349 12.0099 13.7141V4.80546Z" fill="black"/>
</svg>
