<svg fill="none" height="16" viewBox="0 0 16 16" width="16" xmlns="http://www.w3.org/2000/svg" xmlns:xlink="http://www.w3.org/1999/xlink"><mask id="a" fill="#000" height="8" maskUnits="userSpaceOnUse" width="6" x="7" y="2.96729"><path d="m7 2.96729h6v8h-6z" fill="#fff"/><path clip-rule="evenodd" d="m11.3959 10.1394c.6506-1.01379.8383-2.30843.3968-3.52861-.593-1.6387-2.1441-2.65426-3.7927-2.64342v3.80591z" fill="#000" fill-rule="evenodd"/></mask><circle cx="8" cy="8" r="6.25" stroke="#000" stroke-width="1.5"/><circle cx="8.00227" cy="7.99793" r="4" stroke="#000" stroke-dasharray=".05 2" stroke-linecap="round" stroke-linejoin="round" transform="matrix(.99978068 .02094242 -.02094242 .99978068 .169251 -.165833)"/><g fill="#000"><path clip-rule="evenodd" d="m11.3959 10.1394c.6506-1.01379.8383-2.30843.3968-3.52861-.593-1.6387-2.1441-2.65426-3.7927-2.64342v3.80591z" fill-rule="evenodd"/><path d="m11.3959 10.1394-.2858.4102.4261.297.2805-.4372zm.3968-3.52861.4701-.17014zm-3.7927-2.64342-.00329-.49999-.49671.00327v.49672zm0 3.80591h-.5v.26102l.21416.14922zm3.8167 2.63612c.731-1.13915.9429-2.59596.4461-3.96875l-.9403.34027c.3863 1.06759.2227 2.20004-.3474 3.08844zm.4461-3.96875c-.6672-1.844-2.4124-2.98546-4.26609-2.97327l.00658.99998c1.44352-.00949 2.80051.88016 3.31921 2.31356zm-4.7628-2.47328v3.80591h1v-3.80591zm.21416 4.21615 3.39594 2.36608.5716-.82044-3.39586-2.36612z" mask="url(#a)"/></g></svg>