<svg fill="none" height="16" viewBox="0 0 16 16" width="16" xmlns="http://www.w3.org/2000/svg"><g fill="#000"><path d="m15 7c0 .55228-.4477 1-1 1h-4.99894l-.01651-.00012c-.12137-.00184-.2375-.02531-.3447-.06671-.12645-.04872-.24499-.12408-.34698-.22607-.16614-.16615-.2616-.37622-.28637-.59283-.00474-.04139-.00689-.08302-.00646-.12463v-4.98964c0-.55229.44771-1 1-1 .55228 0 .99996.44771.99996 1v2.58577l3.293-3.29288c.3905-.390524 1.0237-.390517 1.4142.00001.3905.39053.3905 1.0237 0 1.41422l-3.293 3.29288h2.5858c.5523 0 1 .44772 1 1z"/><path d="m7.00012 8h-4.99963c-.55229 0-1 .44772-1 1 0 .55229.44771 1 1 1h2.58537l-3.29296 3.2929c-.390527.3905-.390535 1.0237-.00001 1.4142.39051.3905 1.02368.3905 1.41421 0l3.29335-3.2933v2.5862c0 .5523.44771 1 1 1 .55228 0 1-.4477 1-1v-5c0-.55228-.44805-1-1.00033-1z"/></g></svg>