<?xml version="1.0" encoding="utf-8"?>
<!-- Generator: Adobe Illustrator 26.0.3, SVG Export Plug-In . SVG Version: 6.00 Build 0)  -->
<svg version="1.1" id="Layer_1" xmlns="http://www.w3.org/2000/svg" xmlns:xlink="http://www.w3.org/1999/xlink" x="0px" y="0px"
	 viewBox="0 0 256 256" style="enable-background:new 0 0 256 256;" xml:space="preserve">
<path d="M67.2,213.4c-13.6,0-24.6-11-24.6-24.6s11-24.6,24.6-24.6c5.2,0,10.1,1.7,14.4,4.8l0.7,0.5l18.3-18.3l-0.5-0.7
	c-4.2-5.5-6.4-12-6.4-18.7c0-16.8,13.6-30.4,30.4-30.4c0.9,0,1.6,0,2.5,0.1l0.9,0.1l5.1-23.4l-0.7-0.3c-6.5-3-10.6-9.6-10.6-16.8
	c0-10.3,8.3-18.6,18.6-18.6c10.2,0,18.6,8.4,18.7,18.8c0,10.2-8.3,18.6-18.6,18.6c0,0-0.1,0-0.2,0c-0.2,0-0.4-0.1-0.5-0.1h-0.8
	l-5,23.2l0.8,0.3c12.2,4.3,20.3,15.8,20.3,28.7c0,0.8-0.1,1.5-0.2,2.3l-0.1,1.1l23.4,5.1l0.3-0.7c3-6.5,9.6-10.6,16.8-10.6
	c10.3,0,18.6,8.3,18.6,18.6s-8.3,18.6-18.6,18.6c-10.3,0-18.6-8.3-18.6-18.6c0-0.1,0-0.1,0-0.2c0-0.2,0.1-0.4,0.1-0.6V146l-23.2-5
	l-0.3,0.8c-4.3,12.2-15.8,20.4-28.7,20.4c-6.9,0-13.4-2.2-18.7-6.4l-0.7-0.6l-18.3,18.3l0.5,0.7c3.1,4.3,4.8,9.2,4.8,14.4
	C91.8,202.4,80.8,213.4,67.2,213.4z M67.2,170.2c-10.4,0-18.6,8.2-18.6,18.6c0,10.4,8.2,18.6,18.6,18.6s18.6-8.2,18.6-18.6
	C85.8,178.3,77.6,170.2,67.2,170.2z M194.8,134.7c-7.2,0-12.8,5.6-12.8,12.8s5.6,12.8,12.8,12.8s12.8-5.6,12.8-12.8
	S202,134.7,194.8,134.7z M124.1,107.2c-13.6,0-24.6,11-24.6,24.6c0,13.6,11,24.6,24.6,24.6s24.6-11,24.6-24.6
	C148.7,118.3,137.7,107.2,124.1,107.2z M139.8,48.4c-7.1,0-12.8,5.7-12.8,12.8c0,7.2,5.6,12.8,12.8,12.8s12.8-5.6,12.8-12.8
	C152.6,54.1,147,48.4,139.8,48.4z"/>
</svg>
