<?xml version="1.0" encoding="utf-8"?>
<!-- Generator: Adobe Illustrator 26.0.3, SVG Export Plug-In . SVG Version: 6.00 Build 0)  -->
<svg version="1.1" id="Layer_1" xmlns="http://www.w3.org/2000/svg" xmlns:xlink="http://www.w3.org/1999/xlink" x="0px" y="0px"
	 viewBox="0 0 905.5 385.7" style="enable-background:new 0 0 905.5 385.7;" xml:space="preserve">
<style type="text/css">
	.st0{fill:#4A4A4A;}
	.st1{fill-rule:evenodd;clip-rule:evenodd;fill-opacity:0;}
	.st2{fill:#999999;}
	.st3{fill:none;stroke:#2C84FA;stroke-linejoin:round;stroke-miterlimit:10;stroke-dasharray:4,3;}
	.st4{fill:#6D9EEB;}
	.st5{fill:none;stroke:#CCCCCC;stroke-linejoin:round;stroke-miterlimit:10;}
	.st6{fill:#2C84FA;}
	.st7{fill:none;stroke:#B7B7B7;stroke-linejoin:round;stroke-miterlimit:10;}
	.st8{fill:none;stroke:#2C84FA;stroke-linejoin:round;stroke-miterlimit:10;}
	.st9{fill:none;stroke:#666666;stroke-linejoin:round;stroke-miterlimit:10;}
	.st10{fill-rule:evenodd;clip-rule:evenodd;fill:#666666;stroke:#666666;stroke-miterlimit:10;}
	.st11{fill:none;stroke:#B7B7B7;stroke-linejoin:round;stroke-miterlimit:10;stroke-dasharray:4,3;}
</style>
<path class="st0" d="M221.8,69.1v5.2h-1.7V61h4.9c1.4,0,2.6,0.4,3.4,1.1c0.8,0.7,1.2,1.7,1.2,3c0,1.3-0.4,2.3-1.2,3
	c-0.8,0.7-2,1-3.5,1H221.8z M221.8,67.6h3.2c0.9,0,1.6-0.2,2.1-0.7s0.8-1.1,0.8-1.9c0-0.8-0.2-1.4-0.8-1.9c-0.5-0.5-1.2-0.7-2-0.8
	h-3.2V67.6z M236.3,65.9c-0.3,0-0.5-0.1-0.8-0.1c-1.1,0-1.9,0.5-2.2,1.4v7h-1.7v-9.9h1.6l0,1.1c0.6-0.9,1.3-1.3,2.4-1.3
	c0.3,0,0.6,0,0.8,0.1V65.9z M239.7,74.2H238v-9.9h1.7V74.2z M237.9,61.8c0-0.3,0.1-0.5,0.2-0.7c0.2-0.2,0.4-0.3,0.7-0.3
	c0.3,0,0.6,0.1,0.8,0.3c0.2,0.2,0.3,0.4,0.3,0.7c0,0.3-0.1,0.5-0.3,0.7c-0.2,0.2-0.4,0.3-0.8,0.3c-0.3,0-0.6-0.1-0.7-0.3
	C238,62.3,237.9,62,237.9,61.8z M244,64.4l0,1.1c0.7-0.8,1.7-1.3,2.9-1.3c1.4,0,2.3,0.5,2.8,1.6c0.3-0.5,0.8-0.9,1.3-1.1
	c0.5-0.3,1.2-0.4,1.9-0.4c2.2,0,3.3,1.1,3.3,3.4v6.6h-1.7v-6.5c0-0.7-0.2-1.2-0.5-1.6c-0.3-0.4-0.9-0.5-1.6-0.5
	c-0.6,0-1.1,0.2-1.6,0.6c-0.4,0.4-0.6,0.9-0.7,1.5v6.5h-1.7v-6.5c0-1.4-0.7-2.2-2.1-2.2c-1.1,0-1.9,0.5-2.3,1.4v7.2h-1.7v-9.9H244z
	 M260.6,74.2h-1.7v-9.9h1.7V74.2z M258.8,61.8c0-0.3,0.1-0.5,0.2-0.7c0.2-0.2,0.4-0.3,0.7-0.3c0.3,0,0.6,0.1,0.8,0.3
	c0.2,0.2,0.3,0.4,0.3,0.7c0,0.3-0.1,0.5-0.3,0.7c-0.2,0.2-0.4,0.3-0.8,0.3c-0.3,0-0.6-0.1-0.7-0.3C258.8,62.3,258.8,62,258.8,61.8z
	 M265.6,62v2.4h1.8v1.3h-1.8v6.1c0,0.4,0.1,0.7,0.2,0.9c0.2,0.2,0.4,0.3,0.8,0.3c0.2,0,0.5,0,0.8-0.1v1.4c-0.4,0.1-0.9,0.2-1.3,0.2
	c-0.8,0-1.3-0.2-1.7-0.7c-0.4-0.5-0.6-1.1-0.6-1.9v-6.1h-1.8v-1.3h1.8V62H265.6z M271.2,74.2h-1.7v-9.9h1.7V74.2z M269.4,61.8
	c0-0.3,0.1-0.5,0.2-0.7c0.2-0.2,0.4-0.3,0.7-0.3c0.3,0,0.6,0.1,0.8,0.3c0.2,0.2,0.3,0.4,0.3,0.7c0,0.3-0.1,0.5-0.3,0.7
	c-0.2,0.2-0.4,0.3-0.8,0.3c-0.3,0-0.6-0.1-0.7-0.3C269.5,62.3,269.4,62,269.4,61.8z M277.2,72l2.4-7.6h1.7l-3.5,9.9h-1.3l-3.6-9.9
	h1.7L277.2,72z M286.9,74.4c-1.3,0-2.4-0.4-3.3-1.3c-0.8-0.9-1.2-2.1-1.2-3.5v-0.3c0-1,0.2-1.8,0.6-2.6c0.4-0.8,0.9-1.4,1.6-1.8
	c0.7-0.4,1.4-0.7,2.2-0.7c1.3,0,2.3,0.4,3,1.3c0.7,0.8,1.1,2.1,1.1,3.6v0.7h-6.7c0,1,0.3,1.8,0.8,2.4c0.6,0.6,1.2,0.9,2.1,0.9
	c0.6,0,1.1-0.1,1.5-0.4c0.4-0.2,0.8-0.6,1.1-1l1,0.8C289.8,73.8,288.6,74.4,286.9,74.4z M286.7,65.6c-0.7,0-1.2,0.2-1.7,0.8
	c-0.5,0.5-0.7,1.2-0.8,2.1h4.9v-0.1c-0.1-0.9-0.3-1.5-0.7-2C288,65.8,287.4,65.6,286.7,65.6z M298.5,71.6c0-0.5-0.2-0.8-0.5-1.1
	c-0.3-0.2-0.9-0.5-1.8-0.6c-0.9-0.2-1.5-0.4-2-0.7c-0.5-0.3-0.9-0.6-1.1-0.9c-0.2-0.4-0.4-0.8-0.4-1.3c0-0.8,0.3-1.5,1-2
	c0.7-0.6,1.6-0.8,2.6-0.8c1.1,0,2,0.3,2.7,0.9c0.7,0.6,1,1.3,1,2.2h-1.7c0-0.5-0.2-0.9-0.6-1.2c-0.4-0.3-0.9-0.5-1.5-0.5
	c-0.6,0-1.1,0.1-1.4,0.4c-0.3,0.3-0.5,0.6-0.5,1c0,0.4,0.2,0.7,0.5,0.9c0.3,0.2,0.9,0.4,1.7,0.6c0.8,0.2,1.5,0.4,2,0.7
	c0.5,0.3,0.9,0.6,1.2,0.9c0.3,0.4,0.4,0.8,0.4,1.3c0,0.9-0.4,1.6-1.1,2.1c-0.7,0.5-1.6,0.8-2.7,0.8c-0.8,0-1.5-0.1-2.1-0.4
	c-0.6-0.3-1.1-0.7-1.4-1.2c-0.3-0.5-0.5-1-0.5-1.6h1.7c0,0.6,0.3,1,0.7,1.3c0.4,0.3,1,0.5,1.7,0.5c0.6,0,1.1-0.1,1.5-0.4
	C298.3,72.4,298.5,72.1,298.5,71.6z"/>
<path class="st1" d="M246.8,220.7h61.6v29.1h-61.6V220.7z"/>
<path class="st2" d="M250.4,242.5h8.4v1.2H249v-17.1h1.5V242.5z M269.3,243.8c-0.1-0.4-0.2-1-0.3-1.8c-0.5,0.6-1.1,1.1-1.9,1.5
	c-0.8,0.3-1.6,0.5-2.4,0.5c-1.2,0-2.2-0.3-3-1c-0.8-0.7-1.1-1.5-1.1-2.6c0-1.2,0.5-2.2,1.5-2.9c1-0.7,2.5-1.1,4.3-1.1h2.5v-1.4
	c0-0.9-0.3-1.6-0.8-2.1c-0.6-0.5-1.4-0.8-2.4-0.8c-1,0-1.8,0.2-2.4,0.8c-0.6,0.5-1,1.1-1,1.8l-1.4,0c0-1,0.5-1.9,1.4-2.6
	s2.1-1.1,3.5-1.1c1.4,0,2.5,0.4,3.3,1.1s1.2,1.7,1.3,3v6c0,1.2,0.1,2.1,0.4,2.8v0.1H269.3z M264.9,242.7c0.9,0,1.8-0.2,2.5-0.7
	c0.7-0.5,1.3-1.1,1.6-1.8v-2.8h-2.5c-1.4,0-2.5,0.3-3.3,0.8c-0.8,0.5-1.2,1.2-1.2,2c0,0.7,0.3,1.3,0.8,1.8
	C263.3,242.5,264,242.7,264.9,242.7z M284.3,237.5c0,2-0.4,3.6-1.3,4.7c-0.9,1.2-2,1.7-3.5,1.7c-1.8,0-3.1-0.7-4-2l-0.1,1.7h-1.3
	v-18h1.4v7.2c0.9-1.4,2.2-2.1,4-2.1c1.5,0,2.7,0.6,3.5,1.7c0.9,1.1,1.3,2.7,1.3,4.8V237.5z M282.9,237.3c0-1.7-0.3-3-1-3.9
	c-0.6-0.9-1.6-1.4-2.7-1.4c-0.9,0-1.7,0.2-2.3,0.7c-0.6,0.4-1.1,1.1-1.4,1.9v5.7c0.7,1.6,1.9,2.4,3.7,2.4c1.2,0,2.1-0.5,2.7-1.4
	C282.6,240.5,282.9,239.1,282.9,237.3z M292.3,244c-1.1,0-2-0.3-2.9-0.8c-0.9-0.5-1.5-1.3-2-2.2c-0.5-0.9-0.7-2-0.7-3.2v-0.5
	c0-1.2,0.2-2.3,0.7-3.3c0.5-1,1.1-1.8,2-2.3s1.8-0.8,2.8-0.8c1.5,0,2.8,0.5,3.7,1.6c0.9,1.1,1.4,2.5,1.4,4.3v0.8h-9v0.3
	c0,1.4,0.4,2.6,1.2,3.6c0.8,1,1.9,1.4,3.1,1.4c0.8,0,1.4-0.1,2-0.4c0.6-0.3,1.1-0.7,1.6-1.3l0.9,0.7
	C295.8,243.2,294.3,244,292.3,244z M292.1,232c-1.1,0-1.9,0.4-2.7,1.2c-0.7,0.8-1.2,1.8-1.3,3.1h7.6v-0.2c0-1.2-0.4-2.2-1-3
	C294,232.4,293.2,232,292.1,232z M301.4,243.8H300v-18h1.4V243.8z"/>
<path class="st1" d="M211.2,222.2h61.6"/>
<path class="st3" d="M211.2,222.2h61.6"/>
<path class="st1" d="M211.2,255.4h61.6"/>
<path class="st3" d="M211.2,255.4h61.6"/>
<path class="st2" d="M238.7,106.7h-3v8.5h-1.2v-8.5h-3v-1h7.3V106.7z M242.2,115.3c-0.9,0-1.7-0.3-2.3-0.9c-0.6-0.6-0.9-1.5-0.9-2.5
	v-0.2c0-0.7,0.1-1.3,0.4-1.9c0.3-0.6,0.6-1,1.1-1.3c0.5-0.3,1-0.5,1.6-0.5c0.9,0,1.6,0.3,2.1,0.9c0.5,0.6,0.8,1.5,0.8,2.6v0.5h-4.8
	c0,0.7,0.2,1.2,0.6,1.7c0.4,0.4,0.9,0.6,1.5,0.6c0.4,0,0.8-0.1,1.1-0.2c0.3-0.2,0.6-0.4,0.8-0.7l0.7,0.6
	C244.3,114.8,243.4,115.3,242.2,115.3z M242,109c-0.5,0-0.9,0.2-1.2,0.5c-0.3,0.4-0.5,0.8-0.6,1.5h3.5v-0.1c0-0.6-0.2-1.1-0.5-1.4
	C242.9,109.2,242.5,109,242,109z M248.7,110.7l1.5-2.6h1.4l-2.3,3.5l2.4,3.6h-1.4l-1.6-2.6l-1.6,2.6h-1.4l2.4-3.6l-2.3-3.5h1.4
	L248.7,110.7z M254.6,106.4v1.7h1.3v0.9h-1.3v4.4c0,0.3,0.1,0.5,0.2,0.6s0.3,0.2,0.6,0.2c0.1,0,0.3,0,0.6-0.1v1
	c-0.3,0.1-0.6,0.1-0.9,0.1c-0.5,0-0.9-0.2-1.2-0.5s-0.4-0.8-0.4-1.4v-4.4h-1.3v-0.9h1.3v-1.7H254.6z M263.6,111
	c-1.1-0.3-1.9-0.7-2.3-1.1c-0.5-0.4-0.7-1-0.7-1.7c0-0.8,0.3-1.4,0.9-1.9c0.6-0.5,1.4-0.7,2.3-0.7c0.6,0,1.2,0.1,1.7,0.4
	c0.5,0.2,0.9,0.6,1.2,1c0.3,0.4,0.4,0.9,0.4,1.4h-1.3c0-0.6-0.2-1-0.5-1.3c-0.4-0.3-0.9-0.5-1.5-0.5c-0.6,0-1.1,0.1-1.5,0.4
	c-0.3,0.3-0.5,0.6-0.5,1.1c0,0.4,0.2,0.7,0.5,1c0.3,0.3,0.9,0.5,1.7,0.7c0.8,0.2,1.4,0.5,1.9,0.7c0.4,0.3,0.8,0.6,1,0.9
	c0.2,0.4,0.3,0.8,0.3,1.2c0,0.8-0.3,1.4-0.9,1.8c-0.6,0.5-1.4,0.7-2.4,0.7c-0.7,0-1.3-0.1-1.8-0.4s-1-0.6-1.3-1
	c-0.3-0.4-0.5-0.9-0.5-1.5h1.3c0,0.6,0.2,1,0.6,1.4c0.4,0.3,1,0.5,1.7,0.5c0.7,0,1.2-0.1,1.5-0.4c0.4-0.3,0.5-0.6,0.5-1.1
	c0-0.5-0.2-0.8-0.5-1.1C265,111.4,264.4,111.2,263.6,111z M270.1,106.4v1.7h1.3v0.9h-1.3v4.4c0,0.3,0.1,0.5,0.2,0.6s0.3,0.2,0.6,0.2
	c0.1,0,0.3,0,0.6-0.1v1c-0.3,0.1-0.6,0.1-0.9,0.1c-0.5,0-0.9-0.2-1.2-0.5s-0.4-0.8-0.4-1.4v-4.4h-1.3v-0.9h1.3v-1.7H270.1z
	 M275.2,113.4l1.6-5.3h1.3l-2.8,8.1c-0.4,1.2-1.1,1.8-2.1,1.8l-0.2,0l-0.5-0.1v-1l0.3,0c0.4,0,0.7-0.1,1-0.2s0.4-0.5,0.6-0.9
	l0.3-0.7l-2.5-7h1.3L275.2,113.4z M280.5,115.2h-1.2v-10h1.2V115.2z M285.3,115.3c-0.9,0-1.7-0.3-2.3-0.9c-0.6-0.6-0.9-1.5-0.9-2.5
	v-0.2c0-0.7,0.1-1.3,0.4-1.9c0.3-0.6,0.6-1,1.1-1.3c0.5-0.3,1-0.5,1.6-0.5c0.9,0,1.6,0.3,2.1,0.9c0.5,0.6,0.8,1.5,0.8,2.6v0.5h-4.8
	c0,0.7,0.2,1.2,0.6,1.7c0.4,0.4,0.9,0.6,1.5,0.6c0.4,0,0.8-0.1,1.1-0.2c0.3-0.2,0.6-0.4,0.8-0.7l0.7,0.6
	C287.4,114.8,286.5,115.3,285.3,115.3z M285.2,109c-0.5,0-0.9,0.2-1.2,0.5c-0.3,0.4-0.5,0.8-0.6,1.5h3.5v-0.1c0-0.6-0.2-1.1-0.5-1.4
	C286.1,109.2,285.7,109,285.2,109z"/>
<path class="st4" d="M232.6,132c0-0.7,0.1-1.3,0.3-2c0.2-0.6,0.5-1.2,0.8-1.7c0.4-0.5,0.7-0.9,1.1-1.1l0.2,0.6
	c-0.4,0.3-0.8,0.8-1.1,1.5s-0.4,1.5-0.5,2.3v0.4c0,1.2,0.2,2.2,0.6,3.1c0.3,0.5,0.6,0.9,0.9,1.2l-0.2,0.5c-0.4-0.2-0.8-0.6-1.2-1.1
	C232.9,134.7,232.6,133.5,232.6,132z M239.1,134h3.1v0.7h-4v-6.6h0.9V134z M244,134.7h-0.8v-4.9h0.8V134.7z M243.1,128.5
	c0-0.1,0-0.2,0.1-0.3c0.1-0.1,0.2-0.1,0.4-0.1c0.2,0,0.3,0,0.4,0.1c0.1,0.1,0.1,0.2,0.1,0.3s0,0.2-0.1,0.3c-0.1,0.1-0.2,0.1-0.4,0.1
	c-0.2,0-0.3,0-0.4-0.1C243.1,128.8,243.1,128.6,243.1,128.5z M246.2,129.8l0,0.6c0.4-0.5,0.9-0.7,1.5-0.7c1,0,1.6,0.6,1.6,1.8v3.2
	h-0.8v-3.3c0-0.4-0.1-0.6-0.2-0.8c-0.2-0.2-0.4-0.2-0.7-0.2c-0.3,0-0.5,0.1-0.7,0.2c-0.2,0.1-0.4,0.3-0.5,0.6v3.5h-0.8v-4.9H246.2z
	 M252.6,134.8c-0.7,0-1.2-0.2-1.6-0.7c-0.4-0.4-0.6-1-0.6-1.8v-0.2c0-0.5,0.1-0.9,0.3-1.3s0.4-0.7,0.8-0.9c0.3-0.2,0.7-0.3,1.1-0.3
	c0.6,0,1.1,0.2,1.5,0.6c0.4,0.4,0.5,1,0.5,1.8v0.4h-3.3c0,0.5,0.2,0.9,0.4,1.2c0.3,0.3,0.6,0.5,1,0.5c0.3,0,0.5-0.1,0.8-0.2
	c0.2-0.1,0.4-0.3,0.5-0.5l0.5,0.4C254,134.5,253.4,134.8,252.6,134.8z M252.4,130.4c-0.3,0-0.6,0.1-0.9,0.4c-0.2,0.2-0.4,0.6-0.4,1
	h2.5v-0.1c0-0.4-0.2-0.8-0.4-1C253.1,130.5,252.8,130.4,252.4,130.4z M263,134.7h-0.9v-3.1h-3.3v3.1h-0.9v-6.6h0.9v2.8h3.3v-2.8h0.9
	V134.7z M266.5,134.8c-0.7,0-1.2-0.2-1.6-0.7c-0.4-0.4-0.6-1-0.6-1.8v-0.2c0-0.5,0.1-0.9,0.3-1.3s0.4-0.7,0.8-0.9
	c0.3-0.2,0.7-0.3,1.1-0.3c0.6,0,1.1,0.2,1.5,0.6c0.4,0.4,0.5,1,0.5,1.8v0.4H265c0,0.5,0.2,0.9,0.4,1.2s0.6,0.5,1,0.5
	c0.3,0,0.5-0.1,0.8-0.2s0.4-0.3,0.5-0.5l0.5,0.4C267.9,134.5,267.3,134.8,266.5,134.8z M266.3,130.4c-0.3,0-0.6,0.1-0.9,0.4
	s-0.4,0.6-0.4,1h2.5v-0.1c0-0.4-0.2-0.8-0.4-1C267,130.5,266.7,130.4,266.3,130.4z M270.3,134.7h-0.8v-4.9h0.8V134.7z M269.4,128.5
	c0-0.1,0-0.2,0.1-0.3c0.1-0.1,0.2-0.1,0.4-0.1c0.2,0,0.3,0,0.4,0.1c0.1,0.1,0.1,0.2,0.1,0.3s0,0.2-0.1,0.3c-0.1,0.1-0.2,0.1-0.4,0.1
	c-0.2,0-0.3,0-0.4-0.1C269.4,128.8,269.4,128.6,269.4,128.5z M271.4,132.2c0-0.8,0.2-1.4,0.5-1.8c0.4-0.5,0.8-0.7,1.4-0.7
	c0.6,0,1.1,0.2,1.4,0.6l0-0.5h0.8v4.8c0,0.6-0.2,1.2-0.6,1.5s-0.9,0.5-1.5,0.5c-0.4,0-0.7-0.1-1-0.2c-0.3-0.1-0.6-0.3-0.8-0.6
	l0.4-0.5c0.4,0.4,0.8,0.7,1.3,0.7c0.4,0,0.7-0.1,1-0.3s0.3-0.6,0.3-1v-0.4c-0.3,0.4-0.8,0.6-1.4,0.6s-1.1-0.2-1.4-0.7
	C271.6,133.7,271.4,133,271.4,132.2z M272.3,132.3c0,0.6,0.1,1,0.3,1.3c0.2,0.3,0.5,0.5,1,0.5c0.5,0,0.9-0.2,1.2-0.7v-2.2
	c-0.3-0.5-0.6-0.7-1.2-0.7c-0.4,0-0.7,0.2-1,0.5C272.4,131.2,272.3,131.7,272.3,132.3z M277.7,130.4c0.4-0.5,0.9-0.7,1.5-0.7
	c1,0,1.6,0.6,1.6,1.8v3.2h-0.8v-3.3c0-0.4-0.1-0.6-0.2-0.8c-0.2-0.2-0.4-0.2-0.7-0.2c-0.3,0-0.5,0.1-0.7,0.2
	c-0.2,0.1-0.4,0.3-0.5,0.6v3.5h-0.8v-7h0.8V130.4z M283.1,128.6v1.2h0.9v0.6h-0.9v3.1c0,0.2,0,0.3,0.1,0.5c0.1,0.1,0.2,0.1,0.4,0.1
	c0.1,0,0.2,0,0.4-0.1v0.7c-0.2,0.1-0.4,0.1-0.6,0.1c-0.4,0-0.7-0.1-0.9-0.3c-0.2-0.2-0.3-0.6-0.3-1v-3.1h-0.9v-0.6h0.9v-1.2H283.1z
	 M287,132.1c0,0.7-0.1,1.3-0.3,2c-0.2,0.6-0.4,1.2-0.8,1.7c-0.4,0.5-0.8,0.9-1.2,1.1l-0.2-0.5c0.5-0.4,0.8-0.9,1.1-1.7
	c0.3-0.8,0.4-1.6,0.4-2.5V132c0-0.6-0.1-1.2-0.2-1.8c-0.1-0.6-0.3-1-0.6-1.5c-0.2-0.4-0.5-0.8-0.8-1l0.2-0.5
	c0.4,0.2,0.8,0.6,1.2,1.1c0.4,0.5,0.6,1.1,0.8,1.7C286.9,130.7,287,131.4,287,132.1z"/>
<path class="st0" d="M401,68.1h-5.8v4.7h6.7v1.4h-8.4V61h8.3v1.4h-6.6v4.3h5.8V68.1z M405.7,74.2H404v-14h1.7V74.2z M412.5,74.4
	c-1.3,0-2.4-0.4-3.3-1.3c-0.8-0.9-1.2-2.1-1.2-3.5v-0.3c0-1,0.2-1.8,0.6-2.6c0.4-0.8,0.9-1.4,1.6-1.8c0.7-0.4,1.4-0.7,2.2-0.7
	c1.3,0,2.3,0.4,3,1.3c0.7,0.8,1.1,2.1,1.1,3.6v0.7h-6.7c0,1,0.3,1.8,0.8,2.4c0.6,0.6,1.2,0.9,2.1,0.9c0.6,0,1.1-0.1,1.5-0.4
	c0.4-0.2,0.8-0.6,1.1-1l1,0.8C415.4,73.8,414.1,74.4,412.5,74.4z M412.3,65.6c-0.7,0-1.2,0.2-1.7,0.8c-0.5,0.5-0.7,1.2-0.8,2.1h4.9
	v-0.1c-0.1-0.9-0.3-1.5-0.7-2C413.5,65.8,413,65.6,412.3,65.6z M419.8,64.4l0,1.1c0.7-0.8,1.7-1.3,2.9-1.3c1.4,0,2.3,0.5,2.8,1.6
	c0.3-0.5,0.8-0.9,1.3-1.1c0.5-0.3,1.2-0.4,1.9-0.4c2.2,0,3.3,1.1,3.3,3.4v6.6h-1.7v-6.5c0-0.7-0.2-1.2-0.5-1.6
	c-0.3-0.4-0.9-0.5-1.6-0.5c-0.6,0-1.1,0.2-1.6,0.6c-0.4,0.4-0.6,0.9-0.7,1.5v6.5h-1.7v-6.5c0-1.4-0.7-2.2-2.1-2.2
	c-1.1,0-1.9,0.5-2.3,1.4v7.2h-1.7v-9.9H419.8z M438.7,74.4c-1.3,0-2.4-0.4-3.3-1.3c-0.8-0.9-1.2-2.1-1.2-3.5v-0.3
	c0-1,0.2-1.8,0.6-2.6c0.4-0.8,0.9-1.4,1.6-1.8c0.7-0.4,1.4-0.7,2.2-0.7c1.3,0,2.3,0.4,3,1.3c0.7,0.8,1.1,2.1,1.1,3.6v0.7h-6.7
	c0,1,0.3,1.8,0.8,2.4c0.6,0.6,1.2,0.9,2.1,0.9c0.6,0,1.1-0.1,1.5-0.4c0.4-0.2,0.8-0.6,1.1-1l1,0.8C441.6,73.8,440.3,74.4,438.7,74.4
	z M438.5,65.6c-0.7,0-1.2,0.2-1.7,0.8c-0.5,0.5-0.7,1.2-0.8,2.1h4.9v-0.1c-0.1-0.9-0.3-1.5-0.7-2C439.8,65.8,439.2,65.6,438.5,65.6z
	 M446.1,64.4l0,1.2c0.8-0.9,1.7-1.4,3-1.4c2.1,0,3.1,1.2,3.2,3.5v6.5h-1.7v-6.5c0-0.7-0.2-1.2-0.5-1.6c-0.3-0.3-0.8-0.5-1.5-0.5
	c-0.5,0-1,0.1-1.4,0.4c-0.4,0.3-0.7,0.7-1,1.2v7h-1.7v-9.9H446.1z M457.1,62v2.4h1.8v1.3h-1.8v6.1c0,0.4,0.1,0.7,0.2,0.9
	c0.2,0.2,0.4,0.3,0.8,0.3c0.2,0,0.5,0,0.8-0.1v1.4c-0.4,0.1-0.9,0.2-1.3,0.2c-0.8,0-1.3-0.2-1.7-0.7c-0.4-0.5-0.6-1.1-0.6-1.9v-6.1
	h-1.8v-1.3h1.8V62H457.1z M466.6,71.6c0-0.5-0.2-0.8-0.5-1.1s-0.9-0.5-1.8-0.6c-0.9-0.2-1.5-0.4-2-0.7c-0.5-0.3-0.9-0.6-1.1-0.9
	c-0.2-0.4-0.4-0.8-0.4-1.3c0-0.8,0.3-1.5,1-2c0.7-0.6,1.6-0.8,2.6-0.8c1.1,0,2,0.3,2.7,0.9c0.7,0.6,1,1.3,1,2.2h-1.7
	c0-0.5-0.2-0.9-0.6-1.2c-0.4-0.3-0.9-0.5-1.5-0.5c-0.6,0-1.1,0.1-1.4,0.4c-0.3,0.3-0.5,0.6-0.5,1c0,0.4,0.2,0.7,0.5,0.9
	c0.3,0.2,0.9,0.4,1.7,0.6c0.8,0.2,1.5,0.4,2,0.7c0.5,0.3,0.9,0.6,1.2,0.9c0.3,0.4,0.4,0.8,0.4,1.3c0,0.9-0.4,1.6-1.1,2.1
	c-0.7,0.5-1.6,0.8-2.7,0.8c-0.8,0-1.5-0.1-2.1-0.4c-0.6-0.3-1.1-0.7-1.4-1.2s-0.5-1-0.5-1.6h1.7c0,0.6,0.3,1,0.7,1.3
	c0.4,0.3,1,0.5,1.7,0.5c0.6,0,1.1-0.1,1.5-0.4C466.4,72.4,466.6,72.1,466.6,71.6z"/>
<path class="st1" d="M372.5,227.7L372.5,227.7c0-2.6,2.1-4.7,4.7-4.7h106.7c1.3,0,2.5,0.5,3.3,1.4c0.9,0.9,1.4,2.1,1.4,3.3v18.9
	c0,2.6-2.1,4.7-4.7,4.7H377.2c-2.6,0-4.7-2.1-4.7-4.7V227.7z"/>
<path class="st5" d="M372.5,227.7L372.5,227.7c0-2.6,2.1-4.7,4.7-4.7h106.7c1.3,0,2.5,0.5,3.3,1.4c0.9,0.9,1.4,2.1,1.4,3.3v18.9
	c0,2.6-2.1,4.7-4.7,4.7H377.2c-2.6,0-4.7-2.1-4.7-4.7V227.7z"/>
<path class="st6" d="M417,240.6h4.3v1.3h-5.9v-9.5h1.6V240.6z M426.6,241.9c-0.1-0.1-0.1-0.4-0.2-0.7c-0.5,0.5-1.1,0.8-1.8,0.8
	c-0.7,0-1.3-0.2-1.7-0.6c-0.4-0.4-0.7-0.9-0.7-1.5c0-0.8,0.3-1.3,0.8-1.7c0.6-0.4,1.4-0.6,2.4-0.6h1v-0.5c0-0.4-0.1-0.7-0.3-0.9
	c-0.2-0.2-0.5-0.3-0.9-0.3c-0.4,0-0.7,0.1-0.9,0.3c-0.2,0.2-0.3,0.4-0.3,0.7h-1.6c0-0.4,0.1-0.7,0.4-1.1c0.3-0.3,0.6-0.6,1-0.8
	c0.4-0.2,0.9-0.3,1.5-0.3c0.8,0,1.5,0.2,2,0.6c0.5,0.4,0.7,1,0.8,1.8v3.2c0,0.6,0.1,1.1,0.3,1.5v0.1H426.6z M424.8,240.8
	c0.3,0,0.6-0.1,0.9-0.2c0.3-0.2,0.5-0.4,0.6-0.6v-1.3h-0.8c-0.6,0-1,0.1-1.3,0.3c-0.3,0.2-0.4,0.5-0.4,0.9c0,0.3,0.1,0.6,0.3,0.7
	C424.2,240.7,424.5,240.8,424.8,240.8z M435.8,238.5c0,1.1-0.2,2-0.7,2.6c-0.5,0.6-1.1,1-2,1c-0.8,0-1.5-0.3-1.9-0.9l-0.1,0.8h-1.4
	v-10h1.6v3.6c0.5-0.5,1.1-0.8,1.8-0.8c0.9,0,1.5,0.3,2,1C435.5,236.4,435.8,237.2,435.8,238.5L435.8,238.5z M434.2,238.4
	c0-0.8-0.1-1.3-0.4-1.7c-0.3-0.4-0.7-0.6-1.2-0.6c-0.7,0-1.2,0.3-1.4,0.9v2.9c0.3,0.6,0.8,0.9,1.5,0.9c0.5,0,0.9-0.2,1.1-0.5
	c0.3-0.4,0.4-0.9,0.4-1.7V238.4z M440.2,242.1c-1,0-1.8-0.3-2.4-0.9c-0.6-0.6-0.9-1.5-0.9-2.5v-0.2c0-0.7,0.1-1.3,0.4-1.9
	c0.3-0.6,0.7-1,1.1-1.3c0.5-0.3,1-0.5,1.6-0.5c1,0,1.7,0.3,2.2,0.9c0.5,0.6,0.8,1.5,0.8,2.6v0.6h-4.6c0,0.6,0.2,1,0.6,1.4
	c0.3,0.3,0.8,0.5,1.3,0.5c0.7,0,1.3-0.3,1.8-0.9l0.9,0.8c-0.3,0.4-0.7,0.8-1.1,1C441.3,242,440.8,242.1,440.2,242.1z M440,236
	c-0.4,0-0.8,0.2-1,0.5c-0.3,0.3-0.4,0.7-0.5,1.3h3v-0.1c0-0.5-0.2-0.9-0.4-1.2C440.8,236.2,440.4,236,440,236z M445.9,241.9h-1.6
	v-10h1.6V241.9z"/>
<path class="st2" d="M412.1,115.2v-9.5h3.1c1,0,1.8,0.2,2.3,0.6c0.5,0.4,0.8,1,0.8,1.9c0,0.4-0.1,0.8-0.4,1.2
	c-0.2,0.3-0.6,0.6-1,0.8c0.5,0.1,0.9,0.4,1.2,0.8c0.3,0.4,0.5,0.9,0.5,1.4c0,0.9-0.3,1.5-0.8,2c-0.6,0.5-1.3,0.7-2.3,0.7H412.1z
	 M413.3,110.7v3.4h2.1c0.6,0,1-0.2,1.4-0.5c0.3-0.3,0.5-0.7,0.5-1.2c0-1.1-0.6-1.7-1.9-1.7H413.3z M413.3,109.7h1.9
	c0.6,0,1-0.1,1.3-0.4c0.3-0.3,0.5-0.6,0.5-1.1c0-0.5-0.2-0.9-0.5-1.1c-0.3-0.2-0.8-0.4-1.4-0.4h-1.9V109.7z M424.6,114.5
	c-0.5,0.6-1.2,0.8-2.1,0.8c-0.8,0-1.3-0.2-1.7-0.6c-0.4-0.4-0.6-1.1-0.6-1.9v-4.6h1.2v4.5c0,1.1,0.4,1.6,1.3,1.6
	c0.9,0,1.5-0.3,1.8-1v-5.1h1.2v7h-1.2L424.6,114.5z M429.2,106.4v1.7h1.3v0.9h-1.3v4.4c0,0.3,0.1,0.5,0.2,0.6
	c0.1,0.1,0.3,0.2,0.6,0.2c0.1,0,0.3,0,0.6-0.1v1c-0.3,0.1-0.6,0.1-0.9,0.1c-0.5,0-0.9-0.2-1.2-0.5c-0.3-0.3-0.4-0.8-0.4-1.4v-4.4
	h-1.3v-0.9h1.3v-1.7H429.2z M433.6,106.4v1.7h1.3v0.9h-1.3v4.4c0,0.3,0.1,0.5,0.2,0.6c0.1,0.1,0.3,0.2,0.6,0.2c0.1,0,0.3,0,0.6-0.1
	v1c-0.3,0.1-0.6,0.1-0.9,0.1c-0.5,0-0.9-0.2-1.2-0.5c-0.3-0.3-0.4-0.8-0.4-1.4v-4.4h-1.3v-0.9h1.3v-1.7H433.6z M435.8,111.6
	c0-0.7,0.1-1.3,0.4-1.9c0.3-0.6,0.6-1,1.1-1.3c0.5-0.3,1-0.5,1.7-0.5c1,0,1.7,0.3,2.3,1c0.6,0.7,0.9,1.5,0.9,2.6v0.1
	c0,0.7-0.1,1.3-0.4,1.8c-0.3,0.5-0.6,1-1.1,1.3c-0.5,0.3-1.1,0.5-1.7,0.5c-0.9,0-1.7-0.3-2.3-1C436.1,113.7,435.8,112.8,435.8,111.6
	L435.8,111.6z M437,111.7c0,0.8,0.2,1.4,0.5,1.9c0.4,0.5,0.8,0.7,1.5,0.7c0.6,0,1.1-0.2,1.5-0.7c0.4-0.5,0.5-1.1,0.5-2
	c0-0.8-0.2-1.4-0.5-1.9c-0.4-0.5-0.9-0.7-1.5-0.7c-0.6,0-1.1,0.2-1.4,0.7C437.2,110.2,437,110.9,437,111.7z M444.9,108.1l0,0.9
	c0.5-0.7,1.2-1,2.1-1c1.5,0,2.2,0.8,2.2,2.5v4.7h-1.2v-4.7c0-0.5-0.1-0.9-0.4-1.1c-0.2-0.2-0.6-0.4-1.1-0.4c-0.4,0-0.7,0.1-1,0.3
	c-0.3,0.2-0.5,0.5-0.7,0.8v5h-1.2v-7H444.9z"/>
<path class="st4" d="M400.7,129.6c0-0.7,0.1-1.3,0.3-2c0.2-0.6,0.5-1.2,0.8-1.7c0.4-0.5,0.7-0.9,1.1-1.1l0.2,0.6
	c-0.4,0.3-0.8,0.8-1.1,1.5c-0.3,0.7-0.4,1.5-0.5,2.3v0.4c0,1.2,0.2,2.2,0.6,3.1c0.3,0.5,0.6,0.9,0.9,1.2l-0.2,0.5
	c-0.4-0.2-0.8-0.6-1.2-1.1C401.1,132.3,400.7,131.1,400.7,129.6z M406.4,132.3v-6.6h2.2c0.7,0,1.3,0.2,1.6,0.5
	c0.4,0.3,0.5,0.7,0.5,1.3c0,0.3-0.1,0.6-0.3,0.8c-0.2,0.2-0.4,0.4-0.7,0.6c0.4,0.1,0.6,0.3,0.8,0.6c0.2,0.3,0.3,0.6,0.3,1
	c0,0.6-0.2,1.1-0.6,1.4c-0.4,0.3-0.9,0.5-1.6,0.5H406.4z M407.2,129.2v2.4h1.5c0.4,0,0.7-0.1,1-0.3c0.2-0.2,0.4-0.5,0.4-0.9
	c0-0.8-0.4-1.2-1.3-1.2H407.2z M407.2,128.5h1.3c0.4,0,0.7-0.1,0.9-0.3c0.2-0.2,0.4-0.5,0.4-0.8c0-0.4-0.1-0.6-0.3-0.8
	c-0.2-0.2-0.5-0.2-1-0.2h-1.3V128.5z M415.1,131.9c-0.3,0.4-0.8,0.6-1.5,0.6c-0.5,0-0.9-0.2-1.2-0.5c-0.3-0.3-0.4-0.8-0.4-1.4v-3.2
	h0.8v3.2c0,0.8,0.3,1.1,0.9,1.1c0.6,0,1.1-0.2,1.3-0.7v-3.6h0.8v4.9h-0.8L415.1,131.9z M418.3,126.2v1.2h0.9v0.6h-0.9v3.1
	c0,0.2,0,0.3,0.1,0.5c0.1,0.1,0.2,0.1,0.4,0.1c0.1,0,0.2,0,0.4-0.1v0.7c-0.2,0.1-0.4,0.1-0.6,0.1c-0.4,0-0.7-0.1-0.9-0.3
	c-0.2-0.2-0.3-0.6-0.3-1v-3.1h-0.9v-0.6h0.9v-1.2H418.3z M421.4,126.2v1.2h0.9v0.6h-0.9v3.1c0,0.2,0,0.3,0.1,0.5
	c0.1,0.1,0.2,0.1,0.4,0.1c0.1,0,0.2,0,0.4-0.1v0.7c-0.2,0.1-0.4,0.1-0.6,0.1c-0.4,0-0.7-0.1-0.9-0.3c-0.2-0.2-0.3-0.6-0.3-1v-3.1
	h-0.9v-0.6h0.9v-1.2H421.4z M423,129.8c0-0.5,0.1-0.9,0.3-1.3c0.2-0.4,0.4-0.7,0.8-0.9c0.3-0.2,0.7-0.3,1.2-0.3
	c0.7,0,1.2,0.2,1.6,0.7c0.4,0.5,0.6,1.1,0.6,1.8v0.1c0,0.5-0.1,0.9-0.3,1.3c-0.2,0.4-0.5,0.7-0.8,0.9c-0.3,0.2-0.7,0.3-1.2,0.3
	c-0.7,0-1.2-0.2-1.6-0.7C423.2,131.3,423,130.7,423,129.8L423,129.8z M423.8,129.9c0,0.5,0.1,1,0.4,1.3c0.3,0.3,0.6,0.5,1,0.5
	c0.4,0,0.8-0.2,1-0.5c0.3-0.3,0.4-0.8,0.4-1.4c0-0.5-0.1-1-0.4-1.3c-0.3-0.3-0.6-0.5-1-0.5c-0.4,0-0.8,0.2-1,0.5
	C423.9,128.8,423.8,129.3,423.8,129.9z M429.3,127.4l0,0.6c0.4-0.5,0.9-0.7,1.5-0.7c1,0,1.6,0.6,1.6,1.8v3.2h-0.8v-3.3
	c0-0.4-0.1-0.6-0.2-0.8c-0.2-0.2-0.4-0.2-0.7-0.2c-0.3,0-0.5,0.1-0.7,0.2c-0.2,0.1-0.4,0.3-0.5,0.6v3.5h-0.8v-4.9H429.3z M437,131.6
	h3.1v0.7h-4v-6.6h0.9V131.6z M444,132.3c-0.1-0.1-0.1-0.3-0.1-0.5c-0.4,0.4-0.9,0.6-1.4,0.6c-0.5,0-0.9-0.1-1.2-0.4
	c-0.3-0.3-0.5-0.6-0.5-1c0-0.5,0.2-0.9,0.6-1.2c0.4-0.3,0.9-0.4,1.7-0.4h0.8V129c0-0.3-0.1-0.5-0.3-0.7c-0.2-0.2-0.4-0.3-0.8-0.3
	c-0.3,0-0.6,0.1-0.8,0.2c-0.2,0.1-0.3,0.3-0.3,0.5h-0.8c0-0.2,0.1-0.5,0.3-0.7c0.2-0.2,0.4-0.4,0.7-0.5c0.3-0.1,0.6-0.2,1-0.2
	c0.6,0,1,0.1,1.3,0.4c0.3,0.3,0.5,0.7,0.5,1.2v2.3c0,0.5,0.1,0.8,0.2,1.1v0.1H444z M442.6,131.7c0.3,0,0.5-0.1,0.8-0.2
	c0.2-0.1,0.4-0.3,0.5-0.5v-1h-0.7c-1,0-1.5,0.3-1.5,0.9c0,0.3,0.1,0.5,0.3,0.6C442.1,131.6,442.3,131.7,442.6,131.7z M450.2,129.9
	c0,0.8-0.2,1.4-0.5,1.8c-0.3,0.5-0.8,0.7-1.4,0.7c-0.6,0-1.1-0.2-1.4-0.7l0,0.6h-0.8v-7h0.8v2.6c0.3-0.4,0.8-0.6,1.4-0.6
	c0.6,0,1.1,0.2,1.4,0.7C450.1,128.5,450.2,129.1,450.2,129.9L450.2,129.9z M449.4,129.8c0-0.6-0.1-1-0.3-1.3c-0.2-0.3-0.5-0.5-1-0.5
	c-0.6,0-0.9,0.3-1.2,0.8v2.1c0.3,0.5,0.7,0.8,1.2,0.8c0.4,0,0.7-0.2,0.9-0.5C449.3,130.9,449.4,130.5,449.4,129.8z M453.3,132.4
	c-0.7,0-1.2-0.2-1.6-0.7c-0.4-0.4-0.6-1-0.6-1.8v-0.2c0-0.5,0.1-0.9,0.3-1.3c0.2-0.4,0.4-0.7,0.8-0.9c0.3-0.2,0.7-0.3,1.1-0.3
	c0.6,0,1.1,0.2,1.5,0.6c0.4,0.4,0.5,1,0.5,1.8v0.4h-3.3c0,0.5,0.2,0.9,0.4,1.2c0.3,0.3,0.6,0.5,1,0.5c0.3,0,0.5-0.1,0.8-0.2
	c0.2-0.1,0.4-0.3,0.5-0.5l0.5,0.4C454.8,132.1,454.2,132.4,453.3,132.4z M453.2,128c-0.3,0-0.6,0.1-0.9,0.4c-0.2,0.3-0.4,0.6-0.4,1
	h2.5v-0.1c0-0.4-0.2-0.8-0.4-1C453.9,128.1,453.6,128,453.2,128z M457.1,132.3h-0.8v-7h0.8V132.3z M460.4,129.7c0,0.7-0.1,1.3-0.3,2
	c-0.2,0.6-0.4,1.2-0.8,1.7c-0.4,0.5-0.8,0.9-1.2,1.1L458,134c0.5-0.4,0.8-0.9,1.1-1.7c0.3-0.8,0.4-1.6,0.4-2.5v-0.1
	c0-0.6-0.1-1.2-0.2-1.8c-0.1-0.6-0.3-1-0.6-1.5c-0.2-0.4-0.5-0.8-0.8-1l0.2-0.5c0.4,0.2,0.8,0.6,1.2,1.1c0.4,0.5,0.6,1.1,0.8,1.7
	C460.3,128.3,460.4,129,460.4,129.7z"/>
<path class="st0" d="M569.6,69.1v5.2h-1.7V61h4.9c1.4,0,2.6,0.4,3.4,1.1c0.8,0.7,1.2,1.7,1.2,3c0,1.3-0.4,2.3-1.2,3
	c-0.8,0.7-2,1-3.5,1H569.6z M569.6,67.6h3.2c0.9,0,1.6-0.2,2.1-0.7s0.8-1.1,0.8-1.9c0-0.8-0.2-1.4-0.8-1.9c-0.5-0.5-1.2-0.7-2-0.8
	h-3.2V67.6z M585.4,74.2c-0.1-0.2-0.2-0.5-0.2-1c-0.8,0.8-1.7,1.2-2.8,1.2c-1,0-1.8-0.3-2.4-0.8c-0.6-0.6-0.9-1.2-0.9-2.1
	c0-1,0.4-1.8,1.2-2.4c0.8-0.6,1.9-0.9,3.3-0.9h1.6v-0.8c0-0.6-0.2-1.1-0.5-1.4c-0.3-0.4-0.9-0.5-1.5-0.5c-0.6,0-1.1,0.2-1.5,0.5
	c-0.4,0.3-0.6,0.7-0.6,1.1h-1.7c0-0.5,0.2-1,0.5-1.4c0.4-0.5,0.8-0.8,1.4-1.1c0.6-0.3,1.3-0.4,2-0.4c1.1,0,2,0.3,2.7,0.9
	c0.6,0.6,1,1.3,1,2.3v4.5c0,0.9,0.1,1.6,0.3,2.2v0.1H585.4z M582.6,73c0.5,0,1-0.1,1.5-0.4c0.5-0.3,0.8-0.6,1-1.1v-2h-1.3
	c-2.1,0-3.1,0.6-3.1,1.8c0,0.5,0.2,0.9,0.5,1.2C581.6,72.8,582,73,582.6,73z M591.7,62v2.4h1.8v1.3h-1.8v6.1c0,0.4,0.1,0.7,0.2,0.9
	c0.2,0.2,0.4,0.3,0.8,0.3c0.2,0,0.5,0,0.8-0.1v1.4c-0.4,0.1-0.9,0.2-1.3,0.2c-0.8,0-1.3-0.2-1.7-0.7c-0.4-0.5-0.6-1.1-0.6-1.9v-6.1
	h-1.8v-1.3h1.8V62H591.7z M597.8,62v2.4h1.8v1.3h-1.8v6.1c0,0.4,0.1,0.7,0.2,0.9c0.2,0.2,0.4,0.3,0.8,0.3c0.2,0,0.5,0,0.8-0.1v1.4
	c-0.4,0.1-0.9,0.2-1.3,0.2c-0.8,0-1.3-0.2-1.7-0.7c-0.4-0.5-0.6-1.1-0.6-1.9v-6.1h-1.8v-1.3h1.8V62H597.8z M605.7,74.4
	c-1.3,0-2.4-0.4-3.3-1.3c-0.8-0.9-1.2-2.1-1.2-3.5v-0.3c0-1,0.2-1.8,0.6-2.6c0.4-0.8,0.9-1.4,1.6-1.8c0.7-0.4,1.4-0.7,2.2-0.7
	c1.3,0,2.3,0.4,3,1.3s1.1,2.1,1.1,3.6v0.7h-6.7c0,1,0.3,1.8,0.8,2.4c0.6,0.6,1.2,0.9,2.1,0.9c0.6,0,1.1-0.1,1.5-0.4
	c0.4-0.2,0.8-0.6,1.1-1l1,0.8C608.6,73.8,607.4,74.4,605.7,74.4z M605.5,65.6c-0.7,0-1.2,0.2-1.7,0.8c-0.5,0.5-0.7,1.2-0.8,2.1h4.9
	v-0.1c-0.1-0.9-0.3-1.5-0.7-2C606.8,65.8,606.2,65.6,605.5,65.6z M616.3,65.9c-0.3,0-0.5-0.1-0.8-0.1c-1.1,0-1.9,0.5-2.2,1.4v7h-1.7
	v-9.9h1.6l0,1.1c0.6-0.9,1.3-1.3,2.4-1.3c0.3,0,0.6,0,0.8,0.1V65.9z M619.4,64.4l0,1.2c0.8-0.9,1.7-1.4,3-1.4c2.1,0,3.1,1.2,3.2,3.5
	v6.5h-1.7v-6.5c0-0.7-0.2-1.2-0.5-1.6c-0.3-0.3-0.8-0.5-1.5-0.5c-0.5,0-1,0.1-1.4,0.4c-0.4,0.3-0.7,0.7-1,1.2v7h-1.7v-9.9H619.4z
	 M633.9,71.6c0-0.5-0.2-0.8-0.5-1.1s-0.9-0.5-1.8-0.6c-0.9-0.2-1.5-0.4-2-0.7c-0.5-0.3-0.9-0.6-1.1-0.9c-0.2-0.4-0.4-0.8-0.4-1.3
	c0-0.8,0.3-1.5,1-2c0.7-0.6,1.6-0.8,2.6-0.8c1.1,0,2,0.3,2.7,0.9c0.7,0.6,1,1.3,1,2.2h-1.7c0-0.5-0.2-0.9-0.6-1.2
	c-0.4-0.3-0.9-0.5-1.5-0.5c-0.6,0-1.1,0.1-1.4,0.4c-0.3,0.3-0.5,0.6-0.5,1c0,0.4,0.2,0.7,0.5,0.9c0.3,0.2,0.9,0.4,1.7,0.6
	c0.8,0.2,1.5,0.4,2,0.7c0.5,0.3,0.9,0.6,1.2,0.9c0.3,0.4,0.4,0.8,0.4,1.3c0,0.9-0.4,1.6-1.1,2.1c-0.7,0.5-1.6,0.8-2.7,0.8
	c-0.8,0-1.5-0.1-2.1-0.4c-0.6-0.3-1.1-0.7-1.4-1.2s-0.5-1-0.5-1.6h1.7c0,0.6,0.3,1,0.7,1.3c0.4,0.3,1,0.5,1.7,0.5
	c0.6,0,1.1-0.1,1.5-0.4C633.7,72.4,633.9,72.1,633.9,71.6z"/>
<path class="st2" d="M595.5,112.2c-0.1,1-0.5,1.8-1.1,2.3c-0.6,0.5-1.4,0.8-2.5,0.8c-1.1,0-2-0.4-2.7-1.2c-0.7-0.8-1-1.9-1-3.2V110
	c0-0.9,0.2-1.7,0.5-2.3s0.8-1.2,1.3-1.5c0.6-0.4,1.3-0.5,2-0.5c1,0,1.8,0.3,2.4,0.8c0.6,0.6,1,1.3,1.1,2.3h-1.2
	c-0.1-0.8-0.3-1.3-0.7-1.6c-0.4-0.3-0.9-0.5-1.5-0.5c-0.8,0-1.4,0.3-1.9,0.9c-0.4,0.6-0.7,1.4-0.7,2.5v0.9c0,1,0.2,1.8,0.6,2.5
	c0.4,0.6,1,0.9,1.8,0.9c0.7,0,1.2-0.2,1.6-0.5c0.4-0.3,0.6-0.9,0.8-1.6H595.5z M601.4,115.2c-0.1-0.1-0.1-0.4-0.2-0.7
	c-0.6,0.6-1.2,0.9-2,0.9c-0.7,0-1.3-0.2-1.7-0.6c-0.4-0.4-0.7-0.9-0.7-1.5c0-0.7,0.3-1.3,0.8-1.7c0.6-0.4,1.3-0.6,2.4-0.6h1.2v-0.6
	c0-0.4-0.1-0.8-0.4-1s-0.6-0.4-1.1-0.4c-0.4,0-0.8,0.1-1.1,0.3s-0.4,0.5-0.4,0.8H597c0-0.3,0.1-0.7,0.4-1c0.2-0.3,0.6-0.6,1-0.8
	c0.4-0.2,0.9-0.3,1.4-0.3c0.8,0,1.4,0.2,1.9,0.6s0.7,1,0.7,1.7v3.2c0,0.6,0.1,1.2,0.2,1.5v0.1H601.4z M599.4,114.3
	c0.4,0,0.7-0.1,1.1-0.3c0.3-0.2,0.6-0.5,0.7-0.8v-1.5h-0.9c-1.5,0-2.2,0.4-2.2,1.3c0,0.4,0.1,0.7,0.4,0.9
	C598.7,114.2,599,114.3,599.4,114.3z M607.7,109.2c-0.2,0-0.4,0-0.6,0c-0.8,0-1.3,0.3-1.6,1v5h-1.2v-7h1.2l0,0.8
	c0.4-0.6,0.9-0.9,1.7-0.9c0.2,0,0.4,0,0.5,0.1V109.2z M608.4,111.6c0-1.1,0.3-2,0.8-2.6c0.5-0.7,1.2-1,2-1c0.8,0,1.5,0.3,2,0.8v-3.7
	h1.2v10h-1.1l-0.1-0.8c-0.5,0.6-1.1,0.9-2,0.9c-0.8,0-1.5-0.3-2-1C608.7,113.6,608.4,112.8,608.4,111.6L608.4,111.6z M609.6,111.7
	c0,0.8,0.2,1.4,0.5,1.9c0.3,0.4,0.8,0.7,1.4,0.7c0.8,0,1.3-0.3,1.7-1V110c-0.4-0.7-0.9-1-1.7-1c-0.6,0-1.1,0.2-1.4,0.7
	C609.8,110.2,609.6,110.8,609.6,111.7z"/>
<path class="st4" d="M578.1,129.6c0-0.7,0.1-1.3,0.3-2c0.2-0.6,0.5-1.2,0.8-1.7c0.4-0.5,0.7-0.9,1.1-1.1l0.2,0.6
	c-0.4,0.3-0.8,0.8-1.1,1.5c-0.3,0.7-0.4,1.5-0.5,2.3v0.4c0,1.2,0.2,2.2,0.6,3.1c0.3,0.5,0.6,0.9,0.9,1.2l-0.2,0.5
	c-0.4-0.2-0.8-0.6-1.2-1.1C578.5,132.3,578.1,131.1,578.1,129.6z M588.7,130.2c-0.1,0.7-0.3,1.3-0.8,1.6c-0.4,0.4-1,0.6-1.7,0.6
	c-0.8,0-1.4-0.3-1.9-0.8c-0.5-0.6-0.7-1.3-0.7-2.2v-0.6c0-0.6,0.1-1.2,0.3-1.6c0.2-0.5,0.5-0.8,0.9-1.1c0.4-0.2,0.9-0.4,1.4-0.4
	c0.7,0,1.3,0.2,1.7,0.6c0.4,0.4,0.7,0.9,0.7,1.6h-0.9c-0.1-0.5-0.2-0.9-0.5-1.1c-0.2-0.2-0.6-0.4-1-0.4c-0.6,0-1,0.2-1.3,0.6
	c-0.3,0.4-0.5,1-0.5,1.7v0.6c0,0.7,0.2,1.3,0.5,1.7c0.3,0.4,0.7,0.6,1.3,0.6c0.5,0,0.8-0.1,1.1-0.3c0.3-0.2,0.4-0.6,0.5-1.2H588.7z
	 M592.8,132.3c-0.1-0.1-0.1-0.3-0.1-0.5c-0.4,0.4-0.9,0.6-1.4,0.6c-0.5,0-0.9-0.1-1.2-0.4c-0.3-0.3-0.5-0.6-0.5-1
	c0-0.5,0.2-0.9,0.6-1.2c0.4-0.3,0.9-0.4,1.7-0.4h0.8V129c0-0.3-0.1-0.5-0.3-0.7c-0.2-0.2-0.4-0.3-0.8-0.3c-0.3,0-0.6,0.1-0.8,0.2
	c-0.2,0.1-0.3,0.3-0.3,0.5h-0.8c0-0.2,0.1-0.5,0.3-0.7c0.2-0.2,0.4-0.4,0.7-0.5c0.3-0.1,0.6-0.2,1-0.2c0.6,0,1,0.1,1.3,0.4
	c0.3,0.3,0.5,0.7,0.5,1.2v2.3c0,0.5,0.1,0.8,0.2,1.1v0.1H592.8z M591.4,131.7c0.3,0,0.5-0.1,0.8-0.2c0.2-0.1,0.4-0.3,0.5-0.5v-1H592
	c-1,0-1.5,0.3-1.5,0.9c0,0.3,0.1,0.5,0.3,0.6C590.9,131.6,591.1,131.7,591.4,131.7z M597.2,128.2c-0.1,0-0.3,0-0.4,0
	c-0.6,0-0.9,0.2-1.1,0.7v3.5h-0.8v-4.9h0.8l0,0.6c0.3-0.4,0.7-0.7,1.2-0.7c0.2,0,0.3,0,0.4,0.1V128.2z M597.7,129.8
	c0-0.8,0.2-1.4,0.5-1.8c0.4-0.5,0.8-0.7,1.4-0.7c0.6,0,1,0.2,1.4,0.6v-2.6h0.8v7H601l0-0.5c-0.3,0.4-0.8,0.6-1.4,0.6
	c-0.6,0-1-0.2-1.4-0.7C597.8,131.3,597.7,130.6,597.7,129.8L597.7,129.8z M598.5,129.9c0,0.6,0.1,1,0.3,1.3c0.2,0.3,0.5,0.5,1,0.5
	c0.5,0,0.9-0.2,1.2-0.7v-2.3c-0.2-0.5-0.6-0.7-1.2-0.7c-0.4,0-0.7,0.2-1,0.5C598.6,128.8,598.5,129.3,598.5,129.9z M610.4,130.2
	c-0.1,0.7-0.3,1.3-0.8,1.6c-0.4,0.4-1,0.6-1.7,0.6c-0.8,0-1.4-0.3-1.9-0.8c-0.5-0.6-0.7-1.3-0.7-2.2v-0.6c0-0.6,0.1-1.2,0.3-1.6
	c0.2-0.5,0.5-0.8,0.9-1.1c0.4-0.2,0.9-0.4,1.4-0.4c0.7,0,1.3,0.2,1.7,0.6c0.4,0.4,0.7,0.9,0.7,1.6h-0.9c-0.1-0.5-0.2-0.9-0.5-1.1
	c-0.2-0.2-0.6-0.4-1-0.4c-0.6,0-1,0.2-1.3,0.6c-0.3,0.4-0.5,1-0.5,1.7v0.6c0,0.7,0.2,1.3,0.5,1.7c0.3,0.4,0.7,0.6,1.3,0.6
	c0.5,0,0.8-0.1,1.1-0.3c0.3-0.2,0.4-0.6,0.5-1.2H610.4z M616.1,126.4H614v5.9h-0.9v-5.9H611v-0.7h5.1V126.4z M620.4,130.6h-2.8
	l-0.6,1.7h-0.9l2.5-6.6h0.8l2.5,6.6H621L620.4,130.6z M617.9,129.9h2.2l-1.1-3.1L617.9,129.9z M624.6,129.7c0,0.7-0.1,1.3-0.3,2
	c-0.2,0.6-0.4,1.2-0.8,1.7c-0.4,0.5-0.8,0.9-1.2,1.1l-0.2-0.5c0.5-0.4,0.8-0.9,1.1-1.7c0.3-0.8,0.4-1.6,0.4-2.5v-0.1
	c0-0.6-0.1-1.2-0.2-1.8c-0.1-0.6-0.3-1-0.6-1.5c-0.2-0.4-0.5-0.8-0.8-1l0.2-0.5c0.4,0.2,0.8,0.6,1.2,1.1c0.4,0.5,0.6,1.1,0.8,1.7
	C624.5,128.3,624.6,129,624.6,129.7z"/>
<path class="st1" d="M553.9,193.6L553.9,193.6c0-5.7,4.6-10.4,10.4-10.4h74.3c2.8,0,5.4,1.1,7.3,3c1.9,1.9,3,4.6,3,7.3v87.1
	c0,5.7-4.6,10.4-10.4,10.4h-74.3c-5.7,0-10.4-4.6-10.4-10.4V193.6z"/>
<path class="st7" d="M553.9,193.6L553.9,193.6c0-5.7,4.6-10.4,10.4-10.4h74.3c2.8,0,5.4,1.1,7.3,3c1.9,1.9,3,4.6,3,7.3v87.1
	c0,5.7-4.6,10.4-10.4,10.4h-74.3c-5.7,0-10.4-4.6-10.4-10.4V193.6z"/>
<path class="st1" d="M587.6,270.5L587.6,270.5c0-1.2,0.9-2.1,2.1-2.1h47.2c0.6,0,1.1,0.2,1.5,0.6c0.4,0.4,0.6,0.9,0.6,1.5v8.4
	c0,1.2-0.9,2.1-2.1,2.1h-47.2c-1.2,0-2.1-0.9-2.1-2.1V270.5z"/>
<path class="st8" d="M587.6,270.5L587.6,270.5c0-1.2,0.9-2.1,2.1-2.1h47.2c0.6,0,1.1,0.2,1.5,0.6c0.4,0.4,0.6,0.9,0.6,1.5v8.4
	c0,1.2-0.9,2.1-2.1,2.1h-47.2c-1.2,0-2.1-0.9-2.1-2.1V270.5z"/>
<path class="st1" d="M632.3,195l6.7,6.7"/>
<path class="st7" d="M632.3,195l6.7,6.7"/>
<path class="st1" d="M639,195l-6.7,6.7"/>
<path class="st7" d="M639,195l-6.7,6.7"/>
<path class="st0" d="M745.8,68.4h-5.6v5.9h-1.7V61h8.2v1.4h-6.5V67h5.6V68.4z M752.4,74.4c-1.3,0-2.4-0.4-3.3-1.3
	c-0.8-0.9-1.2-2.1-1.2-3.5v-0.3c0-1,0.2-1.8,0.6-2.6c0.4-0.8,0.9-1.4,1.6-1.8c0.7-0.4,1.4-0.7,2.2-0.7c1.3,0,2.3,0.4,3,1.3
	c0.7,0.8,1.1,2.1,1.1,3.6v0.7h-6.7c0,1,0.3,1.8,0.8,2.4c0.6,0.6,1.2,0.9,2.1,0.9c0.6,0,1.1-0.1,1.5-0.4c0.4-0.2,0.8-0.6,1.1-1l1,0.8
	C755.3,73.8,754.1,74.4,752.4,74.4z M752.2,65.6c-0.7,0-1.2,0.2-1.7,0.8c-0.5,0.5-0.7,1.2-0.8,2.1h4.9v-0.1c-0.1-0.9-0.3-1.5-0.7-2
	C753.5,65.8,752.9,65.6,752.2,65.6z M764.3,74.2c-0.1-0.2-0.2-0.5-0.2-1c-0.8,0.8-1.7,1.2-2.8,1.2c-1,0-1.8-0.3-2.4-0.8
	c-0.6-0.6-0.9-1.2-0.9-2.1c0-1,0.4-1.8,1.2-2.4c0.8-0.6,1.9-0.9,3.3-0.9h1.6v-0.8c0-0.6-0.2-1.1-0.5-1.4c-0.3-0.4-0.9-0.5-1.5-0.5
	c-0.6,0-1.1,0.2-1.5,0.5c-0.4,0.3-0.6,0.7-0.6,1.1h-1.7c0-0.5,0.2-1,0.5-1.4c0.4-0.5,0.8-0.8,1.4-1.1c0.6-0.3,1.3-0.4,2-0.4
	c1.1,0,2,0.3,2.7,0.9c0.6,0.6,1,1.3,1,2.3v4.5c0,0.9,0.1,1.6,0.3,2.2v0.1H764.3z M761.5,73c0.5,0,1-0.1,1.5-0.4
	c0.5-0.3,0.8-0.6,1-1.1v-2h-1.3c-2.1,0-3.1,0.6-3.1,1.8c0,0.5,0.2,0.9,0.5,1.2C760.5,72.8,760.9,73,761.5,73z M770.6,62v2.4h1.8v1.3
	h-1.8v6.1c0,0.4,0.1,0.7,0.2,0.9c0.2,0.2,0.4,0.3,0.8,0.3c0.2,0,0.5,0,0.8-0.1v1.4c-0.4,0.1-0.9,0.2-1.3,0.2c-0.8,0-1.3-0.2-1.7-0.7
	c-0.4-0.5-0.6-1.1-0.6-1.9v-6.1h-1.8v-1.3h1.8V62H770.6z M780.5,73.3c-0.7,0.8-1.6,1.2-2.9,1.2c-1.1,0-1.9-0.3-2.4-0.9
	c-0.5-0.6-0.8-1.5-0.8-2.7v-6.4h1.7v6.4c0,1.5,0.6,2.2,1.8,2.2c1.3,0,2.1-0.5,2.6-1.4v-7.2h1.7v9.9h-1.6L780.5,73.3z M789.5,65.9
	c-0.3,0-0.5-0.1-0.8-0.1c-1.1,0-1.9,0.5-2.2,1.4v7h-1.7v-9.9h1.6l0,1.1c0.6-0.9,1.3-1.3,2.4-1.3c0.3,0,0.6,0,0.8,0.1V65.9z
	 M795,74.4c-1.3,0-2.4-0.4-3.3-1.3c-0.8-0.9-1.2-2.1-1.2-3.5v-0.3c0-1,0.2-1.8,0.6-2.6c0.4-0.8,0.9-1.4,1.6-1.8
	c0.7-0.4,1.4-0.7,2.2-0.7c1.3,0,2.3,0.4,3,1.3c0.7,0.8,1.1,2.1,1.1,3.6v0.7h-6.7c0,1,0.3,1.8,0.8,2.4c0.6,0.6,1.2,0.9,2.1,0.9
	c0.6,0,1.1-0.1,1.5-0.4c0.4-0.2,0.8-0.6,1.1-1l1,0.8C797.9,73.8,796.6,74.4,795,74.4z M794.8,65.6c-0.7,0-1.2,0.2-1.7,0.8
	c-0.5,0.5-0.7,1.2-0.8,2.1h4.9v-0.1c-0.1-0.9-0.3-1.5-0.7-2C796,65.8,795.5,65.6,794.8,65.6z"/>
<path class="st2" d="M732,111c-1.1-0.3-1.9-0.7-2.3-1.1c-0.5-0.4-0.7-1-0.7-1.7c0-0.8,0.3-1.4,0.9-1.9c0.6-0.5,1.4-0.7,2.3-0.7
	c0.6,0,1.2,0.1,1.7,0.4c0.5,0.2,0.9,0.6,1.2,1c0.3,0.4,0.4,0.9,0.4,1.4h-1.3c0-0.6-0.2-1-0.5-1.3c-0.4-0.3-0.9-0.5-1.5-0.5
	c-0.6,0-1.1,0.1-1.5,0.4c-0.3,0.3-0.5,0.6-0.5,1.1c0,0.4,0.2,0.7,0.5,1c0.3,0.3,0.9,0.5,1.7,0.7c0.8,0.2,1.4,0.5,1.9,0.7
	c0.4,0.3,0.8,0.6,1,0.9c0.2,0.4,0.3,0.8,0.3,1.2c0,0.8-0.3,1.4-0.9,1.8c-0.6,0.5-1.4,0.7-2.4,0.7c-0.7,0-1.3-0.1-1.8-0.4
	s-1-0.6-1.3-1c-0.3-0.4-0.5-0.9-0.5-1.5h1.3c0,0.6,0.2,1,0.6,1.4c0.4,0.3,1,0.5,1.7,0.5c0.7,0,1.2-0.1,1.5-0.4
	c0.4-0.3,0.5-0.6,0.5-1.1c0-0.5-0.2-0.8-0.5-1.1C733.5,111.4,732.9,111.2,732,111z M739.9,115.3c-0.9,0-1.7-0.3-2.3-0.9
	c-0.6-0.6-0.9-1.5-0.9-2.5v-0.2c0-0.7,0.1-1.3,0.4-1.9c0.3-0.6,0.6-1,1.1-1.3s1-0.5,1.6-0.5c0.9,0,1.6,0.3,2.1,0.9
	c0.5,0.6,0.8,1.5,0.8,2.6v0.5h-4.8c0,0.7,0.2,1.2,0.6,1.7c0.4,0.4,0.9,0.6,1.5,0.6c0.4,0,0.8-0.1,1.1-0.2c0.3-0.2,0.6-0.4,0.8-0.7
	l0.7,0.6C741.9,114.8,741,115.3,739.9,115.3z M739.7,109c-0.5,0-0.9,0.2-1.2,0.5c-0.3,0.4-0.5,0.8-0.6,1.5h3.5v-0.1
	c0-0.6-0.2-1.1-0.5-1.4C740.6,109.2,740.2,109,739.7,109z M748.4,115.2c-0.1-0.1-0.1-0.4-0.2-0.7c-0.6,0.6-1.2,0.9-2,0.9
	c-0.7,0-1.3-0.2-1.7-0.6c-0.4-0.4-0.7-0.9-0.7-1.5c0-0.7,0.3-1.3,0.8-1.7c0.6-0.4,1.3-0.6,2.4-0.6h1.2v-0.6c0-0.4-0.1-0.8-0.4-1
	s-0.6-0.4-1.1-0.4c-0.4,0-0.8,0.1-1.1,0.3c-0.3,0.2-0.4,0.5-0.4,0.8h-1.2c0-0.3,0.1-0.7,0.4-1c0.2-0.3,0.6-0.6,1-0.8
	c0.4-0.2,0.9-0.3,1.4-0.3c0.8,0,1.4,0.2,1.9,0.6c0.5,0.4,0.7,1,0.7,1.7v3.2c0,0.6,0.1,1.2,0.2,1.5v0.1H748.4z M746.4,114.3
	c0.4,0,0.7-0.1,1.1-0.3c0.3-0.2,0.6-0.5,0.7-0.8v-1.5h-0.9c-1.5,0-2.2,0.4-2.2,1.3c0,0.4,0.1,0.7,0.4,0.9
	C745.6,114.2,746,114.3,746.4,114.3z M754.7,109.2c-0.2,0-0.4,0-0.6,0c-0.8,0-1.3,0.3-1.6,1v5h-1.2v-7h1.2l0,0.8
	c0.4-0.6,0.9-0.9,1.7-0.9c0.2,0,0.4,0,0.5,0.1V109.2z M758.5,114.3c0.4,0,0.8-0.1,1.1-0.4c0.3-0.3,0.5-0.6,0.5-1h1.1
	c0,0.4-0.2,0.8-0.4,1.2c-0.2,0.4-0.6,0.7-1,0.9c-0.4,0.2-0.9,0.3-1.4,0.3c-1,0-1.7-0.3-2.3-1c-0.6-0.6-0.8-1.5-0.8-2.6v-0.2
	c0-0.7,0.1-1.3,0.4-1.8c0.3-0.5,0.6-0.9,1.1-1.2c0.5-0.3,1-0.5,1.7-0.5c0.8,0,1.4,0.2,2,0.7c0.5,0.5,0.8,1.1,0.8,1.8h-1.1
	c0-0.4-0.2-0.8-0.5-1.1c-0.3-0.3-0.7-0.5-1.1-0.5c-0.6,0-1.1,0.2-1.4,0.7c-0.3,0.4-0.5,1.1-0.5,1.9v0.2c0,0.8,0.2,1.4,0.5,1.9
	C757.4,114.1,757.8,114.3,758.5,114.3z M763.8,109c0.5-0.7,1.2-1,2.1-1c1.5,0,2.2,0.8,2.2,2.5v4.7H767v-4.7c0-0.5-0.1-0.9-0.4-1.1
	c-0.2-0.2-0.6-0.4-1.1-0.4c-0.4,0-0.7,0.1-1,0.3c-0.3,0.2-0.5,0.5-0.7,0.8v5h-1.2v-10h1.2V109z M776.9,111.3h-2.2v3.8h-1.2v-9.5h3.1
	c1.1,0,1.9,0.2,2.5,0.7c0.6,0.5,0.9,1.2,0.9,2.1c0,0.6-0.2,1.1-0.5,1.5c-0.3,0.4-0.8,0.8-1.3,1l2.2,4v0.1H779L776.9,111.3z
	 M774.7,110.3h1.9c0.6,0,1.1-0.2,1.5-0.5c0.4-0.3,0.5-0.8,0.5-1.3c0-0.6-0.2-1-0.5-1.3c-0.3-0.3-0.8-0.5-1.5-0.5h-1.9V110.3z
	 M784.4,115.3c-0.9,0-1.7-0.3-2.3-0.9c-0.6-0.6-0.9-1.5-0.9-2.5v-0.2c0-0.7,0.1-1.3,0.4-1.9c0.3-0.6,0.6-1,1.1-1.3
	c0.5-0.3,1-0.5,1.6-0.5c0.9,0,1.6,0.3,2.1,0.9c0.5,0.6,0.8,1.5,0.8,2.6v0.5h-4.8c0,0.7,0.2,1.2,0.6,1.7c0.4,0.4,0.9,0.6,1.5,0.6
	c0.4,0,0.8-0.1,1.1-0.2c0.3-0.2,0.6-0.4,0.8-0.7l0.7,0.6C786.4,114.8,785.6,115.3,784.4,115.3z M784.2,109c-0.5,0-0.9,0.2-1.2,0.5
	c-0.3,0.4-0.5,0.8-0.6,1.5h3.5v-0.1c0-0.6-0.2-1.1-0.5-1.4C785.1,109.2,784.7,109,784.2,109z M792.6,113.3c0-0.3-0.1-0.6-0.4-0.8
	c-0.2-0.2-0.7-0.3-1.3-0.5c-0.6-0.1-1.1-0.3-1.5-0.5c-0.4-0.2-0.6-0.4-0.8-0.7c-0.2-0.3-0.2-0.6-0.2-0.9c0-0.6,0.2-1.1,0.7-1.5
	c0.5-0.4,1.1-0.6,1.9-0.6c0.8,0,1.4,0.2,1.9,0.6c0.5,0.4,0.8,0.9,0.8,1.6h-1.2c0-0.3-0.1-0.6-0.4-0.9c-0.3-0.2-0.6-0.4-1-0.4
	c-0.4,0-0.8,0.1-1,0.3c-0.2,0.2-0.4,0.4-0.4,0.8c0,0.3,0.1,0.5,0.3,0.7c0.2,0.1,0.6,0.3,1.2,0.4c0.6,0.1,1.1,0.3,1.5,0.5
	c0.4,0.2,0.7,0.4,0.8,0.7c0.2,0.3,0.3,0.6,0.3,1c0,0.6-0.3,1.1-0.8,1.5c-0.5,0.4-1.2,0.6-2,0.6c-0.6,0-1.1-0.1-1.5-0.3
	c-0.4-0.2-0.8-0.5-1-0.8c-0.2-0.4-0.4-0.8-0.4-1.2h1.2c0,0.4,0.2,0.7,0.5,1c0.3,0.2,0.7,0.3,1.2,0.3c0.5,0,0.8-0.1,1.1-0.3
	C792.5,113.9,792.6,113.6,792.6,113.3z M799.7,114.5c-0.5,0.6-1.2,0.8-2.1,0.8c-0.8,0-1.3-0.2-1.7-0.6c-0.4-0.4-0.6-1.1-0.6-1.9
	v-4.6h1.2v4.5c0,1.1,0.4,1.6,1.3,1.6c0.9,0,1.5-0.3,1.8-1v-5.1h1.2v7h-1.2L799.7,114.5z M804,115.2h-1.2v-10h1.2V115.2z
	 M807.6,106.4v1.7h1.3v0.9h-1.3v4.4c0,0.3,0.1,0.5,0.2,0.6c0.1,0.1,0.3,0.2,0.6,0.2c0.1,0,0.3,0,0.6-0.1v1c-0.3,0.1-0.6,0.1-0.9,0.1
	c-0.5,0-0.9-0.2-1.2-0.5c-0.3-0.3-0.4-0.8-0.4-1.4v-4.4h-1.3v-0.9h1.3v-1.7H807.6z M814.4,113.3c0-0.3-0.1-0.6-0.4-0.8
	c-0.2-0.2-0.7-0.3-1.3-0.5c-0.6-0.1-1.1-0.3-1.5-0.5c-0.4-0.2-0.6-0.4-0.8-0.7c-0.2-0.3-0.2-0.6-0.2-0.9c0-0.6,0.2-1.1,0.7-1.5
	c0.5-0.4,1.1-0.6,1.9-0.6c0.8,0,1.4,0.2,1.9,0.6c0.5,0.4,0.8,0.9,0.8,1.6h-1.2c0-0.3-0.1-0.6-0.4-0.9s-0.6-0.4-1-0.4
	c-0.4,0-0.8,0.1-1,0.3c-0.2,0.2-0.4,0.4-0.4,0.8c0,0.3,0.1,0.5,0.3,0.7c0.2,0.1,0.6,0.3,1.2,0.4c0.6,0.1,1.1,0.3,1.5,0.5
	c0.4,0.2,0.7,0.4,0.8,0.7c0.2,0.3,0.3,0.6,0.3,1c0,0.6-0.3,1.1-0.8,1.5c-0.5,0.4-1.2,0.6-2,0.6c-0.6,0-1.1-0.1-1.5-0.3
	c-0.4-0.2-0.8-0.5-1-0.8c-0.2-0.4-0.4-0.8-0.4-1.2h1.2c0,0.4,0.2,0.7,0.5,1c0.3,0.2,0.7,0.3,1.2,0.3c0.5,0,0.8-0.1,1.1-0.3
	C814.3,113.9,814.4,113.6,814.4,113.3z"/>
<path class="st4" d="M729.5,129.6c0-0.7,0.1-1.3,0.3-2c0.2-0.6,0.5-1.2,0.8-1.7c0.4-0.5,0.7-0.9,1.1-1.1l0.2,0.6
	c-0.4,0.3-0.8,0.8-1.1,1.5c-0.3,0.7-0.4,1.5-0.5,2.3v0.4c0,1.2,0.2,2.2,0.6,3.1c0.3,0.5,0.6,0.9,0.9,1.2l-0.2,0.5
	c-0.4-0.2-0.8-0.6-1.2-1.1C729.8,132.3,729.5,131.1,729.5,129.6z M737.1,129.4c-0.8-0.2-1.3-0.5-1.6-0.8c-0.3-0.3-0.5-0.7-0.5-1.2
	c0-0.5,0.2-0.9,0.6-1.3c0.4-0.3,1-0.5,1.6-0.5c0.5,0,0.9,0.1,1.2,0.3c0.4,0.2,0.6,0.4,0.8,0.7c0.2,0.3,0.3,0.6,0.3,1h-0.9
	c0-0.4-0.1-0.7-0.4-0.9c-0.2-0.2-0.6-0.3-1.1-0.3c-0.4,0-0.8,0.1-1,0.3c-0.2,0.2-0.4,0.5-0.4,0.8c0,0.3,0.1,0.5,0.3,0.7
	c0.2,0.2,0.6,0.3,1.2,0.5c0.6,0.2,1,0.3,1.3,0.5c0.3,0.2,0.5,0.4,0.7,0.7c0.2,0.3,0.2,0.5,0.2,0.9c0,0.5-0.2,1-0.6,1.3
	c-0.4,0.3-1,0.5-1.7,0.5c-0.5,0-0.9-0.1-1.3-0.3c-0.4-0.2-0.7-0.4-0.9-0.7c-0.2-0.3-0.3-0.6-0.3-1h0.9c0,0.4,0.1,0.7,0.4,1
	c0.3,0.2,0.7,0.3,1.2,0.3c0.5,0,0.8-0.1,1-0.3c0.2-0.2,0.4-0.4,0.4-0.8c0-0.3-0.1-0.6-0.3-0.8C738.1,129.7,737.7,129.5,737.1,129.4z
	 M742.6,132.4c-0.7,0-1.2-0.2-1.6-0.7c-0.4-0.4-0.6-1-0.6-1.8v-0.2c0-0.5,0.1-0.9,0.3-1.3c0.2-0.4,0.4-0.7,0.8-0.9
	c0.3-0.2,0.7-0.3,1.1-0.3c0.6,0,1.1,0.2,1.5,0.6c0.4,0.4,0.5,1,0.5,1.8v0.4h-3.3c0,0.5,0.2,0.9,0.4,1.2c0.3,0.3,0.6,0.5,1,0.5
	c0.3,0,0.5-0.1,0.8-0.2c0.2-0.1,0.4-0.3,0.5-0.5l0.5,0.4C744,132.1,743.4,132.4,742.6,132.4z M742.5,128c-0.3,0-0.6,0.1-0.9,0.4
	c-0.2,0.3-0.4,0.6-0.4,1h2.5v-0.1c0-0.4-0.2-0.8-0.4-1C743.1,128.1,742.8,128,742.5,128z M748.5,132.3c-0.1-0.1-0.1-0.3-0.1-0.5
	c-0.4,0.4-0.9,0.6-1.4,0.6c-0.5,0-0.9-0.1-1.2-0.4c-0.3-0.3-0.5-0.6-0.5-1c0-0.5,0.2-0.9,0.6-1.2c0.4-0.3,0.9-0.4,1.7-0.4h0.8V129
	c0-0.3-0.1-0.5-0.3-0.7c-0.2-0.2-0.4-0.3-0.8-0.3c-0.3,0-0.6,0.1-0.8,0.2c-0.2,0.1-0.3,0.3-0.3,0.5h-0.8c0-0.2,0.1-0.5,0.3-0.7
	c0.2-0.2,0.4-0.4,0.7-0.5c0.3-0.1,0.6-0.2,1-0.2c0.6,0,1,0.1,1.3,0.4c0.3,0.3,0.5,0.7,0.5,1.2v2.3c0,0.5,0.1,0.8,0.2,1.1v0.1H748.5z
	 M747.1,131.7c0.3,0,0.5-0.1,0.8-0.2c0.2-0.1,0.4-0.3,0.5-0.5v-1h-0.7c-1,0-1.5,0.3-1.5,0.9c0,0.3,0.1,0.5,0.3,0.6
	C746.6,131.6,746.9,131.7,747.1,131.7z M752.9,128.2c-0.1,0-0.3,0-0.4,0c-0.6,0-0.9,0.2-1.1,0.7v3.5h-0.8v-4.9h0.8l0,0.6
	c0.3-0.4,0.7-0.7,1.2-0.7c0.2,0,0.3,0,0.4,0.1V128.2z M755.6,131.7c0.3,0,0.6-0.1,0.8-0.3c0.2-0.2,0.4-0.4,0.4-0.7h0.8
	c0,0.3-0.1,0.6-0.3,0.8c-0.2,0.3-0.4,0.5-0.7,0.6c-0.3,0.1-0.6,0.2-1,0.2c-0.7,0-1.2-0.2-1.6-0.7c-0.4-0.4-0.6-1.1-0.6-1.8v-0.1
	c0-0.5,0.1-0.9,0.3-1.3c0.2-0.4,0.4-0.7,0.8-0.9c0.3-0.2,0.7-0.3,1.2-0.3c0.6,0,1,0.2,1.4,0.5c0.4,0.3,0.6,0.8,0.6,1.3h-0.8
	c0-0.3-0.2-0.6-0.4-0.8c-0.2-0.2-0.5-0.3-0.8-0.3c-0.4,0-0.8,0.2-1,0.5c-0.2,0.3-0.3,0.7-0.3,1.3v0.2c0,0.6,0.1,1,0.3,1.3
	C754.8,131.6,755.2,131.7,755.6,131.7z M759.4,128c0.4-0.5,0.9-0.7,1.5-0.7c1,0,1.6,0.6,1.6,1.8v3.2h-0.8v-3.3
	c0-0.4-0.1-0.6-0.2-0.8c-0.2-0.2-0.4-0.2-0.7-0.2c-0.3,0-0.5,0.1-0.7,0.2c-0.2,0.1-0.4,0.3-0.5,0.6v3.5h-0.8v-7h0.8V128z
	 M768.5,129.6H767v2.7h-0.9v-6.6h2.2c0.8,0,1.3,0.2,1.7,0.5c0.4,0.3,0.6,0.8,0.6,1.5c0,0.4-0.1,0.8-0.3,1.1
	c-0.2,0.3-0.5,0.5-0.9,0.7l1.6,2.8v0H770L768.5,129.6z M767,128.9h1.3c0.4,0,0.8-0.1,1-0.3c0.3-0.2,0.4-0.5,0.4-0.9
	c0-0.4-0.1-0.7-0.4-0.9c-0.2-0.2-0.6-0.3-1-0.3H767V128.9z M773.8,132.4c-0.7,0-1.2-0.2-1.6-0.7c-0.4-0.4-0.6-1-0.6-1.8v-0.2
	c0-0.5,0.1-0.9,0.3-1.3c0.2-0.4,0.4-0.7,0.8-0.9c0.3-0.2,0.7-0.3,1.1-0.3c0.6,0,1.1,0.2,1.5,0.6c0.4,0.4,0.5,1,0.5,1.8v0.4h-3.3
	c0,0.5,0.2,0.9,0.4,1.2c0.3,0.3,0.6,0.5,1,0.5c0.3,0,0.5-0.1,0.8-0.2c0.2-0.1,0.4-0.3,0.5-0.5l0.5,0.4
	C775.2,132.1,774.6,132.4,773.8,132.4z M773.6,128c-0.3,0-0.6,0.1-0.9,0.4c-0.2,0.3-0.4,0.6-0.4,1h2.5v-0.1c0-0.4-0.2-0.8-0.4-1
	C774.3,128.1,774,128,773.6,128z M779.5,131c0-0.2-0.1-0.4-0.2-0.5c-0.2-0.1-0.5-0.2-0.9-0.3c-0.4-0.1-0.8-0.2-1-0.3
	c-0.2-0.1-0.4-0.3-0.6-0.5c-0.1-0.2-0.2-0.4-0.2-0.6c0-0.4,0.2-0.7,0.5-1c0.3-0.3,0.8-0.4,1.3-0.4c0.6,0,1,0.1,1.4,0.4
	c0.3,0.3,0.5,0.6,0.5,1.1h-0.8c0-0.2-0.1-0.4-0.3-0.6c-0.2-0.2-0.4-0.2-0.7-0.2c-0.3,0-0.5,0.1-0.7,0.2c-0.2,0.1-0.3,0.3-0.3,0.5
	c0,0.2,0.1,0.4,0.2,0.5c0.2,0.1,0.5,0.2,0.9,0.3c0.4,0.1,0.8,0.2,1,0.3c0.3,0.1,0.5,0.3,0.6,0.5c0.1,0.2,0.2,0.4,0.2,0.7
	c0,0.4-0.2,0.8-0.5,1.1c-0.3,0.3-0.8,0.4-1.4,0.4c-0.4,0-0.7-0.1-1-0.2c-0.3-0.1-0.5-0.3-0.7-0.6c-0.2-0.2-0.2-0.5-0.2-0.8h0.8
	c0,0.3,0.1,0.5,0.3,0.7c0.2,0.2,0.5,0.3,0.8,0.2c0.3,0,0.6-0.1,0.8-0.2C779.4,131.4,779.5,131.2,779.5,131z M784.5,131.9
	c-0.3,0.4-0.8,0.6-1.5,0.6c-0.5,0-0.9-0.2-1.2-0.5c-0.3-0.3-0.4-0.8-0.4-1.4v-3.2h0.8v3.2c0,0.8,0.3,1.1,0.9,1.1
	c0.6,0,1.1-0.2,1.3-0.7v-3.6h0.8v4.9h-0.8L784.5,131.9z M787.5,132.3h-0.8v-7h0.8V132.3z M790,126.2v1.2h0.9v0.6H790v3.1
	c0,0.2,0,0.3,0.1,0.5c0.1,0.1,0.2,0.1,0.4,0.1c0.1,0,0.2,0,0.4-0.1v0.7c-0.2,0.1-0.4,0.1-0.6,0.1c-0.4,0-0.7-0.1-0.9-0.3
	c-0.2-0.2-0.3-0.6-0.3-1v-3.1h-0.9v-0.6h0.9v-1.2H790z M795.3,132.3h-0.9v-6.6h0.9V132.3z M797.9,126.2v1.2h0.9v0.6h-0.9v3.1
	c0,0.2,0,0.3,0.1,0.5c0.1,0.1,0.2,0.1,0.4,0.1c0.1,0,0.2,0,0.4-0.1v0.7c-0.2,0.1-0.4,0.1-0.6,0.1c-0.4,0-0.7-0.1-0.9-0.3
	c-0.2-0.2-0.3-0.6-0.3-1v-3.1h-0.9v-0.6h0.9v-1.2H797.9z M801.9,132.4c-0.7,0-1.2-0.2-1.6-0.7c-0.4-0.4-0.6-1-0.6-1.8v-0.2
	c0-0.5,0.1-0.9,0.3-1.3c0.2-0.4,0.4-0.7,0.8-0.9c0.3-0.2,0.7-0.3,1.1-0.3c0.6,0,1.1,0.2,1.5,0.6c0.4,0.4,0.5,1,0.5,1.8v0.4h-3.3
	c0,0.5,0.2,0.9,0.4,1.2c0.3,0.3,0.6,0.5,1,0.5c0.3,0,0.5-0.1,0.8-0.2c0.2-0.1,0.4-0.3,0.5-0.5l0.5,0.4
	C803.3,132.1,802.7,132.4,801.9,132.4z M801.7,128c-0.3,0-0.6,0.1-0.9,0.4c-0.2,0.3-0.4,0.6-0.4,1h2.5v-0.1c0-0.4-0.2-0.8-0.4-1
	C802.4,128.1,802.1,128,801.7,128z M805.5,127.4l0,0.5c0.4-0.4,0.9-0.6,1.5-0.6c0.7,0,1.2,0.3,1.4,0.8c0.2-0.2,0.4-0.4,0.6-0.6
	c0.3-0.1,0.6-0.2,0.9-0.2c1.1,0,1.6,0.6,1.7,1.7v3.3h-0.8v-3.2c0-0.4-0.1-0.6-0.2-0.8c-0.2-0.2-0.4-0.3-0.8-0.3
	c-0.3,0-0.6,0.1-0.8,0.3c-0.2,0.2-0.3,0.4-0.3,0.8v3.3h-0.9v-3.2c0-0.7-0.3-1.1-1-1.1c-0.6,0-0.9,0.2-1.1,0.7v3.6h-0.8v-4.9H805.5z
	 M814.9,129.7c0,0.7-0.1,1.3-0.3,2c-0.2,0.6-0.4,1.2-0.8,1.7c-0.4,0.5-0.8,0.9-1.2,1.1l-0.2-0.5c0.5-0.4,0.8-0.9,1.1-1.7
	c0.3-0.8,0.4-1.6,0.4-2.5v-0.1c0-0.6-0.1-1.2-0.2-1.8c-0.1-0.6-0.3-1-0.6-1.5c-0.2-0.4-0.5-0.8-0.8-1l0.2-0.5
	c0.4,0.2,0.8,0.6,1.2,1.1c0.4,0.5,0.6,1.1,0.8,1.7C814.8,128.3,814.9,129,814.9,129.7z"/>
<path class="st1" d="M714.1,174.1L714.1,174.1c0-3.2,2.6-5.8,5.8-5.8h41.7c1.5,0,3,0.6,4.1,1.7c1.1,1.1,1.7,2.6,1.7,4.1v49
	c0,3.2-2.6,5.8-5.8,5.8H720c-3.2,0-5.8-2.6-5.8-5.8V174.1z"/>
<path class="st8" d="M714.1,174.1L714.1,174.1c0-3.2,2.6-5.8,5.8-5.8h41.7c1.5,0,3,0.6,4.1,1.7c1.1,1.1,1.7,2.6,1.7,4.1v49
	c0,3.2-2.6,5.8-5.8,5.8H720c-3.2,0-5.8-2.6-5.8-5.8V174.1z"/>
<path class="st1" d="M776.9,174.1L776.9,174.1c0-3.2,2.6-5.8,5.8-5.8h41.7c1.5,0,3,0.6,4.1,1.7s1.7,2.6,1.7,4.1v49
	c0,3.2-2.6,5.8-5.8,5.8h-41.7c-3.2,0-5.8-2.6-5.8-5.8V174.1z"/>
<path class="st7" d="M776.9,174.1L776.9,174.1c0-3.2,2.6-5.8,5.8-5.8h41.7c1.5,0,3,0.6,4.1,1.7s1.7,2.6,1.7,4.1v49
	c0,3.2-2.6,5.8-5.8,5.8h-41.7c-3.2,0-5.8-2.6-5.8-5.8V174.1z"/>
<path class="st1" d="M714.1,244L714.1,244c0-3.2,2.6-5.8,5.8-5.8h41.7c1.5,0,3,0.6,4.1,1.7c1.1,1.1,1.7,2.6,1.7,4.1v49
	c0,3.2-2.6,5.8-5.8,5.8H720c-3.2,0-5.8-2.6-5.8-5.8V244z"/>
<path class="st7" d="M714.1,244L714.1,244c0-3.2,2.6-5.8,5.8-5.8h41.7c1.5,0,3,0.6,4.1,1.7c1.1,1.1,1.7,2.6,1.7,4.1v49
	c0,3.2-2.6,5.8-5.8,5.8H720c-3.2,0-5.8-2.6-5.8-5.8V244z"/>
<path class="st1" d="M776.9,244L776.9,244c0-3.2,2.6-5.8,5.8-5.8h41.7c1.5,0,3,0.6,4.1,1.7c1.1,1.1,1.7,2.6,1.7,4.1v49
	c0,3.2-2.6,5.8-5.8,5.8h-41.7c-3.2,0-5.8-2.6-5.8-5.8V244z"/>
<path class="st7" d="M776.9,244L776.9,244c0-3.2,2.6-5.8,5.8-5.8h41.7c1.5,0,3,0.6,4.1,1.7c1.1,1.1,1.7,2.6,1.7,4.1v49
	c0,3.2-2.6,5.8-5.8,5.8h-41.7c-3.2,0-5.8-2.6-5.8-5.8V244z"/>
<path class="st1" d="M792.4,310.3L792.4,310.3c0-1.2,0.9-2.1,2.1-2.1h33.7c0.6,0,1.1,0.2,1.5,0.6c0.4,0.4,0.6,0.9,0.6,1.5v8.4
	c0,1.2-0.9,2.1-2.1,2.1h-33.7c-1.2,0-2.1-0.9-2.1-2.1V310.3z"/>
<path class="st7" d="M792.4,310.3L792.4,310.3c0-1.2,0.9-2.1,2.1-2.1h33.7c0.6,0,1.1,0.2,1.5,0.6c0.4,0.4,0.6,0.9,0.6,1.5v8.4
	c0,1.2-0.9,2.1-2.1,2.1h-33.7c-1.2,0-2.1-0.9-2.1-2.1V310.3z"/>
<path class="st1" d="M714.1,307.2h95.3v14.6h-95.3V307.2z"/>
<path class="st2" d="M715.9,318.1h4.2v0.6h-4.9v-8.5h0.7V318.1z M725.4,318.7c-0.1-0.2-0.1-0.5-0.1-0.9c-0.2,0.3-0.6,0.6-1,0.8
	c-0.4,0.2-0.8,0.3-1.2,0.3c-0.6,0-1.1-0.2-1.5-0.5c-0.4-0.3-0.6-0.8-0.6-1.3c0-0.6,0.3-1.1,0.8-1.5c0.5-0.4,1.2-0.5,2.1-0.5h1.3
	v-0.7c0-0.5-0.1-0.8-0.4-1.1c-0.3-0.3-0.7-0.4-1.2-0.4c-0.5,0-0.9,0.1-1.2,0.4c-0.3,0.2-0.5,0.5-0.5,0.9h-0.7c0-0.5,0.2-0.9,0.7-1.3
	c0.5-0.4,1-0.6,1.7-0.6c0.7,0,1.3,0.2,1.7,0.5c0.4,0.4,0.6,0.8,0.6,1.5v3c0,0.6,0.1,1.1,0.2,1.4v0.1H725.4z M723.2,318.2
	c0.5,0,0.9-0.1,1.2-0.3c0.4-0.2,0.6-0.5,0.8-0.9v-1.4H724c-0.7,0-1.2,0.1-1.6,0.4c-0.4,0.2-0.6,0.6-0.6,1c0,0.4,0.1,0.7,0.4,0.9
	C722.4,318.1,722.7,318.2,723.2,318.2z M732.9,315.6c0,1-0.2,1.8-0.7,2.4c-0.4,0.6-1,0.9-1.8,0.9c-0.9,0-1.5-0.3-2-1l0,0.9h-0.7v-9
	h0.7v3.6c0.4-0.7,1.1-1,2-1c0.8,0,1.3,0.3,1.8,0.9c0.4,0.6,0.7,1.4,0.7,2.4V315.6z M732.2,315.5c0-0.8-0.2-1.5-0.5-1.9
	c-0.3-0.5-0.8-0.7-1.4-0.7c-0.4,0-0.8,0.1-1.1,0.3c-0.3,0.2-0.5,0.5-0.7,1v2.9c0.4,0.8,1,1.2,1.9,1.2c0.6,0,1-0.2,1.4-0.7
	C732,317.1,732.2,316.4,732.2,315.5z M736.9,318.8c-0.5,0-1-0.1-1.5-0.4c-0.4-0.3-0.8-0.6-1-1.1c-0.2-0.5-0.4-1-0.4-1.6v-0.2
	c0-0.6,0.1-1.2,0.3-1.7c0.2-0.5,0.6-0.9,1-1.1c0.4-0.3,0.9-0.4,1.4-0.4c0.8,0,1.4,0.3,1.8,0.8c0.5,0.5,0.7,1.2,0.7,2.1v0.4h-4.5v0.1
	c0,0.7,0.2,1.3,0.6,1.8c0.4,0.5,0.9,0.7,1.6,0.7c0.4,0,0.7-0.1,1-0.2c0.3-0.1,0.6-0.4,0.8-0.7l0.4,0.3
	C738.6,318.4,737.9,318.8,736.9,318.8z M736.8,312.8c-0.5,0-1,0.2-1.3,0.6c-0.4,0.4-0.6,0.9-0.7,1.6h3.8v-0.1c0-0.6-0.2-1.1-0.5-1.5
	C737.7,313,737.3,312.8,736.8,312.8z M741.4,318.7h-0.7v-9h0.7V318.7z"/>
<path class="st0" d="M69.9,62.4h-4.3v11.8h-1.7V62.4h-4.2V61h10.2V62.4z M70.2,69.2c0-1,0.2-1.8,0.6-2.6c0.4-0.8,0.9-1.4,1.6-1.8
	c0.7-0.4,1.4-0.6,2.3-0.6c1.3,0,2.4,0.5,3.2,1.4c0.8,0.9,1.2,2.2,1.2,3.7v0.1c0,1-0.2,1.8-0.5,2.6c-0.4,0.8-0.9,1.4-1.6,1.8
	c-0.7,0.4-1.5,0.6-2.4,0.6c-1.3,0-2.4-0.5-3.2-1.4c-0.8-0.9-1.2-2.2-1.2-3.7V69.2z M71.9,69.4c0,1.1,0.3,2,0.8,2.6
	c0.5,0.7,1.2,1,2,1c0.9,0,1.5-0.3,2-1c0.5-0.7,0.8-1.6,0.8-2.8c0-1.1-0.3-2-0.8-2.6c-0.5-0.7-1.2-1-2-1c-0.8,0-1.5,0.3-2,1
	C72.2,67.2,71.9,68.2,71.9,69.4z M84.1,69.7L83,70.8v3.5h-1.7v-14H83v8.5l0.9-1.1l3.1-3.2h2l-3.8,4.1l4.3,5.7h-2L84.1,69.7z
	 M94.7,74.4c-1.3,0-2.4-0.4-3.3-1.3c-0.8-0.9-1.2-2.1-1.2-3.5v-0.3c0-1,0.2-1.8,0.6-2.6c0.4-0.8,0.9-1.4,1.6-1.8
	c0.7-0.4,1.4-0.7,2.2-0.7c1.3,0,2.3,0.4,3,1.3c0.7,0.8,1.1,2.1,1.1,3.6v0.7h-6.7c0,1,0.3,1.8,0.8,2.4c0.6,0.6,1.2,0.9,2.1,0.9
	c0.6,0,1.1-0.1,1.5-0.4c0.4-0.2,0.8-0.6,1.1-1l1,0.8C97.6,73.8,96.3,74.4,94.7,74.4z M94.5,65.6c-0.7,0-1.2,0.2-1.7,0.8
	c-0.5,0.5-0.7,1.2-0.8,2.1h4.9v-0.1c-0.1-0.9-0.3-1.5-0.7-2C95.7,65.8,95.2,65.6,94.5,65.6z M102.1,64.4l0,1.2
	c0.8-0.9,1.7-1.4,3-1.4c2.1,0,3.1,1.2,3.2,3.5v6.5h-1.7v-6.5c0-0.7-0.2-1.2-0.5-1.6c-0.3-0.3-0.8-0.5-1.5-0.5c-0.5,0-1,0.1-1.4,0.4
	c-0.4,0.3-0.7,0.7-1,1.2v7h-1.7v-9.9H102.1z M116.5,71.6c0-0.5-0.2-0.8-0.5-1.1s-0.9-0.5-1.8-0.6c-0.9-0.2-1.5-0.4-2-0.7
	c-0.5-0.3-0.9-0.6-1.1-0.9c-0.2-0.4-0.4-0.8-0.4-1.3c0-0.8,0.3-1.5,1-2c0.7-0.6,1.6-0.8,2.6-0.8c1.1,0,2,0.3,2.7,0.9
	c0.7,0.6,1,1.3,1,2.2h-1.7c0-0.5-0.2-0.9-0.6-1.2c-0.4-0.3-0.9-0.5-1.5-0.5c-0.6,0-1.1,0.1-1.4,0.4c-0.3,0.3-0.5,0.6-0.5,1
	c0,0.4,0.2,0.7,0.5,0.9c0.3,0.2,0.9,0.4,1.7,0.6c0.8,0.2,1.5,0.4,2,0.7c0.5,0.3,0.9,0.6,1.2,0.9c0.3,0.4,0.4,0.8,0.4,1.3
	c0,0.9-0.4,1.6-1.1,2.1c-0.7,0.5-1.6,0.8-2.7,0.8c-0.8,0-1.5-0.1-2.1-0.4c-0.6-0.3-1.1-0.7-1.4-1.2s-0.5-1-0.5-1.6h1.7
	c0,0.6,0.3,1,0.7,1.3c0.4,0.3,1,0.5,1.7,0.5c0.6,0,1.1-0.1,1.5-0.4C116.3,72.4,116.5,72.1,116.5,71.6z"/>
<path class="st2" d="M80.7,111c-1.1-0.3-1.9-0.7-2.3-1.1s-0.7-1-0.7-1.7c0-0.8,0.3-1.4,0.9-1.9c0.6-0.5,1.4-0.7,2.3-0.7
	c0.6,0,1.2,0.1,1.7,0.4c0.5,0.2,0.9,0.6,1.2,1c0.3,0.4,0.4,0.9,0.4,1.4h-1.3c0-0.6-0.2-1-0.5-1.3c-0.4-0.3-0.9-0.5-1.5-0.5
	c-0.6,0-1.1,0.1-1.5,0.4c-0.3,0.3-0.5,0.6-0.5,1.1c0,0.4,0.2,0.7,0.5,1c0.3,0.3,0.9,0.5,1.7,0.7c0.8,0.2,1.4,0.5,1.9,0.7
	c0.4,0.3,0.8,0.6,1,0.9c0.2,0.4,0.3,0.8,0.3,1.2c0,0.8-0.3,1.4-0.9,1.8c-0.6,0.5-1.4,0.7-2.4,0.7c-0.7,0-1.3-0.1-1.8-0.4
	s-1-0.6-1.3-1c-0.3-0.4-0.5-0.9-0.5-1.5h1.3c0,0.6,0.2,1,0.6,1.4c0.4,0.3,1,0.5,1.7,0.5c0.7,0,1.2-0.1,1.5-0.4s0.5-0.6,0.5-1.1
	c0-0.5-0.2-0.8-0.5-1.1C82.1,111.4,81.5,111.2,80.7,111z M86.9,115.2h-1.2v-7h1.2V115.2z M85.6,106.3c0-0.2,0.1-0.4,0.2-0.5
	c0.1-0.1,0.3-0.2,0.5-0.2c0.2,0,0.4,0.1,0.5,0.2c0.1,0.1,0.2,0.3,0.2,0.5s-0.1,0.4-0.2,0.5c-0.1,0.1-0.3,0.2-0.5,0.2
	c-0.2,0-0.4-0.1-0.5-0.2C85.7,106.6,85.6,106.5,85.6,106.3z M90,114.2h4.1v1h-5.6v-0.9l3.9-5.2h-3.8v-1h5.3v0.9L90,114.2z
	 M98.2,115.3c-0.9,0-1.7-0.3-2.3-0.9c-0.6-0.6-0.9-1.5-0.9-2.5v-0.2c0-0.7,0.1-1.3,0.4-1.9c0.3-0.6,0.6-1,1.1-1.3s1-0.5,1.6-0.5
	c0.9,0,1.6,0.3,2.1,0.9c0.5,0.6,0.8,1.5,0.8,2.6v0.5h-4.8c0,0.7,0.2,1.2,0.6,1.7c0.4,0.4,0.9,0.6,1.5,0.6c0.4,0,0.8-0.1,1.1-0.2
	c0.3-0.2,0.6-0.4,0.8-0.7l0.7,0.6C100.3,114.8,99.4,115.3,98.2,115.3z M98.1,109c-0.5,0-0.9,0.2-1.2,0.5c-0.3,0.4-0.5,0.8-0.6,1.5
	h3.5v-0.1c0-0.6-0.2-1.1-0.5-1.4C99,109.2,98.6,109,98.1,109z"/>
<path class="st1" d="M89.1,221.6v32.9"/>
<path class="st9" d="M89.1,227.6v20.9"/>
<path class="st10" d="M90.8,227.6l-1.7-4.5l-1.7,4.5H90.8z"/>
<path class="st10" d="M87.5,248.5l1.7,4.5l1.7-4.5H87.5z"/>
<path class="st1" d="M68.9,222.7h40.4"/>
<path class="st11" d="M68.9,222.7h40.4"/>
<path class="st1" d="M68.9,255.6h40.4"/>
<path class="st11" d="M68.9,255.6h40.4"/>
<path class="st0" d="M806.3,71.6c0-0.5-0.2-0.8-0.5-1.1s-0.9-0.5-1.8-0.6c-0.9-0.2-1.5-0.4-2-0.7c-0.5-0.3-0.9-0.6-1.1-0.9
	c-0.2-0.4-0.4-0.8-0.4-1.3c0-0.8,0.3-1.5,1-2c0.7-0.6,1.6-0.8,2.6-0.8c1.1,0,2,0.3,2.7,0.9c0.7,0.6,1,1.3,1,2.2h-1.7
	c0-0.5-0.2-0.9-0.6-1.2c-0.4-0.3-0.9-0.5-1.5-0.5c-0.6,0-1.1,0.1-1.4,0.4c-0.3,0.3-0.5,0.6-0.5,1c0,0.4,0.2,0.7,0.5,0.9
	c0.3,0.2,0.9,0.4,1.7,0.6c0.8,0.2,1.5,0.4,2,0.7c0.5,0.3,0.9,0.6,1.2,0.9c0.3,0.4,0.4,0.8,0.4,1.3c0,0.9-0.4,1.6-1.1,2.1
	c-0.7,0.5-1.6,0.8-2.7,0.8c-0.8,0-1.5-0.1-2.1-0.4c-0.6-0.3-1.1-0.7-1.4-1.2s-0.5-1-0.5-1.6h1.7c0,0.6,0.3,1,0.7,1.3
	c0.4,0.3,1,0.5,1.7,0.5c0.6,0,1.1-0.1,1.5-0.4C806.1,72.4,806.3,72.1,806.3,71.6z"/>
</svg>
