<?xml version="1.0" encoding="utf-8"?>
<!-- Generator: Adobe Illustrator 26.0.3, SVG Export Plug-In . SVG Version: 6.00 Build 0)  -->
<svg version="1.1" id="Layer_1" xmlns="http://www.w3.org/2000/svg" xmlns:xlink="http://www.w3.org/1999/xlink" x="0px" y="0px"
	 viewBox="0 0 256 256" style="enable-background:new 0 0 256 256;" xml:space="preserve">
<g>
	<path d="M162.3,85H93.7c-23.8,0-43.1,19.2-43.1,43s19.3,43,43.1,43h68.7c23.8,0,43.1-19.2,43.1-43S186.1,85,162.3,85L162.3,85z
		 M162.3,165.3H93.7c-20.6,0-37.3-16.7-37.3-37.3s16.8-37.3,37.3-37.3h68.7c20.6,0,37.3,16.7,37.3,37.3S182.9,165.3,162.3,165.3
		L162.3,165.3z"/>
	<path d="M96.2,98.3c-16.4,0-29.7,13.3-29.7,29.7s13.3,29.7,29.7,29.7s29.7-13.3,29.7-29.7S112.6,98.3,96.2,98.3z M96.2,152
		c-13.2,0-24-10.8-24-24s10.8-24,24-24c13.2,0,24,10.8,24,24S109.4,152,96.2,152z"/>
</g>
</svg>
