<svg xmlns="http://www.w3.org/2000/svg" viewBox="0 0 255.61 256" fill="white">
  <g>
    <path d="M246.28,19.62,235.73,9.33a31.7,31.7,0,0,0-44.92,0L163.48,36.66,152.12,25.3a26.13,26.13,0,0,0-37.07,0l-13,13a26.13,26.13,0,0,0,0,37.07l11.36,11.36L16.29,183.86A38.78,38.78,0,0,0,5.73,219.57a31.75,31.75,0,0,0,2.68,7.55L0,235.53,20.47,256l8.87-8.87a37.48,37.48,0,0,0,6.7,2.48,38.79,38.79,0,0,0,35.72-10.55l97.13-97.14,11.37,11.36a26.13,26.13,0,0,0,37.07,0l13-13a26.13,26.13,0,0,0,0-37.07L219,91.86l27.33-27.33A31.67,31.67,0,0,0,246.28,19.62ZM58,225.53a19.71,19.71,0,0,1-27.87-27.87l97.13-97.14,27.87,27.87Zm158.83-98.76-13,13a6.85,6.85,0,0,1-9.74,0l-78.2-78.19a6.85,6.85,0,0,1,0-9.74l13-13a6.85,6.85,0,0,1,9.74,0l78.2,78.2A6.87,6.87,0,0,1,216.79,126.77ZM232.48,51,205.15,78.33,177.28,50.46l27.33-27.33a12.42,12.42,0,0,1,17.59,0l10.28,10.29A12.4,12.4,0,0,1,232.48,51Z"/>
  </g>
</svg>
