<?xml version="1.0" encoding="utf-8"?>
<!-- Generator: Adobe Illustrator 26.0.3, SVG Export Plug-In . SVG Version: 6.00 Build 0)  -->
<svg version="1.1" id="Layer_1" xmlns="http://www.w3.org/2000/svg" xmlns:xlink="http://www.w3.org/1999/xlink" x="0px" y="0px"
	 viewBox="0 0 260 256" style="enable-background:new 0 0 260 256;" xml:space="preserve">
<path d="M224.8,217.9c-0.6,0-1.2-0.2-1.7-0.5c-1.1-0.7-1.8-1.8-1.8-3.1v-13.1H38.6v13.1c0,1.2-0.7,2.4-1.8,3.1
	c-0.5,0.3-1.1,0.5-1.7,0.5s-1.2-0.2-1.7-0.5c-1.1-0.7-1.8-1.8-1.8-3.1v-13.1H18.4c-1.2,0-2.4-0.7-3.1-1.8c-0.6-1.1-0.6-2.4,0-3.5
	c0.7-1.1,1.8-1.8,3.1-1.8h13.1V61.6H18.4c-1.2,0-2.4-0.7-3.1-1.8c-0.6-1.1-0.6-2.4,0-3.5c0.7-1.1,1.8-1.8,3.1-1.8h13V41.3
	c0-1.2,0.7-2.4,1.8-3.1c0.5-0.3,1.1-0.5,1.7-0.5c0.6,0,1.2,0.2,1.7,0.5c1.1,0.7,1.8,1.8,1.8,3.1v13.1H221V41.3
	c0-1.2,0.7-2.4,1.8-3.1c0.5-0.3,1.1-0.5,1.7-0.5s1.2,0.2,1.7,0.5c1.1,0.7,1.8,1.8,1.8,3.1v13h13.1c1.2,0,2.4,0.7,3.1,1.8
	c0.6,1.1,0.6,2.4,0,3.5c-0.7,1.1-1.8,1.8-3.1,1.8h-13.1v132.6h13.1c1.3,0,2.6,0.7,3.3,1.9c0.6,1,0.6,2.4,0,3.4
	c-0.7,1.1-1.8,1.8-3.1,1.8h-13.1v13.1c0,1.2-0.7,2.4-1.8,3.1C226,217.7,225.4,217.9,224.8,217.9z M38.5,194.1h182.6V61.4H38.5V194.1
	z"/>
<path d="M69.2,166c-0.9,0-1.8-0.4-2.5-1s-1-1.6-1-2.5V93.2c0-0.9,0.4-1.8,1-2.5c0.6-0.6,1.6-1,2.5-1h121.4c0.9,0,1.8,0.4,2.5,1
	c0.6,0.6,1,1.6,1,2.5v69.4c0,0.9-0.4,1.8-1,2.5c-0.6,0.6-1.5,1-2.5,1H69.2z M72.8,159h114.3V96.7H72.8V159z"/>
<path d="M128.4,148.9H86.4c-2,0-3.5-1.6-3.5-3.5l0,0c0-2,1.6-3.5,3.5-3.5h42.1c2,0,3.5,1.6,3.5,3.5l0,0
	C132,147.3,130.4,148.9,128.4,148.9z"/>
</svg>
