<?xml version="1.0" encoding="utf-8"?>
<svg version="1.1" id="Layer_1" xmlns="http://www.w3.org/2000/svg" xmlns:xlink="http://www.w3.org/1999/xlink" x="0px" y="0px"
	 viewBox="0 0 700 700" style="enable-background:new 0 0 700 700;" xml:space="preserve">
	<path d="M139.2,439.7c-8.3,0-16.2,3.3-22.1,9.1c-5.9,5.9-9.1,13.8-9.1,22.1v31.2c0,24.8,9.9,48.7,27.4,66.2
		c17.6,17.6,41.4,27.4,66.2,27.4h296.6c24.8,0,48.7-9.9,66.2-27.4c17.6-17.6,27.4-41.4,27.4-66.2v-31.2c0-11.2-6-21.5-15.6-27
		c-9.7-5.6-21.6-5.6-31.2,0c-9.7,5.6-15.6,15.9-15.6,27v31.2c0,8.3-3.3,16.2-9.1,22.1c-5.9,5.9-13.8,9.1-22.1,9.1H201.7
		c-8.3,0-16.2-3.3-22.1-9.1c-5.9-5.9-9.1-13.8-9.1-22.1v-31.2c0-8.3-3.3-16.2-9.1-22.1C155.5,443,147.5,439.7,139.2,439.7
		L139.2,439.7z"/>
	<path d="M350,96.2c-8.3,0-16.2,3.3-22.1,9.1c-5.9,5.9-9.1,13.8-9.1,22.1v229l-46.8-46.8c-5.2-5.5-12.2-8.9-19.7-9.8
		c-7.5-0.9-15.1,0.9-21.4,5c-7.6,5.3-12.5,13.7-13.3,22.9c-0.8,9.2,2.5,18.3,9,24.9l75.3,75.1c12.8,12.8,30.2,20,48.3,20
		c18.1,0,35.5-7.2,48.3-20l75.3-75.1c6.6-6.5,9.9-15.7,9-24.9c-0.8-9.2-5.7-17.6-13.3-22.9c-6.3-4.1-13.9-5.9-21.4-5
		c-7.5,0.9-14.5,4.4-19.7,9.8l-46.8,46.8v-229c0-8.3-3.3-16.3-9.2-22.1C366.3,99.4,358.3,96.2,350,96.2L350,96.2z"/>
</svg>
