<?xml version="1.0" encoding="utf-8"?>
<!-- Generator: Adobe Illustrator 26.0.3, SVG Export Plug-In . SVG Version: 6.00 Build 0)  -->
<svg version="1.1" id="Layer_1" xmlns="http://www.w3.org/2000/svg" xmlns:xlink="http://www.w3.org/1999/xlink" x="0px" y="0px"
	 viewBox="0 0 256 256" style="enable-background:new 0 0 256 256;" xml:space="preserve">
<path d="M146.9,211.8c-17.8,0-39.2-31.6-50.8-75.2c-5.8-21.8-8.2-43.2-6.6-60.2c1.6-18,7.4-29.2,16.5-31.6c1.3-0.4,2.6-0.5,3.8-0.5
	c17.8,0,39.2,31.6,50.8,75.2c5.8,21.8,8.2,43.2,6.6,60.2c-1.7,18-7.6,29.2-16.8,31.7C149.5,211.6,148.4,211.8,146.9,211.8z
	 M109.9,50.1c-0.8,0-1.5,0.1-2.2,0.2c-6.6,1.8-11.1,11.5-12.5,26.7c-1.5,16.6,0.8,37.3,6.5,58.3c5.4,20.1,13.3,38.4,22.1,51.7
	c8.2,12.2,16.6,19.2,23.1,19.2c0.8,0,1.5-0.1,2.2-0.2c6.6-1.8,11.1-11.5,12.5-26.7c1.5-16.6-0.8-37.3-6.5-58.3
	c-5.3-20.1-13.2-38.4-22.1-51.7C124.9,57,116.4,50.1,109.9,50.1z"/>
<path d="M166.3,166.3c-14.2,0-30-2-45.5-5.7c-22-5.2-42-13.2-56.2-22.6c-15.1-10-22.2-20.5-20-29.7c2.8-11.8,19.5-18.5,46.1-18.5
	c14.2,0,30,2,45.5,5.7c47.8,11.3,80.6,33.8,76.3,52.3C209.6,159.5,192.8,166.3,166.3,166.3z M90.7,95.5c-22.5,0-38.4,5.5-40.5,14
	c-1.5,6.7,4.7,15.1,17.5,23.6c13.8,9,33.1,16.8,54.3,21.9c15.3,3.6,30.6,5.5,44.2,5.5c22.5,0,38.4-5.5,40.5-14
	c1.5-6.5-4.9-15.1-17.7-23.6c-13.7-9.1-33-16.8-54.2-21.8C119.5,97.5,104.3,95.5,90.7,95.5z"/>
<path d="M82.8,196.4c-4.9,0-8.7-1.3-11.8-4c-11.4-10.1-4.8-36.4,16.7-67c0.1-0.2,0.3-0.4,0.5-0.6c2.1-2.5,4.4-5.2,6.8-8
	c8.7-10.3,18.7-22,27.1-29.6c13.1-11.9,25.1-19.8,36.8-24.4c3.7-1.4,9.3-3.2,15-3.2c4.9,0,8.9,1.3,11.9,3.9
	c9.7,8.6,4.5,24.3,2.3,31.1c-5.4,17-17.1,35.8-34.7,55.6c-14.9,16.8-31.5,30.5-46.7,38.6C97.5,193.9,89.5,196.4,82.8,196.4z
	 M173.8,65.6c-3.7,0-8.2,1-12.7,2.7c-11.3,4.4-22.8,12-35.2,23.2c-8.5,7.6-19,20.1-27.4,30.1c-2.1,2.5-4.1,4.9-5.9,7l-0.1,0.2
	c-18.9,26.7-26.2,51.6-17.5,59.3c1.9,1.7,4.6,2.6,8,2.6c5.6,0,12.8-2.3,21.1-6.8c14.5-7.8,30.5-21,45.1-37.4
	c16.9-19,28.2-36.9,33.6-53.4c3.1-9.8,5.2-19.6-0.7-25C180,66.4,177.3,65.6,173.8,65.6z"/>
</svg>
