<?xml version="1.0" encoding="utf-8"?>
<!-- Generator: Adobe Illustrator 26.0.3, SVG Export Plug-In . SVG Version: 6.00 Build 0)  -->
<svg version="1.1" id="Layer_1" xmlns="http://www.w3.org/2000/svg" xmlns:xlink="http://www.w3.org/1999/xlink" x="0px" y="0px"
	 viewBox="0 0 60 60" style="enable-background:new 0 0 60 60;" xml:space="preserve">
<g>
	<path d="M50.4,59.7H10.1c-2.2-0.1-4-2-4-4.2V8.7c0-2.2,1.8-4.1,4-4.2h8.3v4.3h-8.1v46.6h39.4V8.8h-8.1V4.4h8.8
		c2.1,0,3.6,1.8,3.6,4.2v46.8C54,58,52.5,59.7,50.4,59.7z"/>
	<rect x="19.2" y="32.6" width="21.6" height="4.3"/>
	<path d="M39.8,13.4H20.4c-2.3,0-4.1-1.8-4.1-4.1V4.1c0-2.3,1.8-4.1,4.1-4.1h19.4c2.3,0,4.1,1.8,4.1,4.1v5.2
		C43.9,11.5,42.1,13.4,39.8,13.4z M20.6,9.1h18.9V4.3H20.6V9.1z"/>
	<rect x="27.8" y="24" width="4.3" height="21.6"/>
</g>
</svg>
