<svg xmlns="http://www.w3.org/2000/svg" viewBox="0 0 128 128">
  <g id="Layer_2" data-name="Layer 2">
    <g id="Layer_1-2" data-name="Layer 1">
      <g>
        <path d="M75.74,62.27C69.79,77.18,47,88.93,38.36,92.92a30.21,30.21,0,0,0,5.27,3.17l.28.13c.48-.17,2.44-.91,5.28-2.22a3.09,3.09,0,0,1,1.16-.54C60,88.85,77.73,78.48,85,61.69c7.41-17-.45-27.59-3-30.44a16.85,16.85,0,0,0-10.82-5.76l.06.06C80.22,34.55,80.3,50.84,75.74,62.27Z"/>
        <path d="M104.41,64.26A41.48,41.48,0,0,1,100,76.47c2.42,0,5.52-.5,6.68-2.65a7.74,7.74,0,0,0,.3-7,5.38,5.38,0,0,0-2.52-2.55Z"/>
        <path d="M63.83,92.67h0a148.14,148.14,0,0,0,15.56-2.17l.13,0c3.59-1,16.59-13.6,19-27.2,1.2-6.63-.33-12.38-4.55-17.15a39.2,39.2,0,0,1-3.5,17.81C85.83,74.68,76.6,84.62,63.83,92.67Z"/>
        <path d="M5.28,30.58a85.89,85.89,0,0,0,19.9,32A81,81,0,0,0,37.35,72.92a80,80,0,0,0,9.77-7.15c-9.43-4.92-17.93-13.15-24.7-23.95A93.21,93.21,0,0,1,10.76,14C9.32,7.43,7.35,3.94,6,2.15S3.33,0,3.14,0C1.87.62.66,1.21.18,4.36-.59,9.45,1.13,18.27,5.28,30.58Z"/>
        <path d="M26.25,36.75a.08.08,0,0,0,0,0q.6,1,1.23,2c6.64,10.59,15,18.43,24.15,22.72,1.19-1.21,2.38-2.5,3.53-3.87A17.49,17.49,0,0,0,57.06,55c-3.55-1.62-21.45-10.58-23.92-28.21-.06-.46-.11-.9-.16-1.33a2.48,2.48,0,0,1-.07-.61A44.56,44.56,0,0,1,34.16,9c1.06-4.64,1.35-5.89-1.85-8.28A4.59,4.59,0,0,0,29,2C26.21,4.42,22.22,12.18,26.25,36.75Z"/>
        <path d="M118.18,125.42c-1.31-6.65-8.72-12-20.86-14.93-8.29-2-15.67-2.3-22.82-2.55-10.34-.37-21-.76-33.5-6.7C29.52,95.77,25.2,87.12,23.59,80.82a32,32,0,0,1-.73-12.32c-.61-.58-1.22-1.19-1.85-1.83a93.22,93.22,0,0,1-6.53-7.39c-4.43,17.21.67,29.39,6,36.73a46.75,46.75,0,0,0,35.1,18.77c26,1.21,41.87,4.45,49.89,10.2,5,3.56,10,3.47,11.93,2.28A1.54,1.54,0,0,0,118.18,125.42Z"/>
        <path d="M55.31,34.13c-2.54-.09-8.06.08-11.69,2.89a33.79,33.79,0,0,0,4.45,5,16.77,16.77,0,0,1,9.67-2.55A30.66,30.66,0,0,0,55.31,34.13Z"/>
        <path d="M39.17,26.79A23.38,23.38,0,0,0,40.71,32C47.5,27.36,57,28.47,57.43,28.52a3,3,0,0,1,2.08,1.23A34.73,34.73,0,0,1,64.11,40c2.1,8.07.6,15.43-4.34,21.29A81.65,81.65,0,0,1,30.57,83a23,23,0,0,0,3.31,5.57c5.66-2.51,30.7-14.3,36.32-28.4C74,50.7,74.14,36.73,67,29.54,61.39,24,51.8,23,39.17,26.79Z"/>
        <path d="M127.68,101.78c.61-.86.45-2.47-1.35-3.94-3.46-2.85-14-11.51-35.72-4.29C76.09,98.37,56.43,99,52,99.12l-.25.11c8,2.42,15.35,2.69,23,3,4.52.16,9.14.33,14.06.92a3.06,3.06,0,0,1,.67-.28l1.47-.41c11.68-3.26,20.11-5.62,28.77-1.17C123.91,103.42,126.79,103.05,127.68,101.78Z"/>
        <path d="M11.09,91.63A45.91,45.91,0,0,1,7.38,79.11,55.43,55.43,0,0,1,9.9,53.81a2.5,2.5,0,0,1,.21-.48c-1.27-1.87-2.52-3.85-3.72-6-3.55,8.36-9.74,26-3.95,36.89A15.73,15.73,0,0,0,11.09,91.63Z"/>
        <path d="M28.93,77.43c.73-.32,1.68-.77,2.82-1.35-.92-.68-2-1.51-3.22-2.52A26.45,26.45,0,0,0,28.93,77.43Z"/>
        <path d="M59,45.52A8.68,8.68,0,0,0,53,46a48.14,48.14,0,0,0,5.89,3.47A18.28,18.28,0,0,0,59,45.52Z"/>
      </g>
    </g>
  </g>
</svg>
