<svg fill="none" height="24" viewBox="0 0 24 24" width="24" xmlns="http://www.w3.org/2000/svg"><g fill="#000"><path d="m10.7759 10.366c0-.55226-.4477-.99998-1.00002-.99998-.55229 0-1 .44772-1 .99998v7.9956c0 .5523.44771 1 1 1 .55232 0 1.00002-.4477 1.00002-1z"/><path d="m14.2224 9.36602c.5523 0 1 .44772 1 .99998v7.9956c0 .5523-.4477 1-1 1s-1-.4477-1-1v-7.9956c0-.55226.4477-.99998 1-.99998z"/><path clip-rule="evenodd" d="m17.4993 5.80451h2.5007c.5523 0 1 .44771 1 1 0 .55228-.4477 1-1 1h-.5509v11.69439c0 1.6569-1.3431 3-3 3h-8.89856c-1.65686 0-3-1.3431-3-3v-11.69439h-.55054c-.55228 0-1-.44772-1-1 0-.55229.44772-1 1-1h2.50002v-1.30353c0-1.65686 1.34314-3 3-3h4.99928c1.6568 0 3 1.34314 3 3zm-2 0v-1.30353c0-.55229-.4477-1-1-1h-4.99928c-.55229 0-1 .44771-1 1v1.30353zm1.9498 2.00302h-10.89856v11.69137c0 .5523.44771 1 1 1h8.89856c.5523 0 1-.4477 1-1z" fill-rule="evenodd"/></g></svg>