<svg fill="none" height="24" viewBox="0 0 24 24" width="24" xmlns="http://www.w3.org/2000/svg"><path d="m20.5 19.7001c0 .441-.358.8-.8.8h-5.4c-.442 0-.8-.359-.8-.8v-1.95h1.116c1.544 0 2.801-1.256 2.801-2.8v-1.45h2.283c.442 0 .8.358.8.8zm-12.083-4.75v-2.45h1.283c1.544 0 2.8-1.256 2.8-2.80004v-.95h2.116c.442 0 .801.359.801.8v5.40004c0 .441-.359.8-.801.8h-5.399c-.442 0-.8-.359-.8-.8zm-4.917-5.25004v-5.4c0-.441.359-.8.8-.8h5.4c.441 0 .8.359.8.8v5.4c0 .44104-.359.80004-.8.80004h-5.4c-.441 0-.8-.359-.8-.80004zm16.2 1.80004h-2.283v-1.95004c0-1.544-1.257-2.8-2.801-2.8h-2.116v-2.45c0-1.544-1.256-2.8-2.8-2.8h-5.4c-1.544 0-2.8 1.256-2.8 2.8v5.4c0 1.54404 1.256 2.80004 2.8 2.80004h2.117v2.45c0 1.544 1.256 2.8 2.8 2.8h2.283v1.95c0 1.544 1.256 2.8 2.8 2.8h5.4c1.544 0 2.8-1.256 2.8-2.8v-5.4c0-1.544-1.256-2.8-2.8-2.8z" fill="#fff"/><path d="m20.5 19.6189c0 .441-.358.8-.8.8h-5.4c-.442 0-.8-.359-.8-.8v-1.95h1.116c1.544 0 2.801-1.256 2.801-2.8v-1.45h2.283c.442 0 .8.358.8.8zm-12.083-4.75v-2.45h1.283c1.544 0 2.8-1.256 2.8-2.79995v-.95h2.116c.442 0 .801.359.801.8v5.39995c0 .441-.359.8-.801.8h-5.399c-.442 0-.8-.359-.8-.8zm-4.917-5.24995v-5.4c0-.441.359-.8.8-.8h5.4c.441 0 .8.359.8.8v5.4c0 .44095-.359.79995-.8.79995h-5.4c-.441 0-.8-.359-.8-.79995zm16.2 1.79995h-2.283v-1.94995c0-1.544-1.257-2.8-2.801-2.8h-2.116v-2.45c0-1.544-1.256-2.8-2.8-2.8h-5.4c-1.544 0-2.8 1.256-2.8 2.8v5.4c0 1.54395 1.256 2.79995 2.8 2.79995h2.117v2.45c0 1.544 1.256 2.8 2.8 2.8h2.283v1.95c0 1.544 1.256 2.8 2.8 2.8h5.4c1.544 0 2.8-1.256 2.8-2.8v-5.4c0-1.544-1.256-2.8-2.8-2.8z" fill="#000"/></svg>