<svg fill="none" height="16" viewBox="0 0 16 16" width="16" xmlns="http://www.w3.org/2000/svg"><g fill="#000"><path d="m1.36499 4c.55228 0 1-.44772 1-1s-.44772-1-1-1c-.552284 0-1 .44772-1 1s.447716 1 1 1z"/><path d="m3.36499 3c0-.55228.44772-1 1-1h10.27001c.5523 0 1 .44772 1 1s-.4477 1-1 1h-10.27001c-.55228 0-1-.44772-1-1z"/><path d="m4.36499 7c-.55228 0-1 .44772-1 1s.44772 1 1 1h10.27001c.5523 0 1-.44772 1-1s-.4477-1-1-1z"/><path d="m4.36499 12c-.55228 0-1 .4477-1 1s.44772 1 1 1h10.27001c.5523 0 1-.4477 1-1s-.4477-1-1-1z"/><path d="m2.36499 8c0 .55228-.44772 1-1 1-.552284 0-1-.44772-1-1s.447716-1 1-1c.55228 0 1 .44772 1 1z"/><path d="m1.36499 14c.55228 0 1-.4477 1-1s-.44772-1-1-1c-.552284 0-1 .4477-1 1s.447716 1 1 1z"/></g></svg>