<svg fill="none" height="24" viewBox="0 0 24 24" width="24" xmlns="http://www.w3.org/2000/svg"><g clip-rule="evenodd" fill="#000" fill-rule="evenodd"><path d="m16.5002 12c0 2.4853-2.0147 4.5-4.5 4.5-2.48524 0-4.49996-2.0147-4.49996-4.5 0-2.48528 2.01472-4.5 4.49996-4.5 2.4853 0 4.5 2.01472 4.5 4.5zm-2 0c0 1.3807-1.1192 2.5-2.5 2.5-1.3807 0-2.49996-1.1193-2.49996-2.5s1.11926-2.5 2.49996-2.5c1.3808 0 2.5 1.1193 2.5 2.5z"/><path d="m16.0033 3.5v.43552c.3407.1692.6692.35933.9838.5687l.3799-.21917c1.4351-.82796 3.2705-.33617 4.0994 1.09844l1.0013 1.73304c.8289 1.4346.3375 3.26877-1.0977 4.09677l-.3805.2195c.0117.1875.0176.3767.0176.5672s-.0059.3797-.0176.5672l.3805.2196c1.4352.8279 1.9266 2.6621 1.0977 4.0967l-1.0013 1.733c-.8289 1.4346-2.6643 1.9264-4.0994 1.0985l-.3799-.2192c-.3146.2094-.6431.3995-.9838.5687v.4355c0 1.6569-1.3431 3-3 3h-2.0061c-1.65683 0-2.99998-1.3431-2.99998-3v-.4355c-.34075-.1692-.66925-.3594-.98382-.5687l-.37998.2192c-1.43515.8279-3.27052.3361-4.09942-1.0985l-1.00133-1.733c-.828901-1.4346-.33744-3.2688 1.09771-4.0967l.38063-.2196c-.01167-.1876-.01759-.3767-.01759-.5672s.00592-.3796.01759-.5672l-.38063-.2195c-1.43515-.828-1.92661-2.66217-1.09771-4.09678l1.00133-1.73304c.8289-1.4346 2.66427-1.92639 4.09942-1.09843l.37997.2192c.31457-.20938.64308-.39952.98383-.56873v-.43552c0-1.65685 1.34314-3 2.99998-3h2.0061c1.6569 0 3 1.34315 3 3zm-7.11656 2.22682 1.11048-.55144v-1.67538c0-.55228.44768-1 .99998-1h2.0061c.5523 0 1 .44772 1 1v1.67538l1.1105.55144c.2648.13149.5203.27935.7651.44232l1.0329.68748 1.4546-.83919c.4788-.27624 1.0917-.11202 1.3683.36663l1.0013 1.73304c.276.47775.1125 1.08804-.3654 1.36377l-1.4542.83893.077 1.2372c.0091.1463.0137.294.0137.443s-.0046.2968-.0137.443l-.077 1.2372 1.4542.8389c.4779.2758.6414.8861.3654 1.3638l-1.0013 1.7331c-.2766.4786-.8895.6428-1.3683.3666l-1.4546-.8392-1.0329.6875c-.2448.1629-.5003.3108-.7651.4423l-1.1105.5514v1.6754c0 .5523-.4477 1-1 1h-2.0061c-.5523 0-.99998-.4477-.99998-1v-1.6754l-1.11048-.5514c-.26481-.1315-.52031-.2794-.76516-.4424l-1.03288-.6875-1.45471.8393c-.47882.2762-1.09171.112-1.36827-.3666l-1.00133-1.7331c-.27604-.4777-.11252-1.088.36542-1.3638l1.45433-.839-.07699-1.2372c-.0091-.1462-.01373-.2939-.01373-.4429s.00463-.2967.01373-.4429l.07699-1.2372-1.45433-.83903c-.47793-.27573-.64146-.88602-.36542-1.36378l1.00133-1.73304c.27656-.47864.88944-.64286 1.36827-.36662l1.4547.83923 1.03288-.68749c.24485-.16298.50036-.31085.76517-.44235z"/></g></svg>