<svg fill="none" height="24" viewBox="0 0 24 24" width="24" xmlns="http://www.w3.org/2000/svg"><path clip-rule="evenodd" d="m4.45925 3.23542c2.15127-1.4272 4.89076-1.6322 7.23095-.54012l.9094.4244c1.8565.86636 3.9943.90028 5.8773.09327l.1292-.05537c.3089-.13241.6638-.10074.9444.0843.2806.18505.4495.4987.4495.83485v10.99995c0 .4001-.2384.7616-.6061.9192l-.1292.0554c-2.4064 1.0313-5.1384.9879-7.5109-.1192l-.9094-.4244c-1.55446-.7255-3.35024-.667-4.8444.1341v5.4349c0 .5523-.44772 1-1 1s-1-.4477-1-1v-16.99995c0-.35306.18297-.66339.45925-.84133zm1.54075 1.40638c1.49416-.80112 3.28994-.85955 4.8444-.13414l.9094.42441c1.9652.91708 4.177 1.10428 6.2462.55539v8.91014c-1.7613.6109-3.699.5161-5.4004-.2779l-.9094-.4244c-1.81017-.8447-3.85925-.9134-5.6902-.2407z" fill="#000" fill-rule="evenodd"/></svg>