<svg fill="none" height="24" viewBox="0 0 24 24" width="24" xmlns="http://www.w3.org/2000/svg"><g fill="#000"><path d="m16 1c0-.552285.4477-1 1-1 3.866 0 7 3.13401 7 7 0 .55228-.4477 1-1 1s-1-.44772-1-1c0-2.76142-2.2386-5-5-5-.5523 0-1-.44772-1-1z"/><path d="m3 6c-.55228 0-1 .44772-1 1v13c0 .5523.44772 1 1 1h14c.5523 0 1-.4477 1-1v-8.625c0-.5523.4477-1 1-1s1 .4477 1 1v8.625c0 1.6569-1.3431 3-3 3h-14c-1.65685 0-3-1.3431-3-3v-13c0-1.65685 1.34315-3 3-3h10c.5523 0 1 .44772 1 1s-.4477 1-1 1z"/><path d="m4 9c0-.55228.44772-1 1-1h10c.5523 0 1 .44772 1 1s-.4477 1-1 1h-10c-.55228 0-1-.44772-1-1z"/><path d="m16.5 4c-.5523 0-1 .44772-1 1s.4477 1 1 1c.8284 0 1.5.67157 1.5 1.5 0 .55228.4477 1 1 1s1-.44772 1-1c0-1.933-1.567-3.5-3.5-3.5z"/><path clip-rule="evenodd" d="m6 12c-1.10457 0-2 .8954-2 2v3c0 1.1046.89543 2 2 2h8c1.1046 0 2-.8954 2-2v-3c0-1.1046-.8954-2-2-2zm0 2h8v3h-8z" fill-rule="evenodd"/></g></svg>