<svg fill="none" height="24" viewBox="0 0 24 24" width="24" xmlns="http://www.w3.org/2000/svg"><path d="m10.7208 2.97044c.4026-1.29392 2.1558-1.29392 2.5584 0l1.4386 4.62312c.1801.57865.6965.97044 1.2792.97044h4.6554c1.303 0 1.8447 1.741.7906 2.5406l-3.7663 2.8573c-.4714.3576-.6687.9915-.4886 1.5702l1.4386 4.6231c.4026 1.2939-1.0157 2.3699-2.0698 1.5702l-3.7663-2.8572c-.4714-.3577-1.1098-.3577-1.5812 0l-3.76629 2.8572c-1.05411.7997-2.47242-.2763-2.06978-1.5702l1.4386-4.6231c.18006-.5787-.0172-1.2126-.48861-1.5702l-3.7663-2.8573c-1.05412-.7996-.51237-2.5406.79059-2.5406h4.6554c.5827 0 1.09913-.39179 1.2792-.97044z" fill="#000"/></svg>