<svg fill="none" height="24" viewBox="0 0 24 24" width="24" xmlns="http://www.w3.org/2000/svg"><g fill="#000"><path d="m7.0625 13.2372c-.55228 0-1 .4477-1 1s.44772 1 1 1h9.875c.5523 0 1-.4477 1-1s-.4477-1-1-1z"/><path clip-rule="evenodd" d="m5.31079 5c0-1.10457.89543-2 2-2h9.37841c1.1046 0 2 .89543 2 2v4.80742c1.5687.09763 2.8108 1.40088 2.8108 2.99418v5.1984c0 1.6569-1.3431 3-3 3h-13c-1.65685 0-3-1.3431-3-3v-5.1984c0-1.5934 1.24209-2.89655 2.81079-2.99418zm11.37841 0v4.80155h-9.37841v-4.80155zm1.8108 6.8016h-13c-.55229 0-1 .4477-1 1v5.1984c0 .5523.44772 1 1 1h13c.5523 0 1-.4477 1-1v-5.1984c0-.5523-.4477-1-1-1z" fill-rule="evenodd"/></g></svg>