<svg fill="none" height="16" viewBox="0 0 16 16" width="16" xmlns="http://www.w3.org/2000/svg"><path d="m12.2895 13.7035c.3905.3906 1.0237.3906 1.4142 0 .3905-.3905.3905-1.0237 0-1.4142l-4.29118-4.29118 4.29098-4.29101c.3906-.39053.3906-1.02369 0-1.41422-.3905-.39052-1.0237-.39052-1.4142 0l-4.291 4.29102-4.29101-4.29102c-.39052-.39052-1.02369-.39052-1.41421 0-.39053.39053-.39053 1.02369 0 1.41422l4.29101 4.29101-4.2912 4.29118c-.39052.3905-.39052 1.0237 0 1.4142.39053.3906 1.02369.3906 1.41422 0l4.29119-4.29117z" fill="#000"/></svg>