<svg fill="none" height="16" viewBox="0 0 16 16" width="16" xmlns="http://www.w3.org/2000/svg"><g fill="#000"><path d="m3.9952 7.99998c0 .7373-.5977 1.335-1.335 1.335s-1.335-.5977-1.335-1.335.5977-1.335 1.335-1.335 1.335.5977 1.335 1.335z"/><path d="m9.33504 7.99998c0 .7373-.5977 1.335-1.335 1.335s-1.335-.5977-1.335-1.335.5977-1.335 1.335-1.335 1.335.5977 1.335 1.335z"/><path d="m13.3399 9.33498c.7373 0 1.335-.5977 1.335-1.335s-.5977-1.335-1.335-1.335-1.335.5977-1.335 1.335.5977 1.335 1.335 1.335z"/></g></svg>