<svg fill="none" height="24" viewBox="0 0 24 24" width="24" xmlns="http://www.w3.org/2000/svg"><path d="m18.2186 1.53869c.5557-.555665 1.4566-.555665 2.0123 0l2.2304 2.2304c.5556.55567.5556 1.45658 0 2.01224l-12.0735 12.07347c-.55562.5556-1.45653.5556-2.01219 0l-2.23041-2.2304c-.55566-.5557-.55566-1.4566 0-2.0123zm-14.60462 14.92931c.08592-.2429.29014-.429.53761-.4934.24854-.0654.50598.0012.68004.1752l3.01836 3.0184c.17506.175.24058.4315.17617.681-.06436.2475-.25147.4507-.49335.5376l-4.69116 1.6728c-.5306.1886-1.089-.3698-.90047-.9004z" fill="#000"/></svg>