<svg fill="none" height="16" viewBox="0 0 16 16" width="16" xmlns="http://www.w3.org/2000/svg"><path clip-rule="evenodd" d="m3.9952 7.99998c0 .7373-.5977 1.335-1.335 1.335s-1.335-.5977-1.335-1.335.5977-1.335 1.335-1.335 1.335.5977 1.335 1.335zm5.33984 0c0 .7373-.5977 1.335-1.335 1.335s-1.335-.5977-1.335-1.335.5977-1.335 1.335-1.335 1.335.5977 1.335 1.335zm4.00486 1.335c.7373 0 1.335-.5977 1.335-1.335s-.5977-1.335-1.335-1.335-1.335.5977-1.335 1.335.5977 1.335 1.335 1.335z" fill="#000" fill-rule="evenodd"/></svg>