<svg fill="none" height="24" viewBox="0 0 24 24" width="24" xmlns="http://www.w3.org/2000/svg"><g fill="#000"><path d="m17 0c2.1422 0 3.8911 1.68397 3.9951 3.80036l.0049.19964v4c0 .55229-.4477 1-1 1-.5128 0-.9355-.38604-.9933-.88338l-.0067-.11662v-4c0-1.05436-.8159-1.91817-1.8507-1.99451l-.1493-.00549h-10c-1.05436 0-1.91817.81588-1.99451 1.85074l-.00549.14926v1.5h1.5c.55228 0 1 .44772 1 1 0 .51284-.38604.93551-.88338.99327l-.11662.00673h-1.5v7h1.5c.55228 0 1 .4477 1 1 0 .5128-.38604.9355-.88338.9933l-.11662.0067h-1.5v1.5c0 1.0544.81588 1.9182 1.85074 1.9945l.14926.0055h2c.55229 0 1 .4477 1 1 0 .5128-.38604.9355-.88338.9933l-.11662.0067h-2c-2.1422 0-3.89108-1.684-3.9951-3.8004l-.0049-.1996v-1.5h-1.5c-.552285 0-1-.4477-1-1 0-.5128.38604-.9355.88338-.9933l.11662-.0067h1.5v-7h-1.5c-.552285 0-1-.44772-1-1 0-.51284.38604-.93551.88338-.99327l.11662-.00673h1.5v-1.5c0-2.1422 1.68397-3.891079 3.80036-3.99510469l.19964-.00489531z"/><path clip-rule="evenodd" d="m24 17c0 3.866-3.134 7-7 7s-7-3.134-7-7 3.134-7 7-7 7 3.134 7 7zm-10.1166-.9933c-.4974.0578-.8834.4805-.8834.9933 0 .5523.4477 1 1 1h6l.1166-.0067c.4974-.0578.8834-.4805.8834-.9933 0-.5523-.4477-1-1-1h-6z" fill-rule="evenodd"/></g></svg>