<svg fill="none" height="16" viewBox="0 0 16 16" width="16" xmlns="http://www.w3.org/2000/svg"><path d="m8 0c4.4183 0 8 3.58172 8 8 0 4.4183-3.5817 8-8 8-4.41828 0-8-3.5817-8-8 0-4.41828 3.58172-8 8-8zm0 1.82154c-3.41227 0-6.17846 2.76619-6.17846 6.17846 0 3.4123 2.76619 6.1785 6.17846 6.1785 3.4123 0 6.1785-2.7662 6.1785-6.1785 0-3.41227-2.7662-6.17846-6.1785-6.17846zm0 8.81226c.58998 0 1.06831.4784 1.06831 1.0684 0 .5899-.47833 1.0683-1.06831 1.0683s-1.06831-.4784-1.06831-1.0683c0-.59.47833-1.0684 1.06831-1.0684zm0-7.28611c1.69742 0 3.0769 1.31683 3.0769 2.94564 0 1.06861-.603 2.04338-1.55503 2.55915l-.17157.08618-.16384.07057c-.11413.04542-.20365.12333-.25739.2162l-.03342.0722-.01893.07614-.00534.07033c0 .05984-.0059.11597-.01625.15897-.07847.39873-.43797.68613-.85513.68613-.47959 0-.87138-.37649-.87138-.8451 0-.76346.41882-1.46315 1.08385-1.84709l.14621-.07735.15638-.06915c.4963-.19569.81909-.65138.81909-1.15718 0-.60904-.46445-1.12484-1.08404-1.23386l-.13503-.01703-.11037-.00458-.11507.00431c-.64746.04979-1.15653.53235-1.21764 1.13016l-.00615.121c0 .46861-.3918.84513-.87139.84513s-.87138-.37652-.87138-.84513c0-1.62881 1.3795-2.94564 3.07692-2.94564z" fill="#000"/></svg>