<svg width="16" height="16" viewBox="0 0 16 16" fill="none" xmlns="http://www.w3.org/2000/svg">
<path fill-rule="evenodd" clip-rule="evenodd" d="M3 2C2.44772 2 2 2.44772 2 3V13C2 13.5523 2.44772 14 3 14H13C13.5523 14 14 13.5523 14 13V3C14 2.44772 13.5523 2 13 2H3ZM3.70715 3H12.3137L8.01044 7.30328L3.70715 3ZM3 3.70706L3 12.3137L7.30333 8.01039L3 3.70706ZM8.01044 8.7175L3.72793 13H12.2929L8.01044 8.7175ZM13 12.2928V3.72793L8.71754 8.01039L13 12.2928Z" fill="black"/>
<path d="M0 0V-0.25H-0.25V0H0ZM16 0H16.25V-0.25H16V0ZM16 16V16.25H16.25V16H16ZM0 16H-0.25V16.25H0V16ZM-0.25 0V0.5H0.25V0H-0.25ZM-0.25 1.5V2.5H0.25V1.5H-0.25ZM-0.25 3.5V4.5H0.25V3.5H-0.25ZM-0.25 5.5V6.5H0.25V5.5H-0.25ZM-0.25 7.5V8.5H0.25V7.5H-0.25ZM-0.25 9.5V10.5H0.25V9.5H-0.25ZM-0.25 11.5V12.5H0.25V11.5H-0.25ZM-0.25 13.5V14.5H0.25V13.5H-0.25ZM-0.25 15.5V16H0.25V15.5H-0.25ZM0 16.25H0.5V15.75H0V16.25ZM1.5 16.25H2.5V15.75H1.5V16.25ZM3.5 16.25H4.5V15.75H3.5V16.25ZM5.5 16.25H6.5V15.75H5.5V16.25ZM7.5 16.25H8.5V15.75H7.5V16.25ZM9.5 16.25H10.5V15.75H9.5V16.25ZM11.5 16.25H12.5V15.75H11.5V16.25ZM13.5 16.25H14.5V15.75H13.5V16.25ZM15.5 16.25H16V15.75H15.5V16.25ZM16.25 16V15.5H15.75V16H16.25ZM16.25 14.5V13.5H15.75V14.5H16.25ZM16.25 12.5V11.5H15.75V12.5H16.25ZM16.25 10.5V9.5H15.75V10.5H16.25ZM16.25 8.5V7.5H15.75V8.5H16.25ZM16.25 6.5V5.5H15.75V6.5H16.25ZM16.25 4.5V3.5H15.75V4.5H16.25ZM16.25 2.5V1.5H15.75V2.5H16.25ZM16.25 0.5V0H15.75V0.5H16.25ZM16 -0.25H15.5V0.25H16V-0.25ZM14.5 -0.25H13.5V0.25H14.5V-0.25ZM12.5 -0.25H11.5V0.25H12.5V-0.25ZM10.5 -0.25H9.5V0.25H10.5V-0.25ZM8.5 -0.25H7.5V0.25H8.5V-0.25ZM6.5 -0.25H5.5V0.25H6.5V-0.25ZM4.5 -0.25H3.5V0.25H4.5V-0.25ZM2.5 -0.25H1.5V0.25H2.5V-0.25ZM0.5 -0.25H0V0.25H0.5V-0.25ZM0 0V-0.5H-0.5V0H0ZM16 0H16.5V-0.5H16V0ZM16 16V16.5H16.5V16H16ZM0 16H-0.5V16.5H0V16ZM-0.5 0V0.5H0.5V0H-0.5ZM-0.5 1.5V2.5H0.5V1.5H-0.5ZM-0.5 3.5V4.5H0.5V3.5H-0.5ZM-0.5 5.5V6.5H0.5V5.5H-0.5ZM-0.5 7.5V8.5H0.5V7.5H-0.5ZM-0.5 9.5V10.5H0.5V9.5H-0.5ZM-0.5 11.5V12.5H0.5V11.5H-0.5ZM-0.5 13.5V14.5H0.5V13.5H-0.5ZM-0.5 15.5V16H0.5V15.5H-0.5ZM0 16.5H0.5V15.5H0V16.5ZM1.5 16.5H2.5V15.5H1.5V16.5ZM3.5 16.5H4.5V15.5H3.5V16.5ZM5.5 16.5H6.5V15.5H5.5V16.5ZM7.5 16.5H8.5V15.5H7.5V16.5ZM9.5 16.5H10.5V15.5H9.5V16.5ZM11.5 16.5H12.5V15.5H11.5V16.5ZM13.5 16.5H14.5V15.5H13.5V16.5ZM15.5 16.5H16V15.5H15.5V16.5ZM16.5 16V15.5H15.5V16H16.5ZM16.5 14.5V13.5H15.5V14.5H16.5ZM16.5 12.5V11.5H15.5V12.5H16.5ZM16.5 10.5V9.5H15.5V10.5H16.5ZM16.5 8.5V7.5H15.5V8.5H16.5ZM16.5 6.5V5.5H15.5V6.5H16.5ZM16.5 4.5V3.5H15.5V4.5H16.5ZM16.5 2.5V1.5H15.5V2.5H16.5ZM16.5 0.5V0H15.5V0.5H16.5ZM16 -0.5H15.5V0.5H16V-0.5ZM14.5 -0.5H13.5V0.5H14.5V-0.5ZM12.5 -0.5H11.5V0.5H12.5V-0.5ZM10.5 -0.5H9.5V0.5H10.5V-0.5ZM8.5 -0.5H7.5V0.5H8.5V-0.5ZM6.5 -0.5H5.5V0.5H6.5V-0.5ZM4.5 -0.5H3.5V0.5H4.5V-0.5ZM2.5 -0.5H1.5V0.5H2.5V-0.5ZM0.5 -0.5H0V0.5H0.5V-0.5Z" fill="#BABABA"/>
</svg>
