<svg fill="none" height="16" viewBox="0 0 16 16" width="16" xmlns="http://www.w3.org/2000/svg"><path d="m12.2064 1.03477c.3906-.39052 1.0237-.390521 1.4143 0l1.4142 1.41422c.3905.39052.3905 1.02369 0 1.41421l-8.48532 8.4853c-.39052.3905-1.02369.3905-1.41421 0l-1.41421-1.4142c-.39053-.3906-.39053-1.02372 0-1.41425zm-10.38937 10.46423c.05445-.1648.19092-.2885.35921-.3281.169-.0403.34648.0099.46881.1322l2.12132 2.1214c.12304.123.17254.2998.13294.4695-.0396.1683-.16405.304-.3281.3592l-3.18198 1.0606c-.35992.1195-.752362-.2729-.632861-.6328z" fill="#000"/></svg>