<svg fill="none" height="24" viewBox="0 0 24 24" width="24" xmlns="http://www.w3.org/2000/svg"><path clip-rule="evenodd" d="m18.8704 10.6219c0 3.0333-2.459 5.4924-5.4924 5.4924s-5.49237-2.4591-5.49237-5.4924c0-3.03336 2.45897-5.49238 5.49237-5.49238s5.4924 2.45902 5.4924 5.49238zm2 0c0 4.1379-3.3545 7.4924-7.4924 7.4924-1.7083 0-3.2831-.5718-4.54349-1.5344l-3.99804 3.9977c-.39054.3905-1.0237.3905-1.41421 0-.39051-.3906-.39048-1.0237.00006-1.4142l3.99793-3.9976c-.96276-1.2604-1.53462-2.8354-1.53462-4.5439 0-4.13793 3.35445-7.49238 7.49237-7.49238 4.1379 0 7.4924 3.35445 7.4924 7.49238z" fill="#000" fill-rule="evenodd"/></svg>