<svg fill="none" height="24" viewBox="0 0 24 24" width="24" xmlns="http://www.w3.org/2000/svg"><g clip-rule="evenodd" fill="#000" fill-rule="evenodd"><path d="m12 0c2.6888 0 4.8818 2.12231 4.9954 4.78311l.0046.21689h2c2.2091 0 4 1.79086 4 4 0 .55229-.4477 1-1 1-.5128 0-.9355-.38604-.9933-.88338l-.0067-.11662c0-1.05436-.8159-1.91817-1.8507-1.99451l-.1493-.00549h-2v1c0 .55229-.4477 1-1 1-.5128 0-.9355-.38604-.9933-.88338l-.0067-.11662v-1h-6v1c0 .55229-.44772 1-1 1-.51284 0-.93551-.38604-.99327-.88338l-.00673-.11662v-1h-2c-1.05436 0-1.91817.81588-1.99809 1.772l-.00602.13746 1.00411 11.09054c0 1.0544.81588 1.9182 1.85074 1.9945l.14926.0055h4c.5523 0 1 .4477 1 1 0 .5128-.386.9355-.8834.9933l-.1166.0067h-4c-2.1401 0-3.88766-1.6807-3.99106-3.7118l-.00483-.1977-1.00411-11.0905c0-2.1422 1.68397-3.89108 3.80036-3.9951l.19964-.0049h2c0-2.76142 2.23858-5 5-5zm0 2c1.6569 0 3 1.34315 3 3h-6l.00509-.17627c.09125-1.57481 1.39721-2.82373 2.99491-2.82373z"/><path d="m17 24c3.866 0 7-3.134 7-7s-3.134-7-7-7-7 3.134-7 7 3.134 7 7 7zm-3.1166-7.9933c-.4974.0578-.8834.4805-.8834.9933 0 .5523.4477 1 1 1h6l.1166-.0067c.4974-.0578.8834-.4805.8834-.9933 0-.5523-.4477-1-1-1h-6z"/></g></svg>