<svg fill="none" height="16" viewBox="0 0 16 16" width="16" xmlns="http://www.w3.org/2000/svg"><path d="m7.33443 3.04893c.20955-.64491 1.12193-.64491 1.33148 0l.7487 2.30426c.09371.28842.36248.48369.66569.48369h2.4229c.6781 0 .96.86773.4114 1.26631l-1.9601 1.42411c-.2453.17825-.348.49421-.2543.78263l.7487 2.30427c.2096.6449-.5286 1.1812-1.0772.7826l-1.96008-1.4241c-.24534-.1783-.57756-.1783-.8229 0l-1.96012 1.4241c-.5486.3986-1.28673-.1377-1.07719-.7826l.7487-2.30427c.09371-.28842-.00895-.60438-.25429-.78263l-1.96012-1.42411c-.5486-.39858-.26665-1.26631.41145-1.26631h2.42284c.30326 0 .57203-.19527.66574-.48369z" fill="#000"/></svg>