<svg fill="none" height="24" viewBox="0 0 24 24" width="24" xmlns="http://www.w3.org/2000/svg"><path clip-rule="evenodd" d="m3 6c0-.55228.44772-1 1-1h4c.55228 0 1 .44772 1 1v4c0 .5523-.44772 1-1 1h-4c-.55228 0-1-.4477-1-1zm8.3-1c-.5522 0-1 .44772-1 1s.4478 1 1 1h8.58c.5523 0 1-.44772 1-1s-.4477-1-1-1zm-.9799 7c0-.5523.4477-1 1-1h8.58c.5523 0 1 .4477 1 1s-.4477 1-1 1h-8.58c-.5523 0-1-.4477-1-1zm0 6c0-.5523.4477-1 1-1h8.58c.5523 0 1 .4477 1 1s-.4477 1-1 1h-8.58c-.5523 0-1-.4477-1-1zm-6.3201-5c-.55228 0-1 .4477-1 1v4c0 .5523.44772 1 1 1h4c.55228 0 1-.4477 1-1v-4c0-.5523-.44772-1-1-1z" fill="#000" fill-rule="evenodd"/></svg>