<svg fill="none" height="16" viewBox="0 0 16 16" width="16" xmlns="http://www.w3.org/2000/svg"><path clip-rule="evenodd" d="m14 8c0 3.3137-2.6863 6-6 6-3.31371 0-6-2.6863-6-6 0-3.31371 2.68629-6 6-6 3.3137 0 6 2.68629 6 6zm2 0c0 4.4183-3.5817 8-8 8-4.41828 0-8-3.5817-8-8 0-4.41828 3.58172-8 8-8 4.4183 0 8 3.58172 8 8zm-5.1712-2.82911c.3905.39053.3905 1.02369 0 1.41422l-1.41476 1.41474 1.41486 1.4149c.3906.39052.3906 1.02365 0 1.41425-.3905.3905-1.02365.3905-1.41417 0l-1.41491-1.41494-1.41472 1.41474c-.39053.3905-1.02369.3905-1.41421 0-.39053-.3905-.39053-1.0237 0-1.41423l1.41472-1.41472-1.41456-1.41457c-.39053-.39052-.39053-1.02369 0-1.41421.39052-.39052 1.02369-.39052 1.41421 0l1.41456 1.41456 1.41474-1.41474c.39053-.39052 1.02374-.39052 1.41424 0z" fill="#000" fill-rule="evenodd"/></svg>