<svg fill="none" height="24" viewBox="0 0 24 24" width="24" xmlns="http://www.w3.org/2000/svg"><path clip-rule="evenodd" d="m13.5 2c-4.69442 0-8.5 3.80558-8.5 8.5 0 2.0927.75626 4.0088 2.01038 5.4898l-4.30318 4.3032c-.39052.3905-.39052 1.0237 0 1.4142s1.02369.3905 1.41421 0l4.35203-4.352c1.40783 1.034 3.14586 1.6448 5.02656 1.6448 4.6944 0 8.5-3.8056 8.5-8.5 0-4.69442-3.8056-8.5-8.5-8.5zm-6.5 8.5c0-3.58985 2.91015-6.5 6.5-6.5 3.5899 0 6.5 2.91015 6.5 6.5 0 3.5899-2.9101 6.5-6.5 6.5-3.58985 0-6.5-2.9101-6.5-6.5z" fill="#000" fill-rule="evenodd"/></svg>