<svg fill="none" height="16" viewBox="0 0 16 16" width="16" xmlns="http://www.w3.org/2000/svg" xmlns:xlink="http://www.w3.org/1999/xlink"><mask id="a" height="16" maskUnits="userSpaceOnUse" width="16" x="0" y="0"><path d="m4.5 10.5c1.023 0 1.901.618 2.288 1.5h8.212c.553 0 1 .447 1 1s-.447 1-1 1h-8.212c-.387.882-1.265 1.5-2.288 1.5s-1.902-.618-2.288-1.5h-1.212c-.553 0-1-.447-1-1s.447-1 1-1h1.212c.386-.882 1.265-1.5 2.288-1.5zm0 2c-.275 0-.5.225-.5.5s.225.5.5.5.5-.225.5-.5-.225-.5-.5-.5zm7-7c1.023 0 1.901.618 2.288 1.5h1.212c.553 0 1 .447 1 1s-.447 1-1 1h-1.212c-.387.882-1.265 1.5-2.288 1.5s-1.902-.618-2.288-1.5h-8.212c-.553 0-1-.447-1-1s.447-1 1-1h8.212c.386-.882 1.265-1.5 2.288-1.5zm0 2c-.275 0-.5.225-.5.5s.225.5.5.5.5-.225.5-.5-.225-.5-.5-.5zm-7-7c1.023 0 1.901.618 2.288 1.5h8.212c.553 0 1 .447 1 1s-.447 1-1 1h-8.212c-.387.882-1.265 1.5-2.288 1.5s-1.902-.618-2.288-1.5h-1.212c-.553 0-1-.447-1-1s.447-1 1-1h1.212c.386-.882 1.265-1.5 2.288-1.5zm0 2c-.275 0-.5.225-.5.5s.225.5.5.5.5-.225.5-.5-.225-.5-.5-.5z" fill="#fff"/></mask><g mask="url(#a)"><path d="m4.5 10.5c1.023 0 1.901.618 2.288 1.5h8.212c.553 0 1 .447 1 1s-.447 1-1 1h-8.212c-.387.882-1.265 1.5-2.288 1.5s-1.902-.618-2.288-1.5h-1.212c-.553 0-1-.447-1-1s.447-1 1-1h1.212c.386-.882 1.265-1.5 2.288-1.5zm0 2c-.275 0-.5.225-.5.5s.225.5.5.5.5-.225.5-.5-.225-.5-.5-.5zm7-7c1.023 0 1.901.618 2.288 1.5h1.212c.553 0 1 .447 1 1s-.447 1-1 1h-1.212c-.387.882-1.265 1.5-2.288 1.5s-1.902-.618-2.288-1.5h-8.212c-.553 0-1-.447-1-1s.447-1 1-1h8.212c.386-.882 1.265-1.5 2.288-1.5zm0 2c-.275 0-.5.225-.5.5s.225.5.5.5.5-.225.5-.5-.225-.5-.5-.5zm-7-7c1.023 0 1.901.618 2.288 1.5h8.212c.553 0 1 .447 1 1s-.447 1-1 1h-8.212c-.387.882-1.265 1.5-2.288 1.5s-1.902-.618-2.288-1.5h-1.212c-.553 0-1-.447-1-1s.447-1 1-1h1.212c.386-.882 1.265-1.5 2.288-1.5zm0 2c-.275 0-.5.225-.5.5s.225.5.5.5.5-.225.5-.5-.225-.5-.5-.5z" fill="#000"/></g></svg>