<svg fill="none" height="24" viewBox="0 0 24 24" width="24" xmlns="http://www.w3.org/2000/svg"><path clip-rule="evenodd" d="m4.5 3.00037c-.82843 0-1.5.67157-1.5 1.5v14.99933c0 .8284.67157 1.5 1.5 1.5h14.9993c.8285 0 1.5-.6716 1.5-1.5v-5.6713c0-.5523.4478-1 1-1 .5523 0 1 .4477 1 1v5.6713c0 1.933-1.567 3.5-3.5 3.5h-14.9993c-1.933 0-3.5-1.567-3.5-3.5v-14.99933c0-1.933 1.567-3.5 3.5-3.5h5.6632c.5523 0 1 .44771 1 1 0 .55228-.4477 1-1 1zm16.4998 1.41414v4.8217c0 .55229.4477.99999 1 .99999s1-.4477 1-.99999v-7.23555c0-.55229-.4477-1-1-1h-7.2356c-.5523 0-1 .44771-1 1 0 .55228.4477 1 1 1h4.821l-8.2925 8.29254c-.3906.3905-.3906 1.0237 0 1.4142.3905.3906 1.0236.3906 1.4142 0z" fill="#000" fill-rule="evenodd"/></svg>