<svg fill="none" height="16" viewBox="0 0 16 16" width="16" xmlns="http://www.w3.org/2000/svg"><path clip-rule="evenodd" d="m14 8c0 3.3137-2.6863 6-6 6-3.31371 0-6-2.6863-6-6 0-3.31371 2.68629-6 6-6 3.3137 0 6 2.68629 6 6zm2 0c0 4.4183-3.5817 8-8 8-4.41828 0-8-3.5817-8-8 0-4.41828 3.58172-8 8-8 4.4183 0 8 3.58172 8 8zm-7.99951-4c.55229 0 1 .44772 1 1v2.00074h2.00101c.5523 0 1 .44772 1 1 0 .55229-.4477 1-1 1h-2.00101v2.00076c0 .5523-.44771 1-1 1-.55228 0-1-.4477-1-1v-2.00076h-2.00049c-.55228 0-1-.44771-1-1 0-.55228.44772-1 1-1h2.00049v-2.00074c0-.55228.44772-1 1-1z" fill="#000" fill-rule="evenodd"/></svg>