<svg fill="none" height="24" viewBox="0 0 24 24" width="24" xmlns="http://www.w3.org/2000/svg"><path clip-rule="evenodd" d="m20.5024 10.0033c0 3.868-3.1357 7.0036-7.0037 7.0036-3.86799 0-7.00363-3.1356-7.00363-7.0036 0-3.86803 3.13564-7.00367 7.00363-7.00367 3.868 0 7.0037 3.13564 7.0037 7.00367zm2 0c0 4.9726-4.0311 9.0036-9.0037 9.0036-1.8702 0-3.6073-.5702-5.0468-1.5463l-5.24726 5.2468c-.39055.3905-1.02371.3905-1.41422 0-.39051-.3906-.39048-1.0237.00006-1.4143l5.13614-5.1357c-1.50812-1.6098-2.43155-3.7741-2.43155-6.1541 0-4.9726 4.03107-9.003666 9.00363-9.003666 4.9726 0 9.0037 4.031066 9.0037 9.003666z" fill="#000" fill-rule="evenodd"/></svg>