<svg fill="none" height="16" viewBox="0 0 16 16" width="16" xmlns="http://www.w3.org/2000/svg"><path clip-rule="evenodd" d="m1.36499 4c.55228 0 1-.44772 1-1s-.44772-1-1-1c-.552285 0-1 .44772-1 1s.447715 1 1 1zm2-1c0-.55228.44772-1 1-1h10.27001c.5523 0 1 .44772 1 1s-.4477 1-1 1h-10.27001c-.55228 0-1-.44772-1-1zm1 4c-.55228 0-1 .44772-1 1s.44772 1 1 1h10.27001c.5523 0 1-.44772 1-1s-.4477-1-1-1zm0 5c-.55228 0-1 .4477-1 1s.44772 1 1 1h10.27001c.5523 0 1-.4477 1-1s-.4477-1-1-1zm-2-4c0 .55228-.44772 1-1 1-.552285 0-1-.44772-1-1s.447715-1 1-1c.55228 0 1 .44772 1 1zm-1 6c.55228 0 1-.4477 1-1s-.44772-1-1-1c-.552285 0-1 .4477-1 1s.447715 1 1 1z" fill="#000" fill-rule="evenodd"/></svg>