<svg width="24" height="24" viewBox="0 0 24 24" fill="none" xmlns="http://www.w3.org/2000/svg">
<path fill-rule="evenodd" clip-rule="evenodd" d="M4 3C3.44772 3 3 3.44772 3 4V20C3 20.5523 3.44772 21 4 21H20C20.5523 21 21 20.5523 21 20V4C21 3.44772 20.5523 3 20 3H4ZM19.2929 4H4.70711L12 11.2929L19.2929 4ZM20 4.70711L12.7071 12L20 19.2929V4.70711ZM11.2929 12L4 4.70711V19.2929L11.2929 12ZM4.70711 20H19.2929L12 12.7071L4.70711 20Z" fill="black"/>
<path d="M0 0V-0.25H-0.25V0H0ZM24 0H24.25V-0.25H24V0ZM24 24V24.25H24.25V24H24ZM0 24H-0.25V24.25H0V24ZM-0.25 0V0.5H0.25V0H-0.25ZM-0.25 1.5V2.5H0.25V1.5H-0.25ZM-0.25 3.5V4.5H0.25V3.5H-0.25ZM-0.25 5.5V6.5H0.25V5.5H-0.25ZM-0.25 7.5V8.5H0.25V7.5H-0.25ZM-0.25 9.5V10.5H0.25V9.5H-0.25ZM-0.25 11.5V12.5H0.25V11.5H-0.25ZM-0.25 13.5V14.5H0.25V13.5H-0.25ZM-0.25 15.5V16.5H0.25V15.5H-0.25ZM-0.25 17.5V18.5H0.25V17.5H-0.25ZM-0.25 19.5V20.5H0.25V19.5H-0.25ZM-0.25 21.5V22.5H0.25V21.5H-0.25ZM-0.25 23.5V24H0.25V23.5H-0.25ZM0 24.25H0.5V23.75H0V24.25ZM1.5 24.25H2.5V23.75H1.5V24.25ZM3.5 24.25H4.5V23.75H3.5V24.25ZM5.5 24.25H6.5V23.75H5.5V24.25ZM7.5 24.25H8.5V23.75H7.5V24.25ZM9.5 24.25H10.5V23.75H9.5V24.25ZM11.5 24.25H12.5V23.75H11.5V24.25ZM13.5 24.25H14.5V23.75H13.5V24.25ZM15.5 24.25H16.5V23.75H15.5V24.25ZM17.5 24.25H18.5V23.75H17.5V24.25ZM19.5 24.25H20.5V23.75H19.5V24.25ZM21.5 24.25H22.5V23.75H21.5V24.25ZM23.5 24.25H24V23.75H23.5V24.25ZM24.25 24V23.5H23.75V24H24.25ZM24.25 22.5V21.5H23.75V22.5H24.25ZM24.25 20.5V19.5H23.75V20.5H24.25ZM24.25 18.5V17.5H23.75V18.5H24.25ZM24.25 16.5V15.5H23.75V16.5H24.25ZM24.25 14.5V13.5H23.75V14.5H24.25ZM24.25 12.5V11.5H23.75V12.5H24.25ZM24.25 10.5V9.5H23.75V10.5H24.25ZM24.25 8.5V7.5H23.75V8.5H24.25ZM24.25 6.5V5.5H23.75V6.5H24.25ZM24.25 4.5V3.5H23.75V4.5H24.25ZM24.25 2.5V1.5H23.75V2.5H24.25ZM24.25 0.5V0H23.75V0.5H24.25ZM24 -0.25H23.5V0.25H24V-0.25ZM22.5 -0.25H21.5V0.25H22.5V-0.25ZM20.5 -0.25H19.5V0.25H20.5V-0.25ZM18.5 -0.25H17.5V0.25H18.5V-0.25ZM16.5 -0.25H15.5V0.25H16.5V-0.25ZM14.5 -0.25H13.5V0.25H14.5V-0.25ZM12.5 -0.25H11.5V0.25H12.5V-0.25ZM10.5 -0.25H9.5V0.25H10.5V-0.25ZM8.5 -0.25H7.5V0.25H8.5V-0.25ZM6.5 -0.25H5.5V0.25H6.5V-0.25ZM4.5 -0.25H3.5V0.25H4.5V-0.25ZM2.5 -0.25H1.5V0.25H2.5V-0.25ZM0.5 -0.25H0V0.25H0.5V-0.25ZM0 0V-0.5H-0.5V0H0ZM24 0H24.5V-0.5H24V0ZM24 24V24.5H24.5V24H24ZM0 24H-0.5V24.5H0V24ZM-0.5 0V0.5H0.5V0H-0.5ZM-0.5 1.5V2.5H0.5V1.5H-0.5ZM-0.5 3.5V4.5H0.5V3.5H-0.5ZM-0.5 5.5V6.5H0.5V5.5H-0.5ZM-0.5 7.5V8.5H0.5V7.5H-0.5ZM-0.5 9.5V10.5H0.5V9.5H-0.5ZM-0.5 11.5V12.5H0.5V11.5H-0.5ZM-0.5 13.5V14.5H0.5V13.5H-0.5ZM-0.5 15.5V16.5H0.5V15.5H-0.5ZM-0.5 17.5V18.5H0.5V17.5H-0.5ZM-0.5 19.5V20.5H0.5V19.5H-0.5ZM-0.5 21.5V22.5H0.5V21.5H-0.5ZM-0.5 23.5V24H0.5V23.5H-0.5ZM0 24.5H0.5V23.5H0V24.5ZM1.5 24.5H2.5V23.5H1.5V24.5ZM3.5 24.5H4.5V23.5H3.5V24.5ZM5.5 24.5H6.5V23.5H5.5V24.5ZM7.5 24.5H8.5V23.5H7.5V24.5ZM9.5 24.5H10.5V23.5H9.5V24.5ZM11.5 24.5H12.5V23.5H11.5V24.5ZM13.5 24.5H14.5V23.5H13.5V24.5ZM15.5 24.5H16.5V23.5H15.5V24.5ZM17.5 24.5H18.5V23.5H17.5V24.5ZM19.5 24.5H20.5V23.5H19.5V24.5ZM21.5 24.5H22.5V23.5H21.5V24.5ZM23.5 24.5H24V23.5H23.5V24.5ZM24.5 24V23.5H23.5V24H24.5ZM24.5 22.5V21.5H23.5V22.5H24.5ZM24.5 20.5V19.5H23.5V20.5H24.5ZM24.5 18.5V17.5H23.5V18.5H24.5ZM24.5 16.5V15.5H23.5V16.5H24.5ZM24.5 14.5V13.5H23.5V14.5H24.5ZM24.5 12.5V11.5H23.5V12.5H24.5ZM24.5 10.5V9.5H23.5V10.5H24.5ZM24.5 8.5V7.5H23.5V8.5H24.5ZM24.5 6.5V5.5H23.5V6.5H24.5ZM24.5 4.5V3.5H23.5V4.5H24.5ZM24.5 2.5V1.5H23.5V2.5H24.5ZM24.5 0.5V0H23.5V0.5H24.5ZM24 -0.5H23.5V0.5H24V-0.5ZM22.5 -0.5H21.5V0.5H22.5V-0.5ZM20.5 -0.5H19.5V0.5H20.5V-0.5ZM18.5 -0.5H17.5V0.5H18.5V-0.5ZM16.5 -0.5H15.5V0.5H16.5V-0.5ZM14.5 -0.5H13.5V0.5H14.5V-0.5ZM12.5 -0.5H11.5V0.5H12.5V-0.5ZM10.5 -0.5H9.5V0.5H10.5V-0.5ZM8.5 -0.5H7.5V0.5H8.5V-0.5ZM6.5 -0.5H5.5V0.5H6.5V-0.5ZM4.5 -0.5H3.5V0.5H4.5V-0.5ZM2.5 -0.5H1.5V0.5H2.5V-0.5ZM0.5 -0.5H0V0.5H0.5V-0.5Z" fill="#BABABA"/>
</svg>
