<svg xmlns="http://www.w3.org/2000/svg" viewBox="0 0 305.93 206.76">
  <defs>
    <style>
      .cls-1 {
        fill: #fff;
      }
    </style>
  </defs>
  <g id="Layer_2" data-name="Layer 2">
    <g id="Layer_1-2" data-name="Layer 1">
      <g id="wdlwBC.tif">
        <g>
          <path d="M42.22,0c2,.7,5.22,1.65,8.31,3C66,9.94,81.86,16.26,96.83,24.19a61.86,61.86,0,0,1,25.44,25.29,156.53,156.53,0,0,1,8,17.63c3.34,8.5,8.65,12.64,17.73,13,3.24.12,6.49.07,9.74.07a17.23,17.23,0,0,0,16.95-12.1c4.06-12.22,9.85-23.4,19.15-32.51A70.93,70.93,0,0,1,216.77,20c14.45-5.91,28.61-12.54,42.94-18.76C265-1,269.94.33,272.9,4.5c3.49,4.92,3.4,10.69-.21,15-6.86,8.13-6.77,8.44,3.67,11.22,3,.78,6,1.22,8.94,2.09,4.22,1.25,5.44,4,3.26,7.76-2.46,4.3-5.22,8.44-8.09,12.48-2.41,3.38-2.11,5.59,2,7,4.37,1.45,8.75,2.91,13.05,4.56,4.85,1.87,5.68,4.81,2.5,9-2.83,3.69-5.86,7.22-8.85,10.79-2.11,2.52-2.16,4.56.89,6.47,4.2,2.62,8.31,5.41,12.39,8.24,4.43,3.07,4.64,5.34.46,8.61-3.65,2.85-7.65,5.25-11.47,7.88-4.27,2.94-4.49,4.64-1.26,8.59,2.95,3.59,5.93,7.16,8.75,10.86,2.18,2.86,1.49,5.3-1.81,6.68A117,117,0,0,1,285,146.27c-6.9,2-6.55,4.83-3.1,10.22,2.17,3.4,4.81,6.5,6.86,9.95s.65,6.69-3.41,7.74c-4.5,1.16-9.07,2-13.54,3.29-3.84,1.07-4.51,4-2,7.06,1.86,2.27,4.17,4.46,5.14,7.1a10.4,10.4,0,0,1-2.65,11.5c-3.34,3.38-7.18,4.61-11.4,2.77-17.57-7.64-35.4-14.81-52.45-23.5-15.16-7.72-24.79-21.1-31.2-36.76-1.63-4-2.91-8.28-5.29-11.8-5.11-7.56-13.52-6.79-21.11-6.63-13.4.29-16.32,3.55-21.06,16.37-7,19-19,33.95-38.32,42.15-10.25,4.36-20.24,9.34-30.4,13.9-4.93,2.21-10,4.22-15,6.1a10.7,10.7,0,0,1-12.21-3.15c-3.67-4.67-4-9.34-.72-14.08a45,45,0,0,1,3.59-4.24c2.58-2.93,2.07-5.5-1.67-6.69-4.27-1.36-8.69-2.26-13-3.5-5.57-1.6-6.48-3.78-3.59-8.76,2.34-4,4.86-7.95,7.43-11.82,2.22-3.33,1.42-5.53-2.24-6.78-4.38-1.51-8.83-2.83-13.2-4.39-4.82-1.73-5.68-5.06-2.49-9q4.1-5.06,8.14-10.14c2.9-3.68,2.57-5.42-1.33-7.86S6.87,110.42,3,107.84c-4-2.71-4-6.22,0-8.84s8-5.25,12.1-7.81c2.91-1.83,3.69-4.19,1.55-7a100.67,100.67,0,0,0-7.53-8.84c-5.34-5.49-4.74-8.9,2.24-11.47,3.93-1.44,7.87-2.86,11.8-4.33,3.31-1.24,4.41-3.31,2.22-6.45C22.88,49.6,20.49,46,17.84,42.58c-4.07-5.22-3-9,3.42-10.63,3.45-.88,7-1.31,10.43-2.28,1.83-.52,4.84-1.71,4.88-2.69.06-2-1.49-4-2.44-6-1.44-3-3.69-5.86-4.25-9C28.72,5.31,34.05-.12,42.22,0Zm208.2,75.67.52-1.14c-4.18-1.7-8.27-3.7-12.56-5A63,63,0,0,0,189,73.7c-4.85,2.5-8.61,7.11-13.46,9.65-13.75,7.22-28,7.36-41.95.56-4.64-2.26-8.24-6.58-12.79-9.11-18-10-36.78-10.84-56.08-4.44-2.29.76-4.35,2.26-6.52,3.41l.54,1.28c1.28-.24,2.56-.47,3.83-.74,23.2-4.93,45-2.48,65.41,10.7C145,96,162.92,95.2,179.73,84.8c14.79-9.15,30.29-14,47.55-12.63C235,72.81,242.71,74.47,250.42,75.67ZM57.74,131.77l-.52.46c2.07,1.23,4,3,6.22,3.58,6.24,1.79,12.54,4,18.93,4.46,16.44,1.24,32.22-1.43,45.21-12.58s27.73-10.33,42.51-5.93c5.33,1.58,9.53,6.7,14.56,9.69,18,10.72,37.06,11.76,56.71,5.45,3.07-1,5.87-2.81,8.8-4.25a5.24,5.24,0,0,0-4.23-.47c-11.15,3.49-22.51,3.3-34,2.48-12.89-.91-23.44-7.42-34.29-13.42-17-9.37-34.23-8.67-50.24,1.35-14.22,8.9-29.13,13.46-45.64,12.51C73.72,134.64,65.75,132.92,57.74,131.77Z"/>
          <path class="cls-1" d="M250.42,75.67c-7.71-1.2-15.38-2.86-23.14-3.5C210,70.75,194.52,75.65,179.73,84.8,162.92,95.2,145,96,128,85,107.58,71.83,85.8,69.38,62.6,74.31c-1.27.27-2.55.5-3.83.74l-.54-1.28c2.17-1.15,4.23-2.65,6.52-3.41,19.3-6.4,38.13-5.53,56.08,4.44,4.55,2.53,8.15,6.85,12.79,9.11,13.94,6.8,28.2,6.66,41.95-.56,4.85-2.54,8.61-7.15,13.46-9.65a63,63,0,0,1,49.35-4.22c4.29,1.35,8.38,3.35,12.56,5Z"/>
          <path class="cls-1" d="M57.74,131.77c8,1.15,16,2.87,24,3.33,16.51,1,31.42-3.61,45.64-12.51,16-10,33.28-10.72,50.24-1.35,10.85,6,21.4,12.51,34.29,13.42,11.48.82,22.84,1,34-2.48a5.24,5.24,0,0,1,4.23.47c-2.93,1.44-5.73,3.27-8.8,4.25-19.65,6.31-38.72,5.27-56.71-5.45-5-3-9.23-8.11-14.56-9.69-14.78-4.4-29.47-5.25-42.51,5.93s-28.77,13.82-45.21,12.58c-6.39-.48-12.69-2.67-18.93-4.46-2.23-.63-4.15-2.35-6.22-3.58Z"/>
        </g>
      </g>
    </g>
  </g>
</svg>
