<svg fill="none" height="24" viewBox="0 0 24 24" width="24" xmlns="http://www.w3.org/2000/svg"><path d="m20.753 12.6526c-.107 1.375-.347 3.58-.489 4.897l-.095.863c-.094.796-.439 1.151-2.244 1.151-2.734 0-7.121-.817-7.974-.981l-.093-.018v-7.061l.072-.023c2.815-.9 4.32-4.59796 4.886-5.99096l.095-.234c.113-.274.517-.293.796-.207.101.026.601.185.496.699-.179.924-.677 2.887-.944 3.943l-.346 1.36496 1.403-.124c.88-.078 1.624-.117 2.214-.117.212-.001.418-.002.649.019.42.023 1.012.088 1.312.39.31.301.298.961.262 1.429zm-12.895 6.699c0 .261-.256.481-.561.481h-2.734c-.305 0-.563-.22-.563-.481v-8.881c0-.259.258-.47896.563-.47896h2.734c.305 0 .561.21996.561.47896zm14.041-9.54896c-.773-.78-1.861-.924-2.573-.963-.517-.047-1.088-.032-1.791.001.242-.974.505-2.063.629-2.703.319-1.561-.737-2.703-1.903-3.011-1.138-.352-2.642.006-3.201 1.374l-.096.237c-.403.988-1.582 3.882-3.338 4.714-.403-.859-1.293-1.46-2.329-1.46h-2.734c-1.414 0-2.563 1.112-2.563 2.47896v8.881c0 1.368 1.149 2.481 2.563 2.481h2.734c.966 0 1.799-.527 2.235-1.294l.042.009c.883.168 5.435 1.016 8.351 1.016 1.063 0 3.888 0 4.231-2.925l.096-.873c.144-1.329.386-3.552.495-4.959.042-.554.155-2.028-.848-3.00396z" fill="#000"/></svg>