<svg fill="none" height="24" viewBox="0 0 24 24" width="24" xmlns="http://www.w3.org/2000/svg"><path clip-rule="evenodd" d="m10.0489 2.03691c1.0338-1.03374 2.6851-1.073501 3.7663-.11928l.127.11928 9.7331 9.73309c.4031.4032.4031 1.0568 0 1.46-.3744.3744-.9647.4011-1.3699.0802l-.0901-.0802-1.2152-1.2153v7.5675c0 1.8402-1.4779 3.3164-3.3094 3.4128l-.1906.005h-2.4853c-.0049.0001-.0099.0001-.0148.0001-.5523 0-1-.4477-1-1v-6c0-.5523-.4477-1-1-1h-2c-.5523 0-1 .4477-1 1v5.9641c0 .0038.0001.0076.0001.0114s-.0001.0077-.0001.0115v.013c0 .5523-.44771 1-1 1-.00493 0-.00985 0-.01477-.0001h-2.48517c-1.85425 0-3.39417-1.4134-3.49477-3.226l-.00523-.1889v-7.5794l-1.2243 1.2243c-.40315.4032-1.056804.4032-1.459963 0-.3743619-.3744-.4011021-.9647-.08022-1.3699l.08022-.0901zm-2.0489 18.91429v-4.9511c0-1.6568 1.34315-3 3-3h2c1.6569 0 3 1.3432 3 3v4.9511h1.5001c.7934 0 1.422-.5571 1.4932-1.2396l.0068-.1294v-9.5578-.0096l-6.5179-6.51792c-.2443-.24434-.6267-.26656-.8961-.06664l-.0772.06664-6.50984 6.50982.001.0177v9.5607c0 .6947.58178 1.2919 1.35323 1.3597l.14677.0064z" fill="#000" fill-rule="evenodd"/></svg>