<svg fill="none" height="24" viewBox="0 0 24 24" width="24" xmlns="http://www.w3.org/2000/svg"><g fill="#000"><path d="m2.88496 6.69835-1.14163-1.02546-.08219-.08301c-.33105-.37562-.33528-.94803.00776-1.32924l.08301-.08219c.37561-.33106.94803-.33529 1.32924.00776l1.15095 1.03632 3.16583-3.48873.08337-.08182c.37709-.32938.94952-.33106 1.3292.01368.40889.37125.43939 1.00368.06814 1.41257l-3.28517 3.6182-.11301.10497c-.77139.66349-1.8909.60155-2.5955-.10305z"/><path d="m22 3.99995c0-.55229-.4766-1-1.0646-1h-8.8709l-.1242.00673c-.5294.05776-.9403.48043-.9403.99327 0 .55228.4766 1 1.0645 1h8.8709l.1242-.00673c.5294-.05776.9404-.48044.9404-.99327z"/><path clip-rule="evenodd" d="m1.99952 11.9999c0-1.6568 1.34314-2.99995 3-2.99995 1.65685 0 3 1.34315 3 2.99995 0 1.6569-1.34315 3-3 3-1.65686 0-3-1.3431-3-3zm3-1c-.55229 0-1 .4478-1 1 0 .5523.44771 1 1 1 .55228 0 1-.4477 1-1 0-.5522-.44772-1-1-1z" fill-rule="evenodd"/><path clip-rule="evenodd" d="m4.99953 16.9999c-1.65685 0-3 1.3432-3 3 0 1.6569 1.34315 3 3 3 1.65686 0 3-1.3431 3-3 0-1.6568-1.34314-3-3-3zm-1 3c0-.5522.44772-1 1-1 .55229 0 1 .4478 1 1 0 .5523-.44771 1-1 1-.55228 0-1-.4477-1-1z" fill-rule="evenodd"/><path d="m8.99996 11.9999c0-.5522.44771-1 1-1h11.00004c.5522 0 1 .4478 1 1 0 .5523-.4478 1-1 1h-11.00004c-.55229 0-1-.4477-1-1z"/><path d="m9.99996 18.9999c-.55229 0-1 .4478-1 1 0 .5523.44771 1 1 1h11.00004c.5522 0 1-.4477 1-1 0-.5522-.4478-1-1-1z"/></g></svg>