<svg width="24" height="24" viewBox="0 0 24 24" fill="none" xmlns="http://www.w3.org/2000/svg">
<path d="M15.0421 7.01434C16.0176 7.1042 16.8986 7.62792 17.4598 8.45143C18.344 9.7496 18.1224 11.63 16.9451 12.8248L16.3971 13.3811C16.3809 13.3972 16.357 13.418 16.3382 13.4308L12.3343 16.8802C12.2421 16.9602 12.1286 17 12.0153 17C11.9015 17 11.7882 16.9599 11.6957 16.8802L7.66273 13.4087L6.96096 12.699C6.27028 11.9987 5.92531 11.0269 6.01358 10.033C6.10187 9.04323 6.61773 8.14871 7.42956 7.57923C8.70866 6.68151 10.5619 6.90593 11.7397 8.1016L12.0152 8.38042L12.4141 7.9754C13.1047 7.27462 14.0576 6.92255 15.0421 7.01434Z" fill="black"/>
<path fill-rule="evenodd" clip-rule="evenodd" d="M1 7C1 3.68629 3.68629 1 7 1H17C20.3137 1 23 3.68629 23 7V17C23 20.3137 20.3137 23 17 23H7C3.68629 23 1 20.3137 1 17V7ZM7 3H17C19.2091 3 21 4.79086 21 7V17C21 19.2091 19.2091 21 17 21H7C4.79086 21 3 19.2091 3 17V7C3 4.79086 4.79086 3 7 3Z" fill="black"/>
</svg>
