<svg width="24" height="24" viewBox="0 0 24 24" fill="none" xmlns="http://www.w3.org/2000/svg">
<path fill-rule="evenodd" clip-rule="evenodd" d="M2.37593 2.826C3.42421 1.77773 4.90727 1.34998 6.61529 1.34998H13.3076C13.9151 1.34998 14.4076 1.84246 14.4076 2.44998C14.4076 3.05749 13.9151 3.54998 13.3076 3.54998H6.61529C5.24638 3.54998 4.42175 3.89146 3.93157 4.38164C3.44138 4.87182 3.0999 5.69646 3.0999 7.06536V17.8346C3.0999 19.2035 3.44138 20.0281 3.93157 20.5183C4.42175 21.0085 5.24638 21.35 6.61529 21.35H17.3845C18.0135 21.35 18.9571 21.1852 19.7032 20.7375C20.3919 20.3243 20.8999 19.6923 20.8999 18.6038V9.75767C20.8999 9.15016 21.3924 8.65767 21.9999 8.65767C22.6074 8.65767 23.0999 9.15016 23.0999 9.75767V18.6038C23.0999 20.5923 22.0695 21.8834 20.8351 22.624C19.6581 23.3302 18.294 23.55 17.3845 23.55H6.61529C4.90727 23.55 3.42421 23.1222 2.37593 22.0739C1.32765 21.0257 0.899902 19.5426 0.899902 17.8346V7.06536C0.899902 5.35734 1.32765 3.87428 2.37593 2.826Z" fill="black"/>
<path d="M20.2956 6.63362L17.214 3.34912L10.6104 10.3873L13.692 13.6494L20.2956 6.63362Z" fill="black"/>
<path d="M22.8113 2.94691L20.673 0.667836C20.4004 0.377323 19.9812 0.377323 19.7297 0.667836L18.4299 2.05309L21.5116 5.33759L22.8113 3.95233C23.0629 3.68426 23.0629 3.215 22.8113 2.94691Z" fill="black"/>
<path d="M8.49306 12.6441C8.38821 12.7559 8.32533 12.9122 8.30442 13.0687L8.01094 15.6606C7.96897 16.1074 8.32533 16.5097 8.74474 16.4427L11.1766 16.1299C11.3234 16.1076 11.4701 16.0406 11.5749 15.9288L12.4974 14.9457L9.41555 11.661L8.49306 12.6441Z" fill="black"/>
</svg>
