<svg width="24" height="24" viewBox="0 0 24 24" fill="none" xmlns="http://www.w3.org/2000/svg">
<path d="M20.753 11.6526C20.646 13.0276 20.406 15.2326 20.264 16.5496L20.169 17.4126C20.075 18.2086 19.73 18.5636 17.925 18.5636C15.191 18.5636 10.804 17.7466 9.951 17.5826L9.858 17.5646V10.5036L9.93 10.4806C12.745 9.58064 14.25 5.88264 14.816 4.48964L14.911 4.25564C15.024 3.98164 15.428 3.96264 15.707 4.04864C15.808 4.07464 16.308 4.23364 16.203 4.74764C16.024 5.67164 15.526 7.63464 15.259 8.69064L14.913 10.0556L16.316 9.93164C17.196 9.85364 17.94 9.81464 18.53 9.81464C18.742 9.81364 18.948 9.81264 19.179 9.83364C19.599 9.85664 20.191 9.92164 20.491 10.2236C20.801 10.5246 20.789 11.1846 20.753 11.6526ZM7.858 18.3516C7.858 18.6126 7.602 18.8326 7.297 18.8326H4.563C4.258 18.8326 4 18.6126 4 18.3516V9.47064C4 9.21164 4.258 8.99164 4.563 8.99164H7.297C7.602 8.99164 7.858 9.21164 7.858 9.47064V18.3516ZM21.899 8.80264C21.126 8.02264 20.038 7.87864 19.326 7.83964C18.809 7.79264 18.238 7.80764 17.535 7.84064C17.777 6.86664 18.04 5.77764 18.164 5.13764C18.483 3.57664 17.427 2.43464 16.261 2.12664C15.123 1.77464 13.619 2.13264 13.06 3.50064L12.964 3.73764C12.561 4.72564 11.382 7.61964 9.626 8.45164C9.223 7.59264 8.333 6.99164 7.297 6.99164H4.563C3.149 6.99164 2 8.10364 2 9.47064V18.3516C2 19.7196 3.149 20.8326 4.563 20.8326H7.297C8.263 20.8326 9.096 20.3056 9.532 19.5386L9.574 19.5476C10.457 19.7156 15.009 20.5636 17.925 20.5636C18.988 20.5636 21.813 20.5636 22.156 17.6386L22.252 16.7656C22.396 15.4366 22.638 13.2136 22.747 11.8066C22.789 11.2526 22.902 9.77864 21.899 8.80264Z" fill="black"/>
</svg>
