<svg width="24" height="24" viewBox="0 0 24 24" fill="none" xmlns="http://www.w3.org/2000/svg">
<path fill-rule="evenodd" clip-rule="evenodd" d="M0.238926 0.851378C0.59716 0.431037 1.22832 0.380691 1.64866 0.738926L4.1213 2.84623C4.56023 2.59304 5.07047 2.44742 5.61761 2.44742H20.7419C22.8662 2.44742 24.3175 4.59441 23.5258 6.56557L21.3272 12.0393C20.8706 13.1761 19.7685 13.9211 18.5434 13.9211L7.14148 13.9211C6.58919 13.9211 6.14148 14.3688 6.14148 14.9211V15.1843C6.14148 15.7366 6.58919 16.1843 7.14148 16.1843H17.1483V16.1906C17.2106 16.1864 17.2733 16.1842 17.3365 16.1842C18.8038 16.1842 20.051 17.3429 20.051 18.8421C20.051 20.3414 18.8038 21.5 17.3365 21.5C15.8693 21.5 14.6221 20.3414 14.6221 18.8421C14.6221 18.614 14.6509 18.3937 14.7051 18.1843H9.56848C9.62261 18.3937 9.65149 18.614 9.65149 18.8421C9.65149 20.3414 8.40431 21.5 6.93704 21.5C5.46978 21.5 4.2226 20.3414 4.2226 18.8421C4.2226 18.1827 4.46385 17.5892 4.85897 17.1312C4.41159 16.6072 4.14148 15.9273 4.14148 15.1843V14.9211C4.14148 14.3812 4.28412 13.8745 4.53378 13.4369C3.79479 12.9561 3.27759 12.1569 3.18347 11.2215L2.63268 5.74778C2.58356 5.25961 2.65392 4.78923 2.81894 4.36409L0.351378 2.26111C-0.0689628 1.90288 -0.119309 1.27172 0.238926 0.851378ZM5.61761 4.44742C5.02574 4.44742 4.56337 4.95864 4.62263 5.54754L5.17342 11.0212C5.22483 11.5322 5.65488 11.9211 6.16839 11.9211H18.5434C18.9518 11.9211 19.3191 11.6728 19.4713 11.2938L21.6699 5.82013C21.9338 5.16308 21.45 4.44742 20.7419 4.44742H5.61761ZM6.93704 18.1842C6.51058 18.1842 6.2226 18.5101 6.2226 18.8421C6.2226 19.1741 6.51058 19.5 6.93704 19.5C7.3635 19.5 7.65149 19.1741 7.65149 18.8421C7.65149 18.5101 7.3635 18.1842 6.93704 18.1842ZM16.6221 18.8421C16.6221 18.5101 16.9101 18.1842 17.3365 18.1842C17.763 18.1842 18.051 18.5101 18.051 18.8421C18.051 19.1741 17.763 19.5 17.3365 19.5C16.9101 19.5 16.6221 19.1741 16.6221 18.8421Z" fill="black"/>
</svg>
