<svg width="24" height="24" viewBox="0 0 24 24" fill="none" xmlns="http://www.w3.org/2000/svg">
<path fill-rule="evenodd" clip-rule="evenodd" d="M10.0682 3.39149C10.6763 1.53618 13.3237 1.53617 13.9318 3.39149L15.474 8.09744H20.4649C22.4326 8.09744 23.2507 10.5938 21.6588 11.7404L17.6211 14.6488L19.1634 19.3548C19.7714 21.2101 17.6296 22.7529 16.0377 21.6063L12 18.6978L7.96228 21.6063C6.37043 22.7529 4.22858 21.2101 4.83662 19.3548L6.37889 14.6488L2.34117 11.7404C0.749314 10.5938 1.56742 8.09744 3.53507 8.09744H8.52596L10.0682 3.39149ZM13.5423 8.71974L12 4.01378L10.4577 8.71974C10.1858 9.54946 9.40592 10.1112 8.52596 10.1112L3.53507 10.1112L7.57279 13.0197C8.28469 13.5325 8.58258 14.4414 8.31066 15.2711L6.76839 19.9771L10.8061 17.0687C11.518 16.5559 12.482 16.5559 13.1939 17.0687L17.2316 19.9771L15.6893 15.2711C15.4174 14.4414 15.7153 13.5325 16.4272 13.0197L20.4649 10.1112H15.474C14.5941 10.1112 13.8142 9.54946 13.5423 8.71974Z" fill="black"/>
</svg>
