<svg fill="none" height="16" viewBox="0 0 16 16" width="16" xmlns="http://www.w3.org/2000/svg"><path d="m9.61831 8.00014 4.04689-4.04607c.4464-.44752.4464-1.17204 0-1.61842-.4475-.44753-1.1719-.44753-1.6183 0l-4.0469 4.04607-4.04692-4.04607c-.44636-.44753-1.17082-.44753-1.61832 0-.44635.44638-.44635 1.1709 0 1.61842l4.04693 4.04607-4.04693 4.04606c-.44635.4475-.44635 1.1721 0 1.6184.22318.2244.51617.3354.80916.3354s.58598-.111.80916-.3354l4.04692-4.04603 4.0469 4.04603c.2232.2244.5162.3354.8092.3354.2918 0 .5848-.111.8091-.3354.4464-.4463.4464-1.1709 0-1.6184z" fill="#000"/></svg>