<svg width="24" height="24" viewBox="0 0 24 24" fill="none" xmlns="http://www.w3.org/2000/svg"><path d="M2.88496 6.69835L1.74333 5.67289L1.66114 5.58988C1.33009 5.21426 1.32586 4.64185 1.6689 4.26064L1.75191 4.17845C2.12752 3.84739 2.69994 3.84316 3.08115 4.18621L4.2321 5.22253L7.39793 1.7338L7.4813 1.65198C7.85839 1.3226 8.43082 1.32092 8.8105 1.66566C9.21939 2.03691 9.24989 2.66934 8.87864 3.07823L5.59347 6.69643L5.48046 6.8014C4.70907 7.46489 3.58956 7.40295 2.88496 6.69835Z" fill="#000"/><path d="M22 3.99995C22 3.44766 21.5234 2.99995 20.9354 2.99995H12.0645L11.9403 3.00668C11.4109 3.06444 11 3.48711 11 3.99995C11 4.55223 11.4766 4.99995 12.0645 4.99995H20.9354L21.0596 4.99322C21.589 4.93546 22 4.51278 22 3.99995Z" fill="#000"/><path fill-rule="evenodd" clip-rule="evenodd" d="M1.99952 11.9999C1.99952 10.3431 3.34266 8.99995 4.99952 8.99995C6.65637 8.99995 7.99952 10.3431 7.99952 11.9999C7.99952 13.6568 6.65637 14.9999 4.99952 14.9999C3.34266 14.9999 1.99952 13.6568 1.99952 11.9999ZM4.99952 10.9999C4.44723 10.9999 3.99952 11.4477 3.99952 11.9999C3.99952 12.5522 4.44723 12.9999 4.99952 12.9999C5.5518 12.9999 5.99952 12.5522 5.99952 11.9999C5.99952 11.4477 5.5518 10.9999 4.99952 10.9999Z" fill="#000"/><path fill-rule="evenodd" clip-rule="evenodd" d="M4.99953 16.9999C3.34268 16.9999 1.99953 18.3431 1.99953 19.9999C1.99953 21.6568 3.34268 22.9999 4.99953 22.9999C6.65639 22.9999 7.99953 21.6568 7.99953 19.9999C7.99953 18.3431 6.65639 16.9999 4.99953 16.9999ZM3.99953 19.9999C3.99953 19.4477 4.44725 18.9999 4.99953 18.9999C5.55182 18.9999 5.99953 19.4477 5.99953 19.9999C5.99953 20.5522 5.55182 20.9999 4.99953 20.9999C4.44725 20.9999 3.99953 20.5522 3.99953 19.9999Z" fill="#000"/><path d="M8.99996 11.9999C8.99996 11.4477 9.44767 10.9999 9.99996 10.9999H21C21.5522 10.9999 22 11.4477 22 11.9999C22 12.5522 21.5522 12.9999 21 12.9999H9.99996C9.44767 12.9999 8.99996 12.5522 8.99996 11.9999Z" fill="#000"/><path d="M9.99996 18.9999C9.44767 18.9999 8.99996 19.4477 8.99996 19.9999C8.99996 20.5522 9.44767 20.9999 9.99996 20.9999H21C21.5522 20.9999 22 20.5522 22 19.9999C22 19.4477 21.5522 18.9999 21 18.9999H9.99996Z" fill="#000"/></svg>