<svg fill="none" height="24" viewBox="0 0 24 24" width="24" xmlns="http://www.w3.org/2000/svg"><path clip-rule="evenodd" d="m18.3638 10.1696 1.7816 1.7817-1.606 1.6986c-3.551 3.7555-9.52821 3.7555-13.07917 0l-1.60606-1.6986 1.78168-1.7817c3.51472-3.51471 9.21315-3.51471 12.72795 0zm-14.14216-1.41421c4.29576-4.29576 11.26056-4.29576 15.55636.00001l2.4693 2.4693c.3828.3828.3914 1.0007.0195 1.3941l-2.2742 2.4052c-4.34 4.59-11.64555 4.59-15.9856 0l-2.27415-2.4052c-.37195-.3934-.3633-1.0113.01952-1.3941zm9.27816 3.22181c0 .8284-.6716 1.5-1.5 1.5s-1.5-.6716-1.5-1.5.6716-1.5 1.5-1.5 1.5.6716 1.5 1.5zm2 0c0 1.933-1.567 3.5-3.5 3.5s-3.49999-1.567-3.49999-3.5 1.56699-3.49998 3.49999-3.49998 3.5 1.56698 3.5 3.49998z" fill="#000" fill-rule="evenodd"/></svg>