<svg width="16" height="16" viewBox="0 0 16 16" fill="none" xmlns="http://www.w3.org/2000/svg">
<path fill-rule="evenodd" clip-rule="evenodd" d="M8 0C5.79086 0 4 1.79086 4 4V6C2.89543 6 2 6.89543 2 8V13C2 14.1046 2.89543 15 4 15H12C13.1046 15 14 14.1046 14 13V8C14 6.89543 13.1046 6 12 6V4C12 1.79086 10.2091 0 8 0ZM10 6V4C10 2.89543 9.10457 2 8 2C6.89543 2 6 2.89543 6 4V6H10ZM8 10C7.44772 10 7 10.4477 7 11V12C7 12.5523 7.44772 13 8 13C8.55228 13 9 12.5523 9 12V11C9 10.4477 8.55228 10 8 10Z" fill="black"/>
</svg>
