<svg fill="none" height="24" viewBox="0 0 24 24" width="24" xmlns="http://www.w3.org/2000/svg"><path d="m18.2916 8.48629c.6183 1.08322.9484 2.31101.9484 3.58451 0 3.9985-3.2414 7.24-7.24 7.24-.5106 0-1.0137-.0531-1.5031-.1564l.2891.4999c.2565.4441.1335 1.0032-.2684 1.3019l-.0976.0641c-.44412.2564-1.00318.1334-1.30188-.2684l-.06414-.0976-1.56-2.702c-.25641-.4441-.13343-1.0032.2684-1.3019l.09763-.0641 2.70199-1.56c.4783-.2762 1.0899-.1123 1.366.366.2565.4441.1335 1.0032-.2684 1.3019l-.0976.0641-.7301.422c.3789.0862.77.1305 1.1681.1305 2.894 0 5.24-2.346 5.24-5.24 0-.9235-.2383-1.8099-.6853-2.59308-.2738-.47965-.1069-1.09042.3727-1.3642.4797-.27377 1.0905-.10688 1.3642.37277zm-3.8277-5.2383.0641.09764 1.56 2.702c.2565.44412.1335 1.00319-.2684 1.30188l-.0976.06414-2.702 1.56c-.4783.27614-1.0899.11227-1.366-.36602-.2564-.44413-.1334-1.0032.2684-1.30189l.0976-.06414.6387-.3699c-.2168-.02714-.4367-.04091-.6587-.04091-2.89396 0-5.23999 2.34603-5.23999 5.24001 0 .9523.25348 1.8651.72741 2.6654.28141.4752.1243 1.0886-.35091 1.37s-1.08858.1243-1.36999-.3509c-.65539-1.1068-1.00651-2.3712-1.00651-3.6845 0-3.99855 3.24146-7.24001 7.23999-7.24001.3805 0 .7569.02946 1.1266.08728l-.3306-.57244c-.2564-.44413-.1334-1.0032.2684-1.30189l.0976-.06414c.4441-.25642 1.0032-.13343 1.3019.26839z" fill="#000"/></svg>