<svg fill="none" height="24" viewBox="0 0 24 24" width="24" xmlns="http://www.w3.org/2000/svg"><path d="m12 2c5.5228 0 10 4.47715 10 10 0 5.5228-4.4772 10-10 10-5.52285 0-10-4.4772-10-10 0-5.52285 4.47715-10 10-10zm0 2c-4.41828 0-8 3.58172-8 8 0 4.4183 3.58172 8 8 8 4.4183 0 8-3.5817 8-8 0-4.41828-3.5817-8-8-8zm0 11.5c.6627 0 1.2.5373 1.2 1.2s-.5373 1.2-1.2 1.2-1.2-.5373-1.2-1.2.5373-1.2 1.2-1.2zm0-9.25c2.0683 0 3.75 1.60163 3.75 3.58333 0 1.38997-.8368 2.62957-2.0978 3.21487l-.183.0792.0318-.0244-.0548.0362c-.2658.1025-.4511.33-.489.5937l-.0072.1004c0 .0661-.0066.1249-.0177.1717-.085.4318-.4762.745-.9323.745-.522 0-.95-.4076-.95-.9167 0-.9903.5872-1.8747 1.4686-2.3002l.1926-.0853c.6854-.2703 1.1388-.9036 1.1388-1.61447 0-.91544-.7452-1.67092-1.6979-1.74417l-.1521-.00583-.1521.00583c-.9527.07325-1.6979.82873-1.6979 1.74417 0 .50907-.42801.91667-.95.91667s-.95-.4076-.95-.91667c0-1.9817 1.68171-3.58333 3.75-3.58333z" fill="#000"/></svg>