<svg fill="none" height="24" viewBox="0 0 24 24" width="24" xmlns="http://www.w3.org/2000/svg"><g clip-rule="evenodd" fill="#000" fill-rule="evenodd"><path d="m22.9954 6.78311c-.1136-2.6608-2.3066-4.78311-4.9954-4.78311h-12l-.21689.00462c-2.6608.11356-4.78311 2.30663-4.78311 4.99538v10l.00462.2169c.11356 2.6608 2.30663 4.7831 4.99538 4.7831h3l.11662-.0067c.49734-.0578.88338-.4805.88338-.9933 0-.5523-.44771-1-1-1h-3l-.17627-.0051c-1.57481-.0912-2.82373-1.3972-2.82373-2.9949v-10l.00509-.17627c.09125-1.57481 1.39723-2.82373 2.99491-2.82373h1.1459c.75754 0 1.45007.428 1.78885 1.10557l.61804 1.23607.09509.17542c.53562.91424 1.51872 1.48294 2.58822 1.48294h7.7639l.1166.00673c.4974.05776.8834.48043.8834.99327l.0067.11662c.0578.49734.4805.88338.9933.88338.5523 0 1-.44772 1-1v-2zm-2.1239-.65457c-.3571-1.178-1.4192-2.04951-2.6952-2.12345l-.1763-.00509h-7.39l.0121.02099.1015.19016.618 1.23606c.1506.30114.4409.50369.7696.54499l.1249.0078h7.7639c.3031 0 .5957.04495.8715.12854z"/><path d="m24 17c0 3.866-3.134 7-7 7s-7-3.134-7-7 3.134-7 7-7 7 3.134 7 7zm-10.1166-.9933c-.4974.0578-.8834.4805-.8834.9933 0 .5523.4477 1 1 1h6l.1166-.0067c.4974-.0578.8834-.4805.8834-.9933 0-.5523-.4477-1-1-1h-6z"/></g></svg>