<svg fill="none" height="24" viewBox="0 0 24 24" width="24" xmlns="http://www.w3.org/2000/svg" xmlns:xlink="http://www.w3.org/1999/xlink"><clipPath id="a"><path d="m0 0h24v24h-24z"/></clipPath><g clip-path="url(#a)"><path d="m16.2125 11.0024-.0941-.0025.0846.0025-.2026-.0039c-.0706 0-.1412.0015-.2116.0042-.1549.0061-.3093.0188-.4627.0378-.4855.0603-.9612.1849-1.4139.3703-.2249.0922-.446.2006-.6622.3254-.3309.1911-.6345.4114-.9094.6557l-.0016.0005-.0225.0207c-.0081.0072-.0161.0145-.0241.0218l-.0144.0125-.012.011-.066.062-.0064.0072-.0436.0418-.021.02-.0193.0202-.0836.0855-.0627.0663-.0344.037.0152-.0157c-.265.2898-.5029.6126-.7073.9667-.0867.1501-.1655.3025-.2365.4569-.2872.6276-.4548 1.3049-.4929 1.9947-.0021.0287-.0034.0577-.0045.0867l.002-.0443-.0018.0475c-.0011.03-.0021.06-.0027.0901l.0015-.0906-.002.1035-.001.1455.001.027v.033l.003.1013-.001.0057.0201.291c.0453.4932.1568.9782.3308 1.4409l.0761.1922c.0885.2098.191.4165.3079.6189l.1162.1923.122.1866c.0858.1225.1751.2413.2684.3555.0201.0256.0407.0503.0616.0749l-.0171-.0213.0224.0268.0626.0722-.064-.073.0638.0737.0572.0633.0123.0139.0197.0211.013.014.041.044.0769.079.0221.022.0763.0746.0637.0594.007.0075.014.0125.03.027.208.1792c.2276.186.4732.3562.736.5079.1685.0973.3399.1846.5137.2622.3921.174.8028.3017 1.2234.3807l.317.0501c.1319.0169.2645.0291.3975.0364l.0904.0043-.0047.0002.0953.0025-.0846-.0035.202.0049c.0708-.0001.1416-.0015.2122-.0043.1546-.0061.3086-.0187.4616-.0377.4288-.0533.8499-.1567 1.2542-.3077.0203-.0069.0404-.0146.0604-.0224l-.0504.0182.16-.0626c.0563-.0232.1123-.0473.1679-.0724.1609-.073.3198-.1544.4762-.2443.814-.4662 1.5185-1.1473 2.021-2.0177.2762-.4783.8878-.6422 1.3661-.366.4783.2761.6421.8877.366 1.366-.8198 1.4199-2.0338 2.4704-3.4239 3.0929-.8962.4028-1.8331.6152-2.766.6524-.0142 0-.0285.0006-.0429.0011l-.1419.004c-.0401.0004-.0802.0008-.1202.0008s-.0803-.0004-.1207-.001l-.142-.0033c-.0144-.001-.0287-.0016-.0431-.0022-.9327-.0366-1.8695-.249-2.761-.6496-.5362-.2402-1.042-.5408-1.5098-.9006l-.0704-.0562c-.0427-.0323-.0846-.0661-.1262-.1004-.0184-.0163-.0372-.0319-.0559-.0475-.0432-.0354-.0856-.0719-.1277-.1089l-.078-.0703-.0978-.0895c-.0257-.0245-.0511-.0486-.0762-.0729-.0352-.0337-.0705-.0684-.1055-.1036l-.0743-.0755c-.0284-.0296-.057-.0597-.0854-.09-.63089-.6724-1.12271-1.4471-1.46396-2.2794l-.00709-.0159c-.36414-.889-.54522-1.8182-.55599-2.7399-.00007-.0182-.00025-.0362-.00036-.0543v-.0804c.00011-.0181.00029-.0361.00053-.0541.01154-1.0025.22463-2.0136.6555-2.9723.31028-.6927.72326-1.3377 1.23397-1.913.016-.0173.032-.0351.0481-.0529.0343-.0386.0697-.0769.1055-.1148l.0557-.0582c.0192-.0201.039-.0405.0591-.0608l.0764-.0764c.0288-.0285.0578-.0566.087-.0845.0156-.0145.0312-.0292.0468-.0439.0358-.034.0717-.0671.1079-.0997.0215-.0187.0429-.0378.0645-.0568.6314-.5574 1.3464-.99707 2.1098-1.31007l.0159-.00709c.8213-.3364 1.6768-.51656 2.5291-.55056.0128.00003.0258-.00048.0389-.00095.0573-.00249.1146-.00381.1719-.00448.0182-.00007.0362-.00025.0543-.00036h.0804l.0543.00036c.0573.00067.1146.00199.1719.00398.013.00097.026.00148.039.00202.8522.03343 1.7077.21359 2.529.54999l.0159.00709c.9902.40598 1.8989 1.02507 2.6504 1.83697l-.0007-.5993c0-.5523.4477-1.00001 1-1.00001.5128 0 .9355.38601.9933.88341l.0067.1166v3c0 .5128-.386.9355-.8834.9933l-.1166.0067h-3c-.5523 0-1-.4477-1-1 0-.5128.386-.9355.8834-.9933l.1166-.0067.5705-.0005c-.3253-.3585-.692-.667-1.0883-.9222l-.2322-.1405c-.1349-.0778-.2717-.1494-.4101-.2146l-.1996-.089c-.3702-.156-.7563-.2712-1.151-.3436l-.2974-.0462c-.1306-.0167-.262-.0287-.3937-.036l-.0898-.0042zm-.7125 1.997c.5523 0 1 .4477 1 1v2.586l1.4142 1.414c.3905.3905.3905 1.0237 0 1.4142s-1.0237.3905-1.4142 0l-1.4142-1.4142c-.0494-.0494-.0925-.1026-.1294-.1588-.2737-.1782-.4564-.4884-.4564-.8412v-3c0-.5523.4477-1 1-1zm-1-13.00001035c.5128 0 .9355.38604035.9933.88337935l.0067.116621v1h2.2857c1.9798 0 3.6063 1.52387 3.7091 3.45285l.0052.19421v1.7647c0 .55229-.4477 1-1 1-.5128 0-.9355-.38604-.9933-.88337l-.0067-.11663v-1.7647c0-.85638-.6839-1.56839-1.5656-1.64097l-.1487-.00609h-2.2867l.001 1c0 .51284-.386.93551-.8834.99327l-.1166.00673c-.5128 0-.9355-.38604-.9933-.88338l-.0067-.11662v-1h-5.001l.001 1c0 .51284-.38604.93551-.88338.99327l-.11662.00673c-.51284 0-.93551-.38604-.99327-.88338l-.00673-.11662-.001-1h-2.28471c-.90219 0-1.63355.66694-1.70804 1.50575l-.00625.14131v9.70585c0 .8564.68388 1.5684 1.56559 1.641l.1487.0061h1.52381c.55228 0 1 .4477 1 1 0 .5128-.38604.9355-.88338.9933l-.11662.0067h-1.52381c-1.97982 0-3.606254-1.5239-3.709125-3.4529l-.005165-.1942v-9.70585c0-1.95475 1.56257-3.54167 3.51753-3.64202l.19676-.00504h2.28471l.001-1c0-.512836.38604-.9355075.88338-.99327262l.11662-.00672773c.51284 0 .93551.38604035.99327.88337935l.00673.116621-.001 1h5.001v-1c0-.512836.386-.9355075.8834-.99327262z" fill="#000"/></g></svg>