<svg fill="none" height="24" viewBox="0 0 24 24" width="24" xmlns="http://www.w3.org/2000/svg" xmlns:xlink="http://www.w3.org/1999/xlink"><clipPath id="a"><path d="m0 0h24v24h-24z"/></clipPath><g clip-path="url(#a)"><path d="m11.2071 23.7071c-.3905.3905-1.0237.3905-1.41421 0-.36048-.3605-.38821-.9277-.08319-1.32l.08319-.0942 3.26261-3.2621c-.9665-1.0651-1.5555-2.4792-1.5555-4.0308 0-3.2384 2.5656-5.87757 5.7751-5.99586l.2249-.00414c3.3137 0 6 2.6863 6 6 0 3.2384-2.5656 5.8776-5.7751 5.9959l-.2249.0041c-1.0358 0-2.0104-.2625-2.8607-.7246zm6.2929-12.7071c-2.2091 0-4 1.7909-4 4 0 .9315.3174 1.8091.8886 2.5141l.148.1727.4594.5062.5982.3251c.5071.2756 1.0672.4378 1.6532.4741l.2526.0078c2.2091 0 4-1.7909 4-4s-1.7909-4-4-4zm-9.001-7 .001 1c0 .51284-.38604.93551-.88338.99327l-.11662.00673c-.51284 0-.93551-.38604-.99327-.88338l-.00673-.11662-.001-1h-2.28471c-.90219 0-1.63355.66694-1.70804 1.50575l-.00625.14131v9.70584c0 .8564.68388 1.5684 1.56559 1.641l.1487.0061h4.52381c.55228 0 1 .4477 1 1 0 .5128-.38605.9355-.88338.9933l-.11662.0067h-4.52381c-1.97982 0-3.606254-1.5239-3.709125-3.4529l-.005165-.1942v-9.70584c0-1.95475 1.56257-3.54167 3.51753-3.64202l.19676-.00504h2.28471l.001-1c0-.512836.38604-.9355072.88338-.99327227l.11662-.00672773c.51284 0 .93551.38604.99327.883379l.00673.116621-.001 1h5.001v-1c0-.512836.386-.9355072.8834-.99327227l.1166-.00672773c.5128 0 .9355.38604.9933.883379l.0067.116621v1h2.2857c1.9798 0 3.6063 1.52387 3.7091 3.45285l.0052.19421v1.7647c0 .51284-.386.93551-.8834.99328l-.1166.00673c-.5128 0-.9355-.38605-.9933-.88338l-.0067-.11663v-1.7647c0-.85638-.6839-1.56839-1.5656-1.64097l-.1487-.00609h-2.2867l.001 1c0 .51284-.386.93551-.8834.99327l-.1166.00673c-.5128 0-.9355-.38604-.9933-.88338l-.0067-.11662v-1z" fill="#000"/></g></svg>