<svg fill="none" height="16" viewBox="0 0 16 16" width="16" xmlns="http://www.w3.org/2000/svg"><path clip-rule="evenodd" d="m11.3018 5.50012c-.0205.00126-.0412.00189-.062.00189h-5.69732c-.55228 0-1-.44771-1-1 0-.55228.44772-1 1-1h2.83017c-.23863-.43205-.70012-.72454-1.2272-.72454h-3.74545c-.7732 0-1.4.6268-1.4 1.4v2.72265 2.1997 2.72268c0 .7732.6268 1.4 1.4 1.4h9.2c.7732 0 1.4-.6268 1.4-1.4v-4.92238c0-.7732-.6268-1.4-1.4-1.4zm-7.9018-4.722654c-1.87777 0-3.4 1.522234-3.4 3.400004v2.72265 2.1997 2.72268c0 1.8777 1.52223 3.4 3.4 3.4h9.2c1.8778 0 3.4-1.5223 3.4-3.4v-4.92238c0-1.87777-1.5222-3.4-3.4-3.4h-2.122c-.314-1.55324-1.68672-2.722654-3.33255-2.722654z" fill="#000" fill-rule="evenodd"/></svg>