<svg fill="none" height="16" viewBox="0 0 16 16" width="16" xmlns="http://www.w3.org/2000/svg"><path d="m11.5376 5.87892c.3906-.39052.3906-1.02369 0-1.41421-.3905-.39053-1.0236-.39053-1.4142 0l-2.12219 2.12222-2.1221-2.1221c-.39052-.39052-1.02369-.39052-1.41421 0-.39053.39053-.39053 1.02369 0 1.41422l2.12209 2.1221-2.12222 2.12225c-.39053.3905-.39053 1.0237 0 1.4142.39052.3905 1.02369.3905 1.41421 0l2.12223-2.12224 2.12239 2.12234c.3905.3905 1.0237.3905 1.4142 0s.3905-1.0237 0-1.4142l-2.12238-2.12235z" fill="#000"/></svg>