<svg fill="none" height="24" viewBox="0 0 24 24" width="24" xmlns="http://www.w3.org/2000/svg"><g clip-rule="evenodd" fill="#000" fill-rule="evenodd"><path d="m12 1c-3.31371 0-6 2.68629-6 6 0 3.3137 2.68629 6 6 6 3.3137 0 6-2.6863 6-6 0-3.31371-2.6863-6-6-6zm-4 6c0-2.20914 1.79086-4 4-4 2.2091 0 4 1.79086 4 4s-1.7909 4-4 4c-2.20914 0-4-1.79086-4-4z"/><path d="m8 14c-3.31371 0-6 2.6863-6 6 0 1.6569 1.34315 3 3 3h14c1.6569 0 3-1.3431 3-3 0-3.3137-2.6863-6-6-6zm-4 6c0-2.2091 1.79086-4 4-4h8c2.2091 0 4 1.7909 4 4 0 .5523-.4477 1-1 1h-14c-.55228 0-1-.4477-1-1z"/></g></svg>